<?xml version="1.0" encoding="iso-8859-1"?>
<!-- Generator: Adobe Illustrator 16.0.0, SVG Export Plug-In . SVG Version: 6.00 Build 0)  -->
<!DOCTYPE svg PUBLIC "-//W3C//DTD SVG 1.1//EN" "http://www.w3.org/Graphics/SVG/1.1/DTD/svg11.dtd">
<svg version="1.1" id="Capa_1" xmlns="http://www.w3.org/2000/svg" xmlns:xlink="http://www.w3.org/1999/xlink" x="0px" y="0px"
	 width="189.591px" height="189.591px" viewBox="0 0 189.591 189.591" style="enable-background:new 0 0 189.591 189.591;"
	 xml:space="preserve">
<g>
	<path d="M159.398,157.296c-0.091-0.117-0.158-0.238-0.263-0.353c-28.218-31.046,5.694-123.919-47.475-136.609
		c0.432-5.023,0.068-10.267-2.191-14.698c-2.219-4.352-6.705-6.174-11.361-5.5c-7.247,1.049-14.666,9.106-14.43,16.554
		c0.046,1.446,0.449,2.803,1.046,4.055c-18.217,5.166-30.336,20.673-33.283,41.988c-4.156,30.062,7.883,70.954-21.67,90.726
		c-1.681,1.125-1.813,3.366-0.989,4.908c-0.037,2.151,1.359,4.328,4.213,4.454c14.477,0.644,28.978,0.71,43.475,0.778
		c-0.067,0.174-0.151,0.381-0.206,0.531c-1.321,3.606-1.226,7.869-0.117,11.512c2.083,6.844,8.52,11.734,15.289,13.373
		c6.669,1.615,13.958-0.128,18.125-5.816c4.036-5.511,3.608-12.626,1.789-19.151c6.832,0.13,13.664,0.226,20.494,0.401
		c6.961,0.181,14.518,1.388,21.579,0.636c1.93,1.042,4.066,0.38,5.482-1.081C162.15,162.834,161.88,158.983,159.398,157.296z"/>
</g>
<g>
</g>
<g>
</g>
<g>
</g>
<g>
</g>
<g>
</g>
<g>
</g>
<g>
</g>
<g>
</g>
<g>
</g>
<g>
</g>
<g>
</g>
<g>
</g>
<g>
</g>
<g>
</g>
<g>
</g>
</svg>
