<?xml version="1.0" encoding="iso-8859-1"?>
<!-- Generator: Adobe Illustrator 16.0.0, SVG Export Plug-In . SVG Version: 6.00 Build 0)  -->
<!DOCTYPE svg PUBLIC "-//W3C//DTD SVG 1.1//EN" "http://www.w3.org/Graphics/SVG/1.1/DTD/svg11.dtd">
<svg version="1.1" id="Capa_1" xmlns="http://www.w3.org/2000/svg" xmlns:xlink="http://www.w3.org/1999/xlink" x="0px" y="0px"
	 width="183.171px" height="183.171px" viewBox="0 0 183.171 183.171" style="enable-background:new 0 0 183.171 183.171;"
	 xml:space="preserve">
<g>
	<g>
		<path d="M143.109,51.055c0.499-17.07-9.885-28.627-24.146-34.836c1.466-2.086,2.653-4.355,3.848-6.602
			c0.988-1.86,2.241-3.751,2.905-5.757c0.966-2.919-3.058-5.177-5.118-2.979c-2.168,2.312-3.222,6.018-4.618,8.819
			c-0.756,1.515-1.522,3.033-2.378,4.495C98.942,9.429,81.439,9.7,67.475,14.845c-0.446-0.885-0.903-1.766-1.344-2.647
			c-0.66-1.32-1.191-2.63-1.566-4.058c-0.369-1.404,0.086-2.563-0.693-3.925c-0.699-1.22-2.136-1.434-3.322-0.871
			c-4.809,2.282-1.647,8.82,1.756,13.72c-13.437,6.634-22.184,18.493-19.062,35.452c0.175,0.949,0.767,1.43,1.458,1.572
			c0.242,0.328,0.584,0.574,1.045,0.639c14.458,2.045,29.36,0.942,43.915,0.788c16.562-0.176,33.042,0.254,49.573,1.234
			c2.311,0.137,3.257-1.781,2.92-3.526C142.704,52.737,143.081,52.017,143.109,51.055z M83.561,31.302
			c0.549,1.723,0.041,3.58-0.5,5.254c0.172-0.703,0.309-1.416,0.381-2.133c0.178-1.777-0.089-3.373-0.674-4.776
			C83.087,30.155,83.367,30.695,83.561,31.302z M92.709,41.642c0.159,0.854,0.335,1.705,0.527,2.553
			c-0.354-0.009-0.709-0.017-1.064-0.026C92.367,43.329,92.546,42.485,92.709,41.642z M63.643,43.562
			c-0.007-0.404-0.011-0.809-0.019-1.213c0.395,0.432,0.813,0.844,1.27,1.213C64.477,43.56,64.06,43.564,63.643,43.562z
			 M75.017,39.278c-3.007,2.742-7.816-0.146-8.572-3.52c-0.673-3.006,1.262-5.875,3.838-7.567c1.945,0.977,5.401,1.101,6.514,2.697
			C78.648,33.542,77.164,37.32,75.017,39.278z M119.992,34.318c-0.444,2.725-2.623,5.072-5.215,5.921
			c-3.459,1.132-6.993-1.32-7.72-4.727c-0.915-4.283,3.681-7.361,7.408-6.57c0.183,0.095,0.372,0.177,0.573,0.23
			C117.536,29.828,120.495,31.237,119.992,34.318z"/>
		<path d="M143.819,98.168c-0.303-10.548,0.278-22.071-1.759-32.4c-0.368-1.868-1.949-2.395-3.354-1.995
			c-0.317-0.326-0.745-0.594-1.319-0.751c-14.942-4.069-31.088-1.489-46.242-0.059c-7.935,0.749-15.868,1.322-23.843,1.283
			c-6.31-0.03-13.658-2.681-19.886-1.942c-0.424-0.096-0.859-0.046-1.225,0.196c-0.098,0.02-0.199,0.031-0.297,0.053
			c-0.966,0.215-1.206,1.19-0.907,1.973c-5.481,12.087-4.082,25.535-3.565,38.486c0.249,6.248,0.055,12.443-0.553,18.664
			c-0.567,5.806-1.553,12.8,0.984,18.314c3.238,7.039,12.787,7.895,20.883,7.98c-1.678,6.541-1.675,14.225-0.817,20.531
			c0.792,5.817,4.509,15.314,12.392,12.938c6.839-2.062,7.584-10.954,8.073-16.913c0.367-4.479,1.054-10.875,0.344-16.189
			c5.642,0.172,11.284,0.35,16.927,0.429c0.583,0.008,1.174,0.013,1.76,0.021c-1.277,12.105,1.887,42.004,16.031,32.574
			c6.399-4.266,6.452-15.52,6.664-22.244c0.084-2.679,0.521-7.316,0.066-11.443c2.552-0.403,5.071-0.933,7.535-1.646
			c7.613-2.206,9.729-7.941,10.971-15.238C144.504,120.086,144.129,108.976,143.819,98.168z M68.261,70.559
			c-1.024,0.13-2.047,0.269-3.071,0.417c-0.375-0.271-0.843-0.45-1.392-0.515c0.005-0.032,0.004-0.065,0.008-0.097
			C65.289,70.464,66.773,70.535,68.261,70.559z M78.519,141.828c-0.015-0.121-0.035-0.24-0.062-0.357
			c1.39,0.179,2.782,0.347,4.176,0.488C81.262,141.908,79.89,141.871,78.519,141.828z"/>
		<path d="M35.565,82.899c-0.092-6.415-2.359-14.982-6.764-19.833c-4.796-5.282-9.756-2.754-12.749,2.36
			c-0.027,0.026-0.059,0.036-0.086,0.065c-8.142,8.803-5.81,65.765,11.593,59.449C41.658,119.822,35.719,93.668,35.565,82.899z"/>
		<path d="M169.666,79.041c-0.967-5.225-2.576-11.459-6.61-15.22c-3.174-2.959-8.492-2.546-10.619,1.388
			c-0.379,0.702-0.393,1.471-0.168,2.149c-2.591,4.295-3.361,9.376-3.955,14.399c-1.099,9.283-1.454,18.99-0.042,28.257
			c0.747,4.898,2.067,12.47,7.535,14.398c4.667,1.646,8.626-0.928,11.085-4.8C173.814,108.709,171.876,90.987,169.666,79.041z"/>
	</g>
</g>
<g>
</g>
<g>
</g>
<g>
</g>
<g>
</g>
<g>
</g>
<g>
</g>
<g>
</g>
<g>
</g>
<g>
</g>
<g>
</g>
<g>
</g>
<g>
</g>
<g>
</g>
<g>
</g>
<g>
</g>
</svg>
