<?xml version="1.0" encoding="iso-8859-1"?>
<!-- Generator: Adobe Illustrator 16.0.0, SVG Export Plug-In . SVG Version: 6.00 Build 0)  -->
<!DOCTYPE svg PUBLIC "-//W3C//DTD SVG 1.1//EN" "http://www.w3.org/Graphics/SVG/1.1/DTD/svg11.dtd">
<svg version="1.1" id="Capa_1" xmlns="http://www.w3.org/2000/svg" xmlns:xlink="http://www.w3.org/1999/xlink" x="0px" y="0px"
	 width="193.42px" height="193.42px" viewBox="0 0 193.42 193.42" style="enable-background:new 0 0 193.42 193.42;"
	 xml:space="preserve">
<g>
	<path d="M82.05,79.493c0.017-0.681-0.077-1.371-0.359-2.013c-5.978-13.569-11.776-27.152-16.998-41.035
		c-1.495-3.975-6.719-3.629-8.306-0.93c-0.22,0.175-0.437,0.368-0.646,0.605c-2.816,3.198-5.744,6.303-8.685,9.399
		c-2.264-4.168-5.271-8.115-7.634-12.181c-2.797-4.812-5.42-9.722-8.241-14.52c-1.176-2.001-3.719-3.134-5.985-2.436
		C16.389,19.098,8.789,25.28,4.277,33.315c-1.466,2.611-0.56,5.694,1.909,7.281c9.43,6.063,18.402,13.489,28.7,17.996
		c-0.299,0.337-0.611,0.663-0.908,1.002c-3.299,2.583-6.552,5.225-9.818,7.814c-3.585,2.842-1.178,8.421,2.532,9.589
		c17.717,5.578,35.344,12.657,54.209,9.735C84.711,86.142,84.542,81.438,82.05,79.493z"/>
	<path d="M190.85,34.894c-4.879-8.035-9.758-16.071-14.636-24.106c-2.123-3.496-6.875-3.262-9.046,0
		c-7.309,10.981-15.132,21.936-21.609,33.531c-3.016-3.404-5.984-6.855-9.189-10.074c-0.083-0.083-0.182-0.113-0.271-0.181
		c0.07-0.099,0.138-0.199,0.208-0.298c1.329-1.896-1.508-3.828-3.079-2.376C118.4,45.095,106.96,60.887,95.362,77.313
		c-1.866,2.644,0.604,6.83,3.786,6.598c21.586-1.578,43.284-3.302,64.037-9.822c3.147-0.989,3.656-4.287,2.464-6.524
		c0.158-0.565,0.147-1.201-0.128-1.9c-0.763-1.942-2.044-3.692-3.546-5.33c10.72-5.012,22.054-14.53,26.942-18.07
		C191.26,40.567,192.484,37.587,190.85,34.894z M142.042,51.008c-0.606-0.442-1.214-0.882-1.819-1.324
		c0.01-0.015,0.02-0.029,0.03-0.043c0.287-0.429,0.469-0.848,0.604-1.261c0.507,0.648,1.007,1.3,1.511,1.95
		C142.257,50.553,142.153,50.783,142.042,51.008z"/>
	<path d="M190.628,145.637c-7.35-4.51-16.297-6.533-24.473-8.982c-4.351-1.303-8.683-2.654-12.953-4.199
		c4.17-4.266,9.691-10.456,7.746-15.233c0.683-0.093,1.367-0.167,2.042-0.313c2.924-0.634,3.785-5.4,0.874-6.688
		c-8.597-3.805-18.723-3.915-27.977-5.496c-9.531-1.628-19.054-3.182-28.681-4.126c-2.888-0.283-5.602,3.263-4.552,5.977
		c5.308,13.726,10.841,33.584,23.588,42.791c0.448,2.342,3.023,4.339,5.38,2.64c3.944-2.845,7.663-5.98,11.235-9.279
		c7.015,10.785,15.373,20.949,22.503,31.444c2.322,3.418,7.15,3.616,9.434,0c4.729-7.491,10.041-14.201,16.964-19.766
		C194.654,152.075,193.434,147.357,190.628,145.637z"/>
	<path d="M81.781,104.026c-9.923,3.73-19.845,7.457-29.793,11.118c-4.909,1.807-15.283,3.163-19.371,7.391
		c-2.006-1.032-4.87,1.247-3.321,3.382c2.933,4.042,5.901,8.032,8.962,11.945c-12.419,5.093-24.086,11.485-35.472,18.985
		c-3,1.976-3.872,6.24-1.147,8.902c7.243,7.076,15.102,13.295,23.704,18.64c2.017,1.253,5.315,1.017,6.898-0.891
		c7.484-9.016,13.745-18.834,19.859-28.771c3.416,4.278,7.952,9.282,11.759,8.84c0.518,1,1.912,1.846,3.046,1.728
		c7.12-0.739,8.897-12.188,10.738-17.772c4.065-12.332,7.297-25.016,9.9-37.734C88.192,106.617,85.381,102.674,81.781,104.026z"/>
</g>
<g>
</g>
<g>
</g>
<g>
</g>
<g>
</g>
<g>
</g>
<g>
</g>
<g>
</g>
<g>
</g>
<g>
</g>
<g>
</g>
<g>
</g>
<g>
</g>
<g>
</g>
<g>
</g>
<g>
</g>
</svg>
