<?xml version="1.0" encoding="iso-8859-1"?>
<!-- Generator: Adobe Illustrator 16.0.0, SVG Export Plug-In . SVG Version: 6.00 Build 0)  -->
<!DOCTYPE svg PUBLIC "-//W3C//DTD SVG 1.1//EN" "http://www.w3.org/Graphics/SVG/1.1/DTD/svg11.dtd">
<svg version="1.1" id="Capa_1" xmlns="http://www.w3.org/2000/svg" xmlns:xlink="http://www.w3.org/1999/xlink" x="0px" y="0px"
	 width="186.122px" height="186.122px" viewBox="0 0 186.122 186.122" style="enable-background:new 0 0 186.122 186.122;"
	 xml:space="preserve">
<g>
	<path d="M143.799,61.901c0.581-5.49-0.568-11.606-2.462-17.094c2.864-17.745-16.109-27.545-31.876-29.893
		c1.073-3.145,0.511-6.807,0.505-10.124c-0.003-1.712-1.253-3.704-3.057-4.014c-9.317-1.6-19.113-0.626-28.18,1.986
		c-2.221,0.639-3.054,2.68-2.726,4.802c0.537,3.483,0.064,7.065,0.823,10.432C63.705,21.6,50.979,27.704,41.144,35.601
		c-1.417,1.137-1.205,2.764-0.271,3.892c-0.699,0.252-1.246,0.869-1.213,1.751c0.267,7.059,2.364,14.01,3.033,21.088
		c1.039,10.987,0.885,22.137,0.702,33.157c-0.343,20.665-2.394,41.385-1.843,62.056c0.031,1.163,0.502,2.02,1.181,2.583
		c-0.357,0.893-0.302,1.938,0.498,2.709c15.444,14.904,40.287,21.405,61.025,23.142c14.068,1.177,43.876-4.646,40.542-24.344
		c0.604-0.567,0.978-1.358,0.891-2.354C142.929,127.614,150.07,93.386,143.799,61.901z M113.858,149.351
		c3.153-0.003,6.118-0.723,8.896-2.041c-3.411,2.036-7.433,3.101-11.829,3.409C111.909,150.273,112.894,149.828,113.858,149.351z
		 M99.48,40.426c0.071,0.569,0.143,1.136,0.21,1.709c-0.878-0.594-1.809-1.137-2.792-1.628
		C97.758,40.478,98.619,40.446,99.48,40.426z M88.794,63.412c-0.031,3.197-0.088,6.394-0.163,9.591
		c-0.034-0.045-0.063-0.092-0.097-0.136c-0.158-3.288-0.26-6.587-0.322-9.895C88.407,63.119,88.6,63.267,88.794,63.412z
		 M69.761,64.929c0.192,2.268,0.366,4.562,0.537,6.875c-0.373-2.182-0.744-4.364-1.112-6.547
		C69.375,65.146,69.573,65.043,69.761,64.929z M59.834,134.537c3.668,1.913,7.317,3.862,10.977,5.792
		c1.665,0.878,3.337,1.774,5.017,2.663c-7.249-3.055-13.876-6.546-18.964-9.622C57.701,133.709,58.896,134.047,59.834,134.537z
		 M53.948,163.499c0.322-0.296,0.58-0.659,0.798-1.044c0.768,0.904,1.556,1.773,2.36,2.614
		C56.045,164.555,54.973,164.054,53.948,163.499z M129.749,165.292c-11.577,7.986-21.935,11.177-37.112,8.627
		c-12.841-2.157-28.086-8.979-37.954-18.086c-0.341-5.078,0.167-10.686,0.722-16.046C68,150.105,85.369,155.78,100.846,158.384
		c8.867,1.492,22.716,1.661,29.917-4.828C130.526,157.475,130.222,161.388,129.749,165.292z"/>
</g>
<g>
</g>
<g>
</g>
<g>
</g>
<g>
</g>
<g>
</g>
<g>
</g>
<g>
</g>
<g>
</g>
<g>
</g>
<g>
</g>
<g>
</g>
<g>
</g>
<g>
</g>
<g>
</g>
<g>
</g>
</svg>
