<?xml version="1.0" encoding="iso-8859-1"?>
<!-- Generator: Adobe Illustrator 16.0.0, SVG Export Plug-In . SVG Version: 6.00 Build 0)  -->
<!DOCTYPE svg PUBLIC "-//W3C//DTD SVG 1.1//EN" "http://www.w3.org/Graphics/SVG/1.1/DTD/svg11.dtd">
<svg version="1.1" id="Capa_1" xmlns="http://www.w3.org/2000/svg" xmlns:xlink="http://www.w3.org/1999/xlink" x="0px" y="0px"
	 width="194.161px" height="194.161px" viewBox="0 0 194.161 194.161" style="enable-background:new 0 0 194.161 194.161;"
	 xml:space="preserve">
<g>
	<path d="M150.293,167.654c2.11-7.302,0.295-16.245-0.231-23.646c-0.756-10.646-1.84-21.273-2.695-31.914
		c-1.901-23.629-2.749-46.978,0.906-70.478c0.229-1.479-0.434-2.65-1.402-3.318c1.407-17.639-23.624-24.703-39.126-26.634
		c0.823-3.33-0.763-8.093-2.688-10.017c-2.87-2.871-10.629-1.142-14.291-1.019c-6.174,0.207-12.97,0.38-18.852,2.377
		c-1.31,0.445-2.694,1.746-2.503,3.288c0.323,2.612,0.633,5.206,1.68,7.652c0.167,0.389,0.355,0.694,0.55,0.964
		c-11.801,3.784-22.412,10.52-28.637,21.121c-0.812,1.382-0.117,2.797,1,3.471c-4.501,41.684,2.206,83.616,1.222,125.436
		c-0.035,1.504,0.65,2.472,1.598,2.955c0.566,2.017,1.42,3.877,2.513,5.598c-0.12,0.122-0.244,0.245-0.359,0.367
		c-1.791,1.9,0.899,4.556,2.836,2.865c12.369,13.646,41.445,16.671,56.216,17.33c11.525,0.515,24.273-0.635,34.407-6.585
		C148.818,183.719,154.47,174.688,150.293,167.654z M54.61,125.414c-0.279,2.477-0.47,4.923-0.615,7.357
		c-0.116,0.13-0.229,0.262-0.324,0.409c-0.038-3.075-0.106-6.153-0.227-9.234C53.718,124.589,54.126,125.07,54.61,125.414z
		 M94.479,108.086c4.821-1.03,9.771-0.89,14.694-1.139c-5.044,15.966-12.898,30.665-19.818,45.85
		c0.807-10.489-0.043-21.386,2.558-31.709c0.703-2.793-1.793-5.223-4.559-4.559c-2.218,0.531-4.49,0.761-6.754,1.077
		c-6.758-22.53-12.373-45.292-10.686-68.938c13.303,0.683,26.617,1.037,39.936,1.09c-2.981,18.693-11.364,36.04-19.474,52.992
		C88.983,105.66,91.233,108.78,94.479,108.086z M134.242,32.484c-2.58-3.077-6.146-5.404-10.601-6.896
		c0.021-0.369,0.018-0.739-0.042-1.104c0.411,0.166,0.831,0.312,1.238,0.488c4.481,1.941,7.355,4.648,9.9,7.78
		C134.572,32.657,134.407,32.576,134.242,32.484z"/>
</g>
<g>
</g>
<g>
</g>
<g>
</g>
<g>
</g>
<g>
</g>
<g>
</g>
<g>
</g>
<g>
</g>
<g>
</g>
<g>
</g>
<g>
</g>
<g>
</g>
<g>
</g>
<g>
</g>
<g>
</g>
</svg>
