<?xml version="1.0" encoding="iso-8859-1"?>
<!-- Generator: Adobe Illustrator 16.0.0, SVG Export Plug-In . SVG Version: 6.00 Build 0)  -->
<!DOCTYPE svg PUBLIC "-//W3C//DTD SVG 1.1//EN" "http://www.w3.org/Graphics/SVG/1.1/DTD/svg11.dtd">
<svg version="1.1" id="Capa_1" xmlns="http://www.w3.org/2000/svg" xmlns:xlink="http://www.w3.org/1999/xlink" x="0px" y="0px"
	 width="188.645px" height="188.645px" viewBox="0 0 188.645 188.645" style="enable-background:new 0 0 188.645 188.645;"
	 xml:space="preserve">
<g>
	<path d="M140.011,92.798c-6.328-9.766-23.16-7.237-25.522,4.449c-0.375,1.853,2.371,3.297,3.237,1.364
		c0.18-0.401,0.399-0.789,0.645-1.165c-0.092,1.179,0.588,2.374,2.067,2.247c5.487-0.472,11.027,0.24,16.518-0.01
		c2.142-0.099,3.035-1.95,2.694-3.525C140.492,95.335,140.847,94.087,140.011,92.798z"/>
	<path d="M76.215,73.577c-0.237-0.765-0.717-1.257-1.288-1.523c-0.378-0.641-1.062-1.125-2.056-1.194
		c-6.397-0.446-13.256-0.244-19.64,0.329c-1.077,0.096-1.726,0.732-1.967,1.485c-2.192,2.67-1.98,7.115-0.069,9.86
		c0.051,0.074,0.108,0.131,0.165,0.196c-0.221,0.093-0.437,0.212-0.642,0.401c-0.218,0.201-0.102-0.02-0.115-0.026
		c-1.055-0.406-1.87,1.135-1.082,1.859c2.012,1.851,4.452,2.058,7.625,2.329c2.782,0.238,5.606,0.229,8.397,0.253
		c2.306,0.021,5.116,0.647,6.889-1.1c0.547-0.539,0.684-1.36,0.429-2.05c1.263-0.373,2.411-1.052,3.221-2.15
		C77.873,79.824,77.026,76.177,76.215,73.577z"/>
	<path d="M72.846,98.638c-6.591-2.229-14.002-0.649-20.733-0.175c-1.793,0.126-2.297,1.996-1.528,3.107
		c-0.081,0.179-0.127,0.374-0.188,0.562c-0.838,0.775-1.021,2.116-0.483,3.188c0.005,0.011,0.013,0.02,0.019,0.031
		c-0.012,0.219-0.022,0.438-0.034,0.656c-0.16,2.942,0.114,5.924,0.297,8.858c0.097,1.565,1.545,2.131,2.635,1.713
		c2.553,3.608,9.306,3.303,13.437,3.147c5.639-0.214,12.379-1.943,14.301-7.916C82.547,105.656,78.352,100.5,72.846,98.638z
		 M54.163,112.974c0.05-0.723,0.128-1.442,0.184-2.163c0.099,0.081,0.204,0.152,0.305,0.232c0.091,0.328,0.225,0.652,0.339,0.979
		c-0.014,0.23,0.062,0.455,0.221,0.639c0.03,0.073,0.045,0.146,0.076,0.219C54.866,112.875,54.34,112.912,54.163,112.974z"/>
	<path d="M181.879,67.463c-6.225-23.93-21.381-45.674-43.055-57.932c-25.703-14.537-56.356-10.953-82.34,0.751
		C16.978,28.079-1.919,68.635,4.263,110.694c6.5,44.216,45.597,80.299,91.174,77.832c0.231-0.014,0.439-0.057,0.637-0.113
		c32.95-1.322,62.205-16.998,78.271-46.612C186.592,119.228,188.272,92.038,181.879,67.463z M11.471,76.454
		c-0.071,0.185-0.127,0.375-0.195,0.561c-0.015-0.004-0.026-0.014-0.04-0.019c0.228-1.157,0.5-2.3,0.773-3.443
		c0.058,0.632,0.137,1.263,0.249,1.889C11.938,75.662,11.655,75.985,11.471,76.454z M77.354,9.264
		c-0.68,0.25-1.352,0.511-2.024,0.771c-3.626,1.051-7.09,2.519-10.425,4.298c-1.714,0.404-3.423,0.831-5.12,1.311
		C65.452,12.964,71.341,10.807,77.354,9.264z M59.523,39.447c0.941,0.08,1.885,0.158,2.827,0.237
		c-0.007,0.112,0.008,0.226,0.023,0.339c-0.996-0.028-1.993-0.052-2.989-0.086C59.448,39.78,59.497,39.617,59.523,39.447z
		 M79.903,131.638c-15.045,5.284-32.049,0.463-47.502-0.815c-0.247-0.531-0.495-1.062-0.742-1.593
		c-0.355-3.526-0.735-7.056-0.831-10.61c-0.213-7.91,0.334-15.842,0.927-23.724c0.925-12.301,2.681-24.733,2.497-37.111
		c3.894,0.848,10.818-2.097,14.461-2.519c6.977-0.808,14.073-0.765,21.061-0.167c7.772,0.665,13.976,3.267,18.503,9.911
		c5.563,8.166,3.796,17.674-3.572,23.777c-0.486,0.402-0.71,0.885-0.757,1.376c-0.646,1.222-0.528,2.827,1.023,3.698
		C101.337,103.047,96.032,125.975,79.903,131.638z M160.923,119.459c0.145-0.904,0.261-1.806,0.366-2.707
		c0.161,0.412,0.314,0.827,0.487,1.236c0.028,0.066,0.064,0.12,0.097,0.182c-0.303,0.457-0.6,0.917-0.885,1.382
		C160.964,119.524,160.95,119.488,160.923,119.459z M149.292,63.246c0.213,1.508,0.491,2.993,0.835,4.453
		c-0.349,0.026-0.698,0.049-1.047,0.074C149.158,66.267,149.204,64.753,149.292,63.246z M113.06,61.074
		c0.433-0.941,0.428-1.79,0.16-2.491c10.392-0.731,20.584,1.74,30.968,1.528c0.322,2.64,0.375,5.331,0.522,7.998
		c-10.893,0.925-21.726,2.364-32.639,3.106c-0.015-0.088-0.023-0.174-0.049-0.265C111.106,67.678,111.653,64.133,113.06,61.074z
		 M96.922,97.975c-0.271-0.466-0.579-0.908-0.88-1.355c0.004-0.014,0.016-0.024,0.021-0.038c0.565-1.843,1.588-3.512,2.507-5.213
		c-0.507,1.583-0.932,3.208-1.289,4.852C97.154,96.803,97.035,97.388,96.922,97.975z M97.486,124.924
		c0.235-0.459,0.486-0.911,0.696-1.381c0.236,0.636,0.523,1.246,0.8,1.861C98.563,125.058,98.032,124.913,97.486,124.924z
		 M100.374,86.598c0.023-0.154,0.028-0.307,0.021-0.457c0.636-1.068,1.255-2.146,1.915-3.197c1.096-1.743,2.263-3.471,3.547-5.083
		c0.05-0.062,0.106-0.122,0.161-0.183c1.021-0.351,1.919-1.204,2.075-2.399c0.876,0.102,1.753,0.211,2.631,0.288
		c-4.955,2.555-8.209,6.591-10.413,11.308C100.329,86.783,100.36,86.694,100.374,86.598z M123.88,142.964
		c-0.178-0.235-0.408-0.458-0.686-0.661c-0.064-0.116-0.131-0.233-0.214-0.342c0.86,0.106,1.732,0.164,2.606,0.215
		C125.017,142.438,124.447,142.699,123.88,142.964z M117.857,135.793c-18.229-4.372-19.354-25.116-15.4-40.189
		c4.412-16.825,21.807-21.165,36.731-15.887c13.714,4.85,15.532,15.487,16.271,26.919c-3.908-0.442-8.376-0.014-10.701-0.033
		c-8.073-0.067-16.487-0.026-24.505,1.049c-1.11,0.148-1.865,0.762-2.259,1.52c-0.807,0.319-1.444,1.032-1.418,2.084
		c0.329,13.049,18.026,14.147,22.944,3.305c0.256-0.563,0.318-1.111,0.264-1.624c1.024-0.015,2.046-0.022,3.065-0.014
		c3.435,0.027,8.618,1.183,13.052,1.248c0.122,1.8,0.271,3.595,0.497,5.361c-0.204,0.254-0.382,0.545-0.505,0.902
		C150.749,135.373,131.547,139.078,117.857,135.793z M144.979,156.25c-0.187-0.427-0.473-0.804-0.821-1.109
		c0.216-0.499,0.298-1.067,0.255-1.637c0.548,0.702,1.369,1.221,2.263,1.331C146.116,155.313,145.542,155.777,144.979,156.25z"/>
</g>
<g>
</g>
<g>
</g>
<g>
</g>
<g>
</g>
<g>
</g>
<g>
</g>
<g>
</g>
<g>
</g>
<g>
</g>
<g>
</g>
<g>
</g>
<g>
</g>
<g>
</g>
<g>
</g>
<g>
</g>
</svg>
