<?xml version="1.0" encoding="iso-8859-1"?>
<!-- Generator: Adobe Illustrator 16.0.0, SVG Export Plug-In . SVG Version: 6.00 Build 0)  -->
<!DOCTYPE svg PUBLIC "-//W3C//DTD SVG 1.1//EN" "http://www.w3.org/Graphics/SVG/1.1/DTD/svg11.dtd">
<svg version="1.1" id="Capa_1" xmlns="http://www.w3.org/2000/svg" xmlns:xlink="http://www.w3.org/1999/xlink" x="0px" y="0px"
	 width="186.454px" height="186.454px" viewBox="0 0 186.454 186.454" style="enable-background:new 0 0 186.454 186.454;"
	 xml:space="preserve">
<g>
	<path d="M181.709,77.195c-0.149-3.013-2.24-4.854-5.14-5.14c-4.05-0.399-8.104-0.78-12.156-1.166
		c0.012-0.036,0.035-0.054,0.048-0.09c5.941-19.325,22.898-65.526-12.567-68.384c-13.723-1.106-24.047,8.884-32.546,18.387
		c-4.974,5.562-9.435,11.557-14.232,17.267c-1.771,2.11-3.886,4.095-5.817,6.201c-4.928-2.211-10.656-2.127-15.879-0.651
		c-7.634-20.29-26.604-47.12-49.196-43.241c-12.22,2.099-15.18,15.869-16.722,25.95c-0.858,5.614-3.47,18.368-0.232,25.614
		c-0.336,1.701-0.128,3.465,0.726,4.891c-2.827,0.04-5.657,0.124-8.494,0.327c-2.619,0.187-4.869,2.063-4.848,4.848
		c0.075,9.762,0.251,19.39,1.211,29.111c0.108,1.093,0.556,1.907,1.156,2.489c-0.011,0.339,0.094,0.679,0.342,0.915
		c5.49,5.257,12.322,4.622,19.646,4.881c2.927,17.513,2.017,35.584,3.946,53.216c0.698,6.386,1.613,19.406,7.682,24.512
		c0.03,2.202,1.2,4.415,3.654,5.074c29.855,8.012,60.817,2.236,91.247,2.219c2.738-0.002,4.476-1.453,5.267-3.335
		c1.148-0.387,2.167-1.247,2.649-2.769c4.188-13.208,6.108-27.312,9.152-40.836c1.876-8.336,5.715-17.905,6.738-26.896
		c3.034,0.294,6.065,0.613,9.102,0.89c1.611,0.147,2.813-0.342,3.635-1.164c2.55,1.555,6.446,1.052,7.488-2.687
		C180.432,97.353,182.237,87.869,181.709,77.195z M68.495,173.155c-7.285-0.029-14.575-0.279-21.875-0.947
		c0.706-9.825-3.27-22.494-3.979-31.165c-1.107-13.539-1.704-27.464-3.862-40.948c10.545,0.65,21.085,1.348,31.622,2.131
		C64.159,124.456,65.228,150.082,68.495,173.155z M34.237,88.986c-6.796-0.327-14.536-1.728-20.956,0.355
		c0.675-7.563,0.916-15.088,1.013-22.664c19.292-0.718,38.462,1.864,57.576,4.52c0.242,6.853,0.737,13.687,1.356,20.515
		C60.244,90.538,47.258,89.612,34.237,88.986z M95.92,148.959c-0.048,1.869-1.113,7.959-1.601,13.897
		c0.135-6.58,0.864-13.146,1.777-19.706C96.032,145.099,95.968,147.039,95.92,148.959z M138.364,134.109
		c-2.667,12.284-5.632,25.572-5.486,38.347c-9.577-0.475-19.136-0.371-28.688-0.121c4.281-7.232,4.144-18.657,4.888-26.172
		c1.231-12.419,1.938-25.552,0.458-37.987c-0.099-0.828-0.297-1.673-0.587-2.483c11.698,1.175,23.392,2.397,35.086,3.598
		C141.097,117.191,139.992,126.608,138.364,134.109z M168.72,101.912c-0.646-0.396-1.399-0.679-2.275-0.779
		c-3.633-0.418-7.276-0.765-10.913-1.168c-1.418-1.112-3.331-1.345-5.066-0.543c-14.612-1.593-29.238-3.083-43.867-4.526
		c2.497-5.661,2.133-12.986,1.02-19.216c21.252,2.298,42.59,4.07,63.85,6.164C171.408,88.688,170.357,95.238,168.72,101.912z"/>
</g>
<g>
</g>
<g>
</g>
<g>
</g>
<g>
</g>
<g>
</g>
<g>
</g>
<g>
</g>
<g>
</g>
<g>
</g>
<g>
</g>
<g>
</g>
<g>
</g>
<g>
</g>
<g>
</g>
<g>
</g>
</svg>
