<?xml version="1.0" encoding="iso-8859-1"?>
<!-- Generator: Adobe Illustrator 16.0.0, SVG Export Plug-In . SVG Version: 6.00 Build 0)  -->
<!DOCTYPE svg PUBLIC "-//W3C//DTD SVG 1.1//EN" "http://www.w3.org/Graphics/SVG/1.1/DTD/svg11.dtd">
<svg version="1.1" id="Capa_1" xmlns="http://www.w3.org/2000/svg" xmlns:xlink="http://www.w3.org/1999/xlink" x="0px" y="0px"
	 width="188.139px" height="188.139px" viewBox="0 0 188.139 188.139" style="enable-background:new 0 0 188.139 188.139;"
	 xml:space="preserve">
<g>
	<path d="M149.406,21.276c-2.448-1.825-4.792,1.558-3.764,3.763c2.011,4.314,2.356,5.469-2.301,7.246
		c-5.185,1.977-10.699,3.039-15.945,4.851c-6.989,2.414-14.177,7.699-14.915,14.443c-4.099-2.568-8.18-5.165-12.208-7.859
		c-1.981-1.325-4.946-0.022-5.49,2.233c-0.613,2.539-1.391,5.066-1.848,7.634c-21.472-4.177-44.995,5.861-59.993,22.311
		c-20.124,22.071-27.545,56.888-12.177,83.425c20.653,35.662,70.285,36.129,99.778,12.869
		c27.558-21.732,35.224-69.968,12.302-95.532c1.06-1.437,1.711-3.02,3.095-4.316c2.116-1.979,1.462-5.476-0.891-6.916
		c-5.422-3.318-10.854-6.6-16.261-9.923c0.605-4.196,2.536-6.887,7.249-8.977c5.445-2.415,11.382-3.436,17.054-5.171
		c4.497-1.376,9.655-3.266,11.554-7.954C156.644,28.467,153.147,24.064,149.406,21.276z M30.987,149.218
		c-9.55-4.896-6.53-23.683-5.2-31.87c1.408-8.672,4.126-16.66,8.155-24.335c3.018-4.784,6.52-9.197,10.33-13.061
		c9.502-9.64,19.88-13.987,30.862-15.265c-3.828,2.354-7.441,5.172-10.653,8.265c-14.408,13.878-11.614,35.572-13.573,53.757
		C49.785,137.132,46.05,156.939,30.987,149.218z"/>
	<path d="M135.864,21.008c-4.491-0.394-10.045,0.118-13.514,3.308c-1.557,1.431,0.13,3.488,1.871,3.214
		c1.843-0.291,3.529-1.156,5.288-1.761c2.038-0.702,4.217-1.239,6.354-1.503C137.929,24.012,137.99,21.195,135.864,21.008z"/>
	<path d="M135.241,14.131c-3.02-1.196-4.688-3.689-6.212-6.415c-0.868-1.553-2.934-0.423-2.684,1.132
		c0.675,4.204,3.903,7.437,8.115,8.116C136.339,17.267,137.007,14.831,135.241,14.131z"/>
	<path d="M147.858,0.374c-5.334,3.715-7.482,9.135-4.701,15.225c1.013,2.217,4.486,0.626,3.856-1.626
		c-1.16-4.154,0.55-7.237,3.66-9.951C152.654,2.295,150.025-1.135,147.858,0.374z"/>
	<path d="M165.872,3.952c-0.479-1.827-3.531-1.5-3.356,0.454c0.363,4.087-0.644,7.536-3.989,10.058
		c-1.046,0.788-0.489,2.802,0.967,2.294C164.992,14.84,167.305,9.407,165.872,3.952z"/>
	<path d="M162.745,21.668c-2.184-0.542-3.771,2.756-1.584,3.758c5.032,2.307,8.183,5.775,10.017,10.975
		c0.808,2.294,4.488,2.056,4.406-0.596C175.35,28.359,169.614,23.372,162.745,21.668z"/>
	<path d="M161.091,41.35c-0.864-2.396-4.63-1.434-3.863,1.065c0.989,3.228,1.86,6.472,3.494,9.446
		c1.01,1.837,3.38,0.471,3.124-1.317C163.388,47.341,162.183,44.378,161.091,41.35z"/>
	<path d="M147.648,45.934c-0.098-2.134-3.214-2.134-3.312,0c-0.17,3.707-0.493,7.434-0.239,11.142c0.167,2.442,3.625,2.442,3.792,0
		C148.143,53.368,147.818,49.641,147.648,45.934z"/>
</g>
<g>
</g>
<g>
</g>
<g>
</g>
<g>
</g>
<g>
</g>
<g>
</g>
<g>
</g>
<g>
</g>
<g>
</g>
<g>
</g>
<g>
</g>
<g>
</g>
<g>
</g>
<g>
</g>
<g>
</g>
</svg>
