<?xml version="1.0" encoding="iso-8859-1"?>
<!-- Generator: Adobe Illustrator 16.0.0, SVG Export Plug-In . SVG Version: 6.00 Build 0)  -->
<!DOCTYPE svg PUBLIC "-//W3C//DTD SVG 1.1//EN" "http://www.w3.org/Graphics/SVG/1.1/DTD/svg11.dtd">
<svg version="1.1" id="Capa_1" xmlns="http://www.w3.org/2000/svg" xmlns:xlink="http://www.w3.org/1999/xlink" x="0px" y="0px"
	 width="188.339px" height="188.339px" viewBox="0 0 188.339 188.339" style="enable-background:new 0 0 188.339 188.339;"
	 xml:space="preserve">
<g>
	<path d="M81.789,39.783c-5.223-4.623-10.403-9.29-15.705-13.824c-4.131-3.532-8.489-7.798-13.315-10.676
		c-0.554-1.035-1.556-1.724-2.876-1.522c-1.769-0.757-3.7,0.284-4.279,1.764C7.919,33.323-5.961,75.725,2.301,115.497
		c0.436,2.1,3.273,1.947,4.072,0.338c0.633-0.034,1.672,0.041,2.242-0.293c2.5-1.465,4.711-3.896,6.895-5.774
		c5.965-5.131,11.746-10.481,17.604-15.733C49.822,79.049,63.866,61.03,81.508,47.138c1.247-0.982,1.389-2.235,0.912-3.304
		c0.095-0.19,0.185-0.392,0.278-0.615C83.147,42.148,82.629,40.525,81.789,39.783z M51.282,61.734
		c-0.129-0.087-0.263-0.162-0.401-0.226c0.406-0.558,0.799-1.129,1.2-1.692c0.057-0.007,0.111-0.017,0.167-0.029
		c0.075,0.323,0.192,0.64,0.36,0.936C52.17,61.064,51.719,61.391,51.282,61.734z"/>
	<path d="M129.471,65.415c2.105-5.874,0.069-17.029-0.004-21.448c-0.169-10.089,1.345-22.171-0.816-32.163
		c0.975-1.56,0.895-3.698-1.229-4.797c-19.608-10.151-43.859-5.99-64.485-1.233c-2.728,0.629-2.323,4.83,0.247,5.144
		c0.186,0.461,0.525,0.872,1.074,1.154c25.866,13.297,41.366,37.297,61.101,57.521c2.273,2.33,6.46-0.751,4.571-3.527
		C129.78,65.848,129.62,65.634,129.471,65.415z M74.526,9.984c0.121,0.336,0.355,0.622,0.668,0.847
		c0.021,0.124,0.06,0.244,0.099,0.364c-0.689-0.358-1.368-0.738-2.071-1.068C73.656,10.082,74.092,10.033,74.526,9.984z"/>
	<path d="M178.553,50.672c-4.645-8.986-10.646-17.493-17.826-24.625c-3.423-3.4-10.291-8.896-16.053-8.557
		c-1.248-0.41-2.71-0.116-3.348,1.03c-0.202,0.121-0.41,0.219-0.605,0.364c-1.647,1.218-1.54,3.236-0.019,4.274
		c-0.252,5.712,0.543,11.582,0.851,17.24c0.503,9.249,0.85,18.504,1.01,27.765c0.303,17.448-0.657,34.804-1.444,52.219
		c-0.012,0.257,0.026,0.486,0.101,0.688c-0.85,1.223-0.777,3.034,1.09,3.301c7.221,1.027,14.494,1.576,21.785,1.771
		c4.443,0.119,11.939,0.847,15.218-2.927c1.376,1.165,4.052,0.936,4.442-1.21c2.318-12.751,4.835-25.687,4.565-38.697
		C188.082,71.756,183.787,60.801,178.553,50.672z M177.998,66.785c0.223,0.671,0.452,1.34,0.654,2.015
		c-0.284-0.579-0.746-1.016-1.294-1.31c-0.02-0.061-0.045-0.121-0.065-0.183C177.551,67.161,177.79,66.989,177.998,66.785z
		 M158.098,33.288c-0.871-0.725-1.768-1.431-2.721-2.093c-0.314-0.219-0.629-0.357-0.937-0.439
		c-0.958-1.221-1.994-2.396-3.137-3.508c-0.27-0.262-0.575-0.434-0.894-0.565c0-0.042-0.008-0.087-0.008-0.129
		C153.313,28.322,155.778,30.813,158.098,33.288z M147.482,108.137c0.118,0.542,0.264,1.089,0.429,1.637
		c0.031,0.294,0.057,0.587,0.095,0.884c-0.762,0.748-1.121,1.892-1.03,2.959c-0.79,0.891-1.087,2.179-0.781,3.291
		c-0.798,0.693-1.113,1.771-0.963,2.827c-0.098,0.009-0.196,0.009-0.294,0.017C146.019,115.933,146.837,112.052,147.482,108.137z"/>
	<path d="M169.174,137.692c-7.12-2.886-16.259-2.525-23.852-3.021c-9.389-0.613-18.811-0.717-28.217-0.756
		c-19.891-0.084-40.08,0.283-59.848,2.637c-0.022,0.003-0.036,0.015-0.059,0.017c-0.865-0.042-1.717,0.388-1.965,1.479
		c-1.768,7.763-2.664,15.977-2.993,23.921c-0.215,5.202-1.267,14.688,3.674,18.112c0.673,0.467,1.385,0.519,2.019,0.304
		c18.712,11.124,44.969,7.481,64.711,1.668c11.133-3.278,21.669-8.384,30.824-15.524c6.708-5.231,14.605-14.259,15.295-23.356
		C171.679,142.552,172.077,138.87,169.174,137.692z M63.574,168.724c0.495-0.98,0.851-1.959,1.103-2.939
		c0.109,0.89,0.22,1.778,0.337,2.666c0.008,0.075,0.014,0.149,0.021,0.225h0.007c0.02,0.142,0.035,0.285,0.055,0.427
		C64.593,168.966,64.081,168.85,63.574,168.724z M128.76,147.517c0.16,0.01,0.318,0.02,0.479,0.031
		c0.307,0.515,0.742,0.965,1.31,1.281c-0.597,0.304-1.181,0.634-1.754,0.982C129.025,149.073,129.02,148.261,128.76,147.517z
		 M155.077,144.129c-0.275-0.483-0.709-0.9-1.334-1.185c-0.076-0.035-0.151-0.061-0.229-0.095c0.012-0.043,0.021-0.087,0.031-0.13
		c1.034,0.118,2.068,0.24,3.104,0.343C156.129,143.424,155.603,143.775,155.077,144.129z M135.312,141.427
		c-0.049,0.329-0.056,0.704-0.065,1.076c-0.403,0.001-0.809,0.001-1.214,0.002c-0.194-0.445-0.463-0.855-0.875-1.151
		C133.875,141.376,134.594,141.405,135.312,141.427z"/>
	<path d="M41.301,96.228c-10.848,9.713-23.749,18.105-32.607,29.796c-0.706,0.933-0.56,1.896-0.004,2.618
		c-0.126,0.256-0.206,0.542-0.222,0.854c-0.467,8.871,5.191,17.967,10.532,24.59c3.703,4.595,11.213,13.88,18.271,13.507
		c1.456,2.309,5.741,1.767,5.837-1.649c0.625-22.287,0.1-44.451,3.604-66.566C47.209,96.22,43.853,93.942,41.301,96.228z
		 M21.931,142.54c0.585,1.699,1.229,3.377,1.915,5.039c-0.917-1.582-1.724-3.295-2.427-5.058
		C21.587,142.546,21.756,142.552,21.931,142.54z M17.87,125.558c-0.198-0.177-0.388-0.357-0.593-0.531
		c0.757-0.674,1.496-1.369,2.261-2.035C18.949,123.823,18.397,124.682,17.87,125.558z"/>
</g>
<g>
</g>
<g>
</g>
<g>
</g>
<g>
</g>
<g>
</g>
<g>
</g>
<g>
</g>
<g>
</g>
<g>
</g>
<g>
</g>
<g>
</g>
<g>
</g>
<g>
</g>
<g>
</g>
<g>
</g>
</svg>
