<?xml version="1.0" encoding="iso-8859-1"?>
<!-- Generator: Adobe Illustrator 16.0.0, SVG Export Plug-In . SVG Version: 6.00 Build 0)  -->
<!DOCTYPE svg PUBLIC "-//W3C//DTD SVG 1.1//EN" "http://www.w3.org/Graphics/SVG/1.1/DTD/svg11.dtd">
<svg version="1.1" id="Capa_1" xmlns="http://www.w3.org/2000/svg" xmlns:xlink="http://www.w3.org/1999/xlink" x="0px" y="0px"
	 width="188.349px" height="188.349px" viewBox="0 0 188.349 188.349" style="enable-background:new 0 0 188.349 188.349;"
	 xml:space="preserve">
<g>
	<g>
		<path d="M31.043,94.09c-2.171-1.272-5.781-2.301-8.134-0.923c-0.082,0.048-0.116,0.102-0.191,0.151
			c-5.112-1.381-9.824-0.463-13.299,4.566c-3.342,4.836-2.661,11.78,0.498,16.479c7.477,11.121,28.404,8.218,28.989-6.33
			C39.131,102.445,35.789,96.871,31.043,94.09z M22.14,113.705c0.076,0.362,0.244,0.694,0.495,0.947
			c-1.759-0.21-3.468-0.726-4.842-1.486C19.279,113.608,20.78,113.812,22.14,113.705z"/>
		<path d="M162.423,90.597c-0.985,0.711-1.842,1.595-2.593,2.584c-3.346,0.995-6.38,3.723-7.442,7.078
			c-2.136,6.744,0.955,14.944,6.869,18.779c9.477,6.144,24.643-2.132,26.269-12.755C187.159,95.615,171.944,83.733,162.423,90.597z"
			/>
		<path d="M43.856,150.786c-1.566-8.389-5.403-17.615-13.453-21.588c-9.083-4.482-19.316,0.858-24.752,8.295
			c-6.246,8.543-6.604,20.894-4.476,30.82c0.296,1.382,1.673,1.689,2.716,1.229c6.61,0.475,13.227,0.759,19.856,0.696
			c4.805-0.046,11.494,0.081,16.055-2.272c0.853,0.792,2.21,0.986,3.163-0.017C46.956,163.75,44.797,155.82,43.856,150.786z
			 M32.659,139.323c-0.442,0.041-0.883,0.177-1.3,0.391c-0.349-0.383-0.755-0.727-1.132-1.091c-1.017-1.341-2.245-2.59-3.706-3.723
			c0.901,0.297,1.8,0.687,2.686,1.238C30.537,136.967,31.675,138.055,32.659,139.323z"/>
		<path d="M166.28,130.748c-15.867-0.568-21.58,18.68-21.213,31.153c0.056,1.922,2.69,2.703,3.729,1.443
			c0.139,0.676,0.184,1.289,0.768,2.043c0.545,0.703,1.661-0.202,1.213-0.936c-0.067-0.035-0.135-0.069-0.202-0.104
			c0.403,0.06,0.821,0.051,1.202-0.019c6.621-1.222,13.881-0.077,20.548,0.215c4,0.175,12.964,1.751,15.142-2.899
			c0.188-0.398,0.267-0.794,0.273-1.174c0.119-0.229,0.229-0.474,0.286-0.783C190.37,146.881,179.647,131.226,166.28,130.748z
			 M169.998,137.577c-0.33,0.297-0.607,0.639-0.795,1.045c-0.222-0.115-0.458-0.183-0.695-0.244
			c-0.291-0.27-0.601-0.516-0.951-0.713c-0.315-0.177-0.674-0.271-1.04-0.3c-0.093-0.065-0.175-0.146-0.272-0.2
			C167.632,137.104,168.88,137.249,169.998,137.577z M162.204,137.952c-2.242,1.568-4.134,3.299-5.611,5.221
			c-0.756,0.649-1.505,1.306-2.236,1.978C156.235,141.877,158.771,139.227,162.204,137.952z"/>
		<path d="M52.11,30.091c-0.7,0.775-0.965,1.628-0.937,2.442c-11.468,10.062-5.856,33.557,7.492,43.912
			c2.318,1.798,4.849,3.324,7.487,4.675c-0.178,0.258-0.361,0.518-0.537,0.772c-3.568,5.146-7.192,10.311-11.96,14.423
			c-2.43,2.097-0.263,5.491,2.374,5.73c14.833,1.343,29.99-2.114,37.244-14.801c16.131-0.255,32.09-6.871,41.019-19.978
			C163.505,24.385,76.51,3.079,52.11,30.091z M51.886,54.612c-0.946-3.407-1.039-6.699-0.304-9.702
			c-0.522,2.974-0.31,6.109,0.621,9.568C52.093,54.515,51.99,54.563,51.886,54.612z M125.789,37.398
			c-1.531-1.833-3.219-3.569-5.066-5.146c2.375,1.441,4.462,3.12,6.218,5.017C126.538,37.215,126.148,37.246,125.789,37.398z"/>
	</g>
</g>
<g>
</g>
<g>
</g>
<g>
</g>
<g>
</g>
<g>
</g>
<g>
</g>
<g>
</g>
<g>
</g>
<g>
</g>
<g>
</g>
<g>
</g>
<g>
</g>
<g>
</g>
<g>
</g>
<g>
</g>
</svg>
