<?xml version="1.0" encoding="iso-8859-1"?>
<!-- Generator: Adobe Illustrator 16.0.0, SVG Export Plug-In . SVG Version: 6.00 Build 0)  -->
<!DOCTYPE svg PUBLIC "-//W3C//DTD SVG 1.1//EN" "http://www.w3.org/Graphics/SVG/1.1/DTD/svg11.dtd">
<svg version="1.1" id="Capa_1" xmlns="http://www.w3.org/2000/svg" xmlns:xlink="http://www.w3.org/1999/xlink" x="0px" y="0px"
	 width="181.064px" height="181.064px" viewBox="0 0 181.064 181.064" style="enable-background:new 0 0 181.064 181.064;"
	 xml:space="preserve">
<g>
	<path d="M177.495,5.916c-0.481-1.79-2.037-2.753-3.797-2.891c-28.347-2.221-56.779-2.72-85.203-2.326
		C65.967,1.012,37.466-1.698,16.728,8.657c-30.551,15.254-9.181,68.966-12.82,94.429c-0.276,1.932,1.128,3.261,2.604,3.505
		c0.931,15.457,5.669,27.652,25.729,30.022c10.577,1.249,21.179,1.323,31.79,0.927c2.144,18.142-17.103,26.646-31.054,32.904
		c-3.802,1.705-1.837,7.832,2.08,7.68c37.404-1.455,76.176,7.245,113.008-1.834c3.521-0.868,3.95-5.716,0.981-7.502
		c-13.227-7.952-24.448-18.455-26.095-33.971c18.836,0.092,39.979-0.119,48.697-19.73c6.106-13.733,4.836-31.24,6.685-45.853
		C181.027,47.927,183.154,26.911,177.495,5.916z M113.463,113.68c-0.444,0.749-1.412,1.388-2.096,1.886
		c-2.487,1.816-5.357,3.134-8.142,4.419c-8.502,3.926-19.929,6.329-28.226,0.604c-7.467-5.153,10.391-7.416,12.447-7.853
		c0.844-0.18,1.357-0.83,1.55-1.579c5.972-0.581,11.993-0.562,17.936,0.452c1.245,0.212,5.594,0.996,6.578,1.986
		C113.487,113.633,113.488,113.636,113.463,113.68z M146.063,93.769c-18.246-2.415-39.449,1.812-57.556,2.7
		c-11.588,0.568-23.18,1.034-34.775,1.46c-7.021,0.258-15.726-0.997-22.613,1.37c-3.015-24.229-0.83-48.398-0.628-72.711
		c40.157,1.596,80.499-0.532,120.688-0.87C145.693,46.577,142.151,72.419,146.063,93.769z"/>
</g>
<g>
</g>
<g>
</g>
<g>
</g>
<g>
</g>
<g>
</g>
<g>
</g>
<g>
</g>
<g>
</g>
<g>
</g>
<g>
</g>
<g>
</g>
<g>
</g>
<g>
</g>
<g>
</g>
<g>
</g>
</svg>
