<?xml version="1.0" encoding="iso-8859-1"?>
<!-- Generator: Adobe Illustrator 16.0.0, SVG Export Plug-In . SVG Version: 6.00 Build 0)  -->
<!DOCTYPE svg PUBLIC "-//W3C//DTD SVG 1.1//EN" "http://www.w3.org/Graphics/SVG/1.1/DTD/svg11.dtd">
<svg version="1.1" id="Capa_1" xmlns="http://www.w3.org/2000/svg" xmlns:xlink="http://www.w3.org/1999/xlink" x="0px" y="0px"
	 width="195.067px" height="195.067px" viewBox="0 0 195.067 195.067" style="enable-background:new 0 0 195.067 195.067;"
	 xml:space="preserve">
<g>
	<path d="M154.162,22.29c-13.203-8.068-28.606-13.624-43.322-18.192c-2.442-0.759-4.255,0.134-5.246,1.656
		C66.845-2.481,28.682,32.065,11.855,64.497c-21.447,41.336-14.67,90.196,27.519,114.261
		c44.667,25.479,102.828,9.905,135.053-28.049C208.585,110.479,199.338,49.899,154.162,22.29z M78.07,119.692
		c-0.245-3.477,0.706-6.625,2.852-9.449c4.521-0.085,9.065,0.39,13.56,0.79c11.209,0.998,22.289,3.009,33.505,3.529
		c-0.587,5-0.521,10.212-0.129,15.318c-17.066-0.045-34.066-0.061-50.953,2.915C77.368,128.437,77.737,124.071,78.07,119.692z
		 M56.187,134.936c-3.861-1.2-8.232-0.171-12.22,0.207c-3.169,0.3-6.342,0.554-9.515,0.814c0.362-8.985,0.291-18.089,0.392-26.951
		c0.017-1.493,0.089-3.007,0.186-4.528c0.17,0.014,0.345,0.001,0.526-0.054c0.121,0.051,0.354,0.122,0.756,0.233
		c0.715,0.197,1.532,0.138,2.261,0.111c2.326-0.085,4.694,0.112,7.017,0.234c2.632,0.139,5.254,0.428,7.853,0.865
		c1.301,0.219,2.569,0.577,3.843,0.72C56.804,116.028,56.487,125.481,56.187,134.936z M59.577,73.518
		c-2.972,0.13-5.956,0.412-8.938,0.75c-3.865-0.148-7.724-0.096-11.591,0.129c1.192-9.041,1.796-18.047,0.321-26.641
		c0.866-0.76,1.81-1.473,2.84-2.133c3.879,0.667,7.883,0.855,11.743,0.962c1.931,0.055,4.418,0.23,6.858,0.103
		C60.735,55.683,60.226,64.602,59.577,73.518z M158.003,150.435c0.173,0.686,0.477,1.223,0.853,1.648
		c-0.867,0.833-1.75,1.652-2.649,2.451c-15.406-29.972-10.293-67.229,3.002-97.912c-1.004,13.379-4.983,26.731-6.588,39.941
		C150.52,113.841,153.761,133.647,158.003,150.435z"/>
</g>
<g>
</g>
<g>
</g>
<g>
</g>
<g>
</g>
<g>
</g>
<g>
</g>
<g>
</g>
<g>
</g>
<g>
</g>
<g>
</g>
<g>
</g>
<g>
</g>
<g>
</g>
<g>
</g>
<g>
</g>
</svg>
