<?xml version="1.0" encoding="iso-8859-1"?>
<!-- Generator: Adobe Illustrator 16.0.0, SVG Export Plug-In . SVG Version: 6.00 Build 0)  -->
<!DOCTYPE svg PUBLIC "-//W3C//DTD SVG 1.1//EN" "http://www.w3.org/Graphics/SVG/1.1/DTD/svg11.dtd">
<svg version="1.1" id="Capa_1" xmlns="http://www.w3.org/2000/svg" xmlns:xlink="http://www.w3.org/1999/xlink" x="0px" y="0px"
	 width="186.104px" height="186.104px" viewBox="0 0 186.104 186.104" style="enable-background:new 0 0 186.104 186.104;"
	 xml:space="preserve">
<g>
	<path d="M151.558,15.833C122.131-5.452,80.115-3.615,48.537,11.495C17.096,26.538-6.407,61.522,3.599,96.748
		c0.039,16.245,4.639,33.346,11.924,47.245c7.534,14.374,19.815,25.744,34.26,32.943c28.555,14.229,69.321,11.841,95.366-6.788
		C192.629,136.188,200.827,51.472,151.558,15.833z M21.979,140.063c0.553,0.141,1.101,0.3,1.648,0.471
		c0.238,0.491,0.463,0.989,0.712,1.475c0.07,0.365,0.144,0.73,0.214,1.095C23.636,142.153,22.792,141.117,21.979,140.063z
		 M33.978,56.197c-0.169-0.159-0.355-0.296-0.549-0.42c0.258-0.719,0.511-1.439,0.759-2.161
		C34.118,54.477,34.035,55.334,33.978,56.197z M122.023,170.17c-0.159,0.06-0.315,0.125-0.475,0.184
		c-0.434-0.621-1.134-1.068-2.024-1.15c0.38-0.138,0.756-0.287,1.134-0.43c0.328,0.541,0.82,0.98,1.424,1.21
		C122.062,170.045,122.039,170.106,122.023,170.17z M125.718,139.677c-11.293,0.074-22.59,0.22-33.875,0.658
		c-16.512,0.644-33.922-1.279-50.524,0.45c0.783-7.169-0.06-14.813-0.221-21.823c-0.232-10.133-0.586-20.259-0.695-30.395
		c-0.182-16.958,1.319-33.325,3.339-49.951c23.8,2.529,47.668,1.062,71.605,1.066c8.638,0.002,17.168,0.115,25.782,0.708
		c0.276,0.02,0.565,0.053,0.849,0.08c-0.445,6.368,0.604,13.336,0.453,19.474c-0.257,10.309-1.067,20.604-1.631,30.899
		c-0.876,16.033-1.394,33.107,3.152,48.743C138.097,138.598,131.225,139.641,125.718,139.677z M160.92,36.367
		c-0.202-0.747-0.408-1.494-0.621-2.239c0.013-0.105,0.036-0.208,0.04-0.314c0.354,0.414,0.727,0.805,1.071,1.229
		c0.377,0.462,0.731,0.936,1.093,1.406C161.997,36.303,161.452,36.279,160.92,36.367z M165.875,41.258
		c0.647,1.017,1.268,2.046,1.855,3.091c-0.137,0.017-0.271,0.048-0.405,0.081C166.851,43.369,166.369,42.31,165.875,41.258z"/>
	<path d="M91.328,47.996c-0.212-0.217-0.471-0.355-0.744-0.446c-0.33-0.901-1.145-1.643-2.447-1.753
		c-11.652-0.992-24.116-0.5-35.747,0.652c-1.022,0.101-1.64,0.7-1.873,1.41c-3.086,4.916-2.632,13.167-2.988,18.733
		c-0.464,7.255,0.026,14.766,1.968,21.788c0.405,1.463,2.228,1.777,3.298,1.118c0.156,0.068,0.313,0.135,0.488,0.157
		c11.432,1.427,23.367-0.653,34.854-0.889c0.484-0.01,0.895-0.128,1.245-0.312c0.908,0.299,2.053-0.212,2.209-1.518
		c0.921-7.742,1.849-15.559,2.204-23.348C94.005,58.958,94.86,51.614,91.328,47.996z M61.618,75.188
		c-0.779,0.105-1.558,0.209-2.338,0.312c-0.003-0.277-0.004-0.555-0.007-0.833c0.319,0.168,0.698,0.292,1.147,0.355
		C60.82,75.079,61.219,75.132,61.618,75.188z M60.268,51.209c-0.334,0.585-0.522,1.257-0.539,1.926
		c-0.308-0.009-0.616-0.017-0.923-0.029c-0.505-1.707-2.497-2.615-4.037-1.991c-0.007-0.111-0.001-0.226-0.01-0.336
		C56.58,50.943,58.42,51.083,60.268,51.209z"/>
	<path d="M134.289,127.715c-0.711-11.756,0.182-23.563-1.479-35.26c-0.009-0.058-0.03-0.106-0.042-0.162
		c1.287-0.776,1.744-2.643,0.184-3.535c-4.388-2.507-10.476-0.827-15.271-0.292c-7.514,0.838-14.833,1.787-22.394,0.981
		c-0.523-0.056-0.931,0.104-1.241,0.37c-0.441,0.085-0.846,0.333-1.067,0.76c-2.67,5.17-1.042,12.307-0.83,17.967
		c0.287,7.684,0.923,15.437,1.79,23.075c0.131,1.153,1.197,1.523,1.953,1.138c0.424,0.421,1.011,0.689,1.651,0.567
		c11.507-2.188,22.746-1.586,34.384-1.661c0.527-0.003,0.965-0.137,1.333-0.345c0.644-0.124,1.173-0.591,1.146-1.408
		C134.643,129.2,134.599,128.396,134.289,127.715z M98.454,94.101c-0.521,0.492-0.858,1.188-1.003,1.933
		c-0.045,0.005-0.09,0.009-0.136,0.014c-0.09-0.756-0.202-1.503-0.37-2.224C97.448,93.93,97.951,94.015,98.454,94.101z
		 M96.778,129.859c0.033-0.369,0.053-0.74,0.083-1.109c0.628,0.153,1.256,0.286,1.885,0.407
		C98.088,129.385,97.426,129.597,96.778,129.859z"/>
</g>
<g>
</g>
<g>
</g>
<g>
</g>
<g>
</g>
<g>
</g>
<g>
</g>
<g>
</g>
<g>
</g>
<g>
</g>
<g>
</g>
<g>
</g>
<g>
</g>
<g>
</g>
<g>
</g>
<g>
</g>
</svg>
