<?xml version="1.0" encoding="iso-8859-1"?>
<!-- Generator: Adobe Illustrator 16.0.0, SVG Export Plug-In . SVG Version: 6.00 Build 0)  -->
<!DOCTYPE svg PUBLIC "-//W3C//DTD SVG 1.1//EN" "http://www.w3.org/Graphics/SVG/1.1/DTD/svg11.dtd">
<svg version="1.1" id="Capa_1" xmlns="http://www.w3.org/2000/svg" xmlns:xlink="http://www.w3.org/1999/xlink" x="0px" y="0px"
	 width="187.912px" height="187.912px" viewBox="0 0 187.912 187.912" style="enable-background:new 0 0 187.912 187.912;"
	 xml:space="preserve">
<g>
	<path d="M187.676,91.704c-8.916-20.163-33.594-30.839-53.762-35.265c-22.888-5.023-47.31-3.298-69.943,2.16
		c-0.862,0.208-1.724,0.435-2.586,0.658c-3.064-5.774-6.299-11.448-9.87-16.882c-0.084-0.128-0.192-0.221-0.303-0.308
		c-0.231-0.453-0.615-0.822-1.198-0.943c-3.542-0.739-7.614,0.046-11.177,0.329c-4.133,0.328-8.431,0.579-12.443,1.685
		c-1.235,0.34-1.586,1.721-1.195,2.722c-0.072-0.091-0.135-0.189-0.207-0.279c-0.785-0.979-2.421,0.074-2.061,1.2
		c2.583,8.075,6.613,15.781,10.55,23.411c-8.672,4.924-16.446,11.255-22.468,19.455c-11.029,15.017-14.481,39.774-7.104,56.994
		c0.377,0.879,1.62,0.349,1.661-0.45c0.015-0.299,0.012-0.596,0.024-0.894c0.134,0.127,0.287,0.237,0.471,0.307
		c3.734,1.413,8.893-2.194,12.434-3.41c7.279-2.497,14.752-4.476,22.185-6.45c15.452-4.107,31.615-7.014,46.619-12.603
		c1.94-0.724,2.051-2.97,0.965-4.077c-2.604-12.202-9.549-24.462-14.974-35.712c-1.563-3.729-3.254-7.397-5.129-10.959
		c1.695-0.444,3.406-0.851,5.131-1.21c20.981-4.366,52.76-4.087,69.481,12.374c-9.096,2.026-18.319,5.91-26.342,10.606
		c-2.903-5.64-7.176-10.69-10.404-16.041c-0.23-0.384-0.654-0.469-1.021-0.367c-0.229-0.36-0.576-0.662-0.985-0.831
		c-1.336-0.551-3.086-0.008-4.49,0.103c-2.065,0.164-4.142,0.211-6.212,0.238c-2.854,0.036-6.164-0.096-8.539,0.605
		c-0.28,0.083-0.461,0.327-0.508,0.596c-0.094,0.041-0.187,0.072-0.281,0.116c-0.152,0.071-0.255,0.196-0.37,0.306
		c-0.028-0.038-0.054-0.078-0.081-0.116c-0.95-1.301-3.089-0.142-2.206,1.29c2.724,4.416,5.081,9.039,7.351,13.704
		c-0.028,0.389,0.035,0.788,0.229,1.175c0.817,1.63,1.709,3.203,2.629,4.759c0.045,0.094,0.091,0.189,0.136,0.284
		c2.509,5.245,4.809,13.72,9.221,17.601c0.309,0.271,0.725,0.384,1.12,0.354c0.187,0.662,0.708,1.219,1.548,1.194
		c27.953-0.822,54.071-16.683,80.858-23.312c0.325-0.08,0.591-0.212,0.806-0.379C186.834,95.494,188.55,93.68,187.676,91.704z
		 M86.452,83.004c-0.227-0.334-0.438-0.677-0.666-1.009c0.057-0.022,0.116-0.024,0.173-0.051c0.454-0.211,0.966-0.383,1.49-0.519
		C86.946,81.808,86.602,82.372,86.452,83.004z M20.278,136.367c0.826-0.396,1.665-0.767,2.512-1.127
		c0.871-0.139,1.738-0.297,2.599-0.477C23.681,135.279,21.977,135.814,20.278,136.367z M42.368,130.064
		c-1.01,0.264-2.019,0.536-3.029,0.801c-1.018,0.266-2.034,0.541-3.05,0.812c0.973-0.325,1.944-0.653,2.915-0.985
		c1.084-0.301,2.17-0.59,3.253-0.897C42.423,129.884,42.39,129.972,42.368,130.064z M43.875,112.402
		c-5.392,2.028-10.801,3.622-16.415,4.743c-0.421-8.122,1.308-15.022,4.58-20.856c2.029-2.313,3.889-4.721,5.383-7.321
		c1.098-1.173,2.262-2.295,3.501-3.353c3.507,7.901,6.939,16.109,11.377,23.379C49.443,110.049,46.64,111.363,43.875,112.402z
		 M69.374,122.223c0.244,0.179,0.508,0.334,0.758,0.506c-0.967,0.257-1.937,0.511-2.904,0.767c-0.004-0.086-0.009-0.172-0.013-0.26
		C68.083,123.287,68.94,122.983,69.374,122.223z"/>
</g>
<g>
</g>
<g>
</g>
<g>
</g>
<g>
</g>
<g>
</g>
<g>
</g>
<g>
</g>
<g>
</g>
<g>
</g>
<g>
</g>
<g>
</g>
<g>
</g>
<g>
</g>
<g>
</g>
<g>
</g>
</svg>
