<?xml version="1.0" encoding="iso-8859-1"?>
<!-- Generator: Adobe Illustrator 16.0.0, SVG Export Plug-In . SVG Version: 6.00 Build 0)  -->
<!DOCTYPE svg PUBLIC "-//W3C//DTD SVG 1.1//EN" "http://www.w3.org/Graphics/SVG/1.1/DTD/svg11.dtd">
<svg version="1.1" id="Capa_1" xmlns="http://www.w3.org/2000/svg" xmlns:xlink="http://www.w3.org/1999/xlink" x="0px" y="0px"
	 width="189.308px" height="189.309px" viewBox="0 0 189.308 189.309" style="enable-background:new 0 0 189.308 189.309;"
	 xml:space="preserve">
<g>
	<path d="M139.818,115.245c0.842-12.452-7.001-20.545-17.59-26.688c0.772-13.389,1.365-26.859,1.595-40.324
		c2.222,0.544,4.463,0.993,6.747,1.23c1.743,0.181,2.853-1.215,3.078-2.738c0.631-0.402,1.112-1.071,1.156-2.085
		c0.3-7.034-0.646-14.03-0.579-21.062c0.017-1.721-1.147-2.968-2.683-3.523c-2.614-0.947-5.251-1.792-7.935-2.413
		c-0.159-4.512-0.373-9.016-0.667-13.505c-0.132-2.018-1.589-3.714-3.712-3.712c-3.779,0.004-7.561,0.003-11.341,0.003
		c-2.225,0-3.439,1.705-3.709,3.709c-0.508,3.787-0.935,7.593-1.298,11.413c-3.301-0.003-6.59,0.267-9.826,0.822
		c-0.097-3.536-0.244-7.075-0.446-10.615c-0.116-2.03-1.227-3.282-3.056-4.016c-3.22-1.289-5.785-1.679-9.207-1.739
		c-1.987-0.036-3.3,1.232-3.808,2.854c-1.012-0.753-2.897-0.24-2.739,1.279c0.648,6.214,0.982,12.415,1.088,18.608
		c-8.741,4.812-16.27,11.876-21.428,20.83c-11.5,19.965-3.806,41.77,14.819,52.495c-1.772,11.801-3.607,23.602-5.109,35.413
		c-2.49-1.267-4.847-2.604-7.012-3.942c-2.027-1.253-4.289,0.048-5.046,2.054c-2.238,5.929-2.654,10.895-1.644,16.502
		c-0.994,1.475-1.171,3.503,0.386,5.183c3.221,3.479,6.788,6.197,10.586,8.271c-0.299,4.896-0.494,9.796-0.542,14.702
		c-0.019,1.892,1.311,3.591,3.118,4.096c4.221,1.178,8.101,1.731,12.47,1.781c2.48,0.027,4.047-1.969,4.257-4.258
		c0.338-3.685,0.702-7.369,1.083-11.056c5.682,0.153,11.463-0.644,17.118-2.11c-0.057,1.619-0.104,3.238-0.163,4.857
		c-0.005,0.107-0.011,0.229-0.016,0.351c-1.018,5.571-2.074,11.136-3.176,16.691c-0.464,2.336,1.034,4.707,3.581,4.7
		c5.134-0.016,10.737,0.256,15.609-1.603c1.646-0.628,2.819-1.879,2.841-3.729c0.109-9.654,0.134-19.307,0.147-28.959
		c0.451-0.245,0.905-0.485,1.342-0.745C131.048,146.558,146.021,129.885,139.818,115.245z M127.115,26.354
		c0.062,0.662,0.155,1.32,0.234,1.98c-0.969-0.853-2.173-1.716-3.542-2.64c-0.002-0.086-0.005-0.172-0.006-0.259
		C124.907,25.726,126.009,26.022,127.115,26.354z M71.66,171.372c-0.074-0.008-0.149-0.016-0.223-0.023
		c0.01-0.115,0.036-0.218,0.037-0.339c0.025-2.433,0.101-4.859,0.199-7.284c0.239,0.052,0.481,0.091,0.721,0.14
		C72.137,166.368,71.898,168.87,71.66,171.372z M74.992,136.411c-0.312-0.1-0.625-0.199-0.936-0.306
		c0.17-1.361,0.364-2.719,0.545-4.079c0.11,0.335,0.265,0.661,0.438,0.983C75.01,134.144,74.988,135.278,74.992,136.411z
		 M79.165,105.091c-0.197,0.087-0.385,0.191-0.564,0.315c0.269-1.667,0.536-3.335,0.806-5.002c0.098,0.022,0.196,0.045,0.294,0.067
		C79.529,102.012,79.341,103.551,79.165,105.091z M92.869,43.615c2.885-0.426,5.798-0.534,8.355-0.446
		c-0.399,11.812-0.532,23.651-0.737,35.414c-3.177-1.372-6.457-2.905-9.515-4.74C91.842,63.776,92.504,53.701,92.869,43.615z
		 M97.876,138.183c-4.472,1.127-9.265,1.116-14.086,0.365c1.448-12.138,2.953-24.279,4.33-36.43c1.055,0.188,2.126,0.377,3.224,0.57
		c0.327,1.167,1.15,2.134,2.564,2.354c1.964,0.306,3.933,0.696,5.838,1.221c-0.342,10.554-0.673,21.107-0.992,31.662
		C98.46,138.014,98.163,138.11,97.876,138.183z"/>
</g>
<g>
</g>
<g>
</g>
<g>
</g>
<g>
</g>
<g>
</g>
<g>
</g>
<g>
</g>
<g>
</g>
<g>
</g>
<g>
</g>
<g>
</g>
<g>
</g>
<g>
</g>
<g>
</g>
<g>
</g>
</svg>
