<?xml version="1.0" encoding="iso-8859-1"?>
<!-- Generator: Adobe Illustrator 16.0.0, SVG Export Plug-In . SVG Version: 6.00 Build 0)  -->
<!DOCTYPE svg PUBLIC "-//W3C//DTD SVG 1.1//EN" "http://www.w3.org/Graphics/SVG/1.1/DTD/svg11.dtd">
<svg version="1.1" id="Capa_1" xmlns="http://www.w3.org/2000/svg" xmlns:xlink="http://www.w3.org/1999/xlink" x="0px" y="0px"
	 width="185.081px" height="185.081px" viewBox="0 0 185.081 185.081" style="enable-background:new 0 0 185.081 185.081;"
	 xml:space="preserve">
<g>
	<path d="M157.238,82.595c-2.614-21-6.465-44.515-28.869-52.996c-26.412-9.998-51.704-1.465-65.146,23.137
		c-22.369-6.443-38.194,18.03-26.779,38.263c-26.152-4.456-47.034,29.794-30.633,52.358c15.391,21.173,52.758,15.576,75.101,15.482
		c32.177-0.134,77.441,6.056,97.911-25.258C193.254,111.513,181.346,86.743,157.238,82.595z M17.857,104.309
		c3.97-3.883,9.156-6.682,15.32-7.514C27.523,98.387,22.223,100.855,17.857,104.309z M48.178,63.299
		c-0.397,0.05-0.791,0.115-1.196,0.135c-0.336,0.048-0.616,0.169-0.899,0.285c1.26-1.297,2.755-2.321,4.454-3
		C49.705,61.527,48.909,62.384,48.178,63.299z M135.582,105.973c0.279-0.936,0.541-1.874,0.793-2.815
		c0.252,0.741,0.565,1.444,0.932,2.114c-0.402,0.427-0.805,0.854-1.172,1.3C135.967,106.36,135.788,106.155,135.582,105.973z
		 M66.678,118.979c0.718-0.201,1.371-0.405,1.904-0.561c4.677-1.359,9.52-2.825,13.795-5.237c1.561,0.728,3.951,0.004,4.204-1.843
		c0.868-6.334-1.44-12.955-2.929-19.094c-1.592-6.561-3.086-13.229-4.959-19.745c1.187,0.482,2.591,0.593,4.211,0.716
		c9.75,0.743,19.772-0.468,29.524-1.06c-0.927,6.313-1.831,12.616-3.185,18.883c-1.006,4.658-2.081,9.269-3.346,13.862
		c-0.752,2.732-2.497,5.633-2.114,8.502c0.062,0.456,0.206,0.863,0.398,1.224c-1.271,1.864,0.221,4.887,3.088,4.399
		c3.155-0.537,6.319-1.056,9.496-1.459c-5.604,9.78-13.348,17.666-20.795,25.988C85.685,136,75.278,128.412,66.678,118.979z
		 M77.921,109.336c0.656-0.706,1.086-1.603,1.265-2.536c0.099-0.185,0.226-0.337,0.305-0.543c0.191,0.847,0.355,1.705,0.597,2.525
		C79.375,108.989,78.646,109.159,77.921,109.336z M103.315,147.505c-0.376,1.198-0.204,2.437,0.392,3.513
		c-1.178-0.035-2.353-0.072-3.508-0.113C101.229,149.763,102.271,148.631,103.315,147.505z"/>
</g>
<g>
</g>
<g>
</g>
<g>
</g>
<g>
</g>
<g>
</g>
<g>
</g>
<g>
</g>
<g>
</g>
<g>
</g>
<g>
</g>
<g>
</g>
<g>
</g>
<g>
</g>
<g>
</g>
<g>
</g>
</svg>
