<?xml version="1.0" encoding="iso-8859-1"?>
<!-- Generator: Adobe Illustrator 16.0.0, SVG Export Plug-In . SVG Version: 6.00 Build 0)  -->
<!DOCTYPE svg PUBLIC "-//W3C//DTD SVG 1.1//EN" "http://www.w3.org/Graphics/SVG/1.1/DTD/svg11.dtd">
<svg version="1.1" id="Capa_1" xmlns="http://www.w3.org/2000/svg" xmlns:xlink="http://www.w3.org/1999/xlink" x="0px" y="0px"
	 width="188.354px" height="188.354px" viewBox="0 0 188.354 188.354" style="enable-background:new 0 0 188.354 188.354;"
	 xml:space="preserve">
<g>
	<path d="M187.926,40.778c-0.967-1.633-2.396-1.775-3.757-1.229c-2.747-3.051-6.638-4.961-9.985-7.335
		c-4.505-3.195-8.864-6.604-13.267-9.937c-9.065-6.862-18.166-13.304-28.924-17.199c-1.815-0.658-3.121,1.234-2.812,2.782
		c-3.538,1.374-7.104,5.022-9.406,6.933c-7.487,6.217-14.128,13.481-22.285,18.863c-1.504,0.992-1.246,3.307-0.042,4.164
		c-0.308,0.89,0.452,1.993,1.587,1.739c-1.173,0.264,4.723,3.907,5.779,4.55c5.18,3.151,10.287,6.438,15.391,9.712
		c9.05,5.806,18.08,12.385,27.678,17.266c0.93,0.473,1.816,0.474,2.564,0.189c0.271,0.096,0.576,0.097,0.866,0.013
		c0.262,0.219,0.672,0.308,1.317,0.131c1.149-0.316,2.259-1.087,3.299-1.792c0.886-0.113,1.72-0.565,2.116-1.378
		c3.134-1.974,6.255-4.036,9.171-6.3c6.59-5.116,16.552-10.599,20.71-17.975C188.481,42.988,188.509,41.763,187.926,40.778z"/>
	<path d="M64.064,61.527c9.446-6.793,17.435-15.333,26.7-22.321c0.311-0.235,0.545-0.504,0.74-0.788
		c1.765,0.094,3.761-1.541,2.976-3.464c-2.344-5.736-10.733-9.574-15.605-12.945c-7.112-4.923-14.157-9.874-20.762-15.468
		c-1.216-1.03-2.887-0.656-3.714,0.342c-9.677,2.332-20.143,10.413-28.254,15.872C17.756,28.4,10.821,35.609,2.303,41.115
		c-1.337,0.864-0.903,2.817,0.573,3.102c3.701,5.575,9.172,10.135,14.207,14.448c5.957,5.102,12.145,10.19,18.764,14.416
		c0.548,0.35,1.08,0.512,1.585,0.552C24.78,81.941,13.753,92.398,1.075,100.728c-1.634,1.074-1.261,3.643,0.158,4.393
		c0.115,0.493,5.07,5.176,6.037,5.856c6.005,4.227,12.419,7.938,18.631,11.851c6.254,3.938,12.544,7.829,18.923,11.561
		c1.978,1.157,4.671,3.224,7.273,3.666c0.406,0.866,1.332,1.502,2.38,1.17c7.334-2.319,12.831-8.401,17.996-13.797
		c2.765-2.89,5.476-5.808,8.405-8.534c3.092-2.878,7.069-4.345,10.057-7.19c0.295-0.28,0.464-0.603,0.576-0.934
		c1.683-0.385,2.56-2.916,1.188-4.274C86.097,97.961,76.55,93.6,68.607,88.876c-8.627-5.131-17.503-10.157-26.718-14.2
		c-0.455-0.951-1.286-1.688-2.321-1.769c0.51-0.449,0.878-1.07,1.083-1.748C49.258,71.788,57.31,66.384,64.064,61.527z
		 M71.426,40.428c-0.657,0.688-1.394,1.347-2.204,1.977c-0.007-0.211-0.039-0.423-0.092-0.637
		C69.883,41.28,70.646,40.831,71.426,40.428z"/>
	<path d="M187.22,101.863c-7.199-5.962-13.866-12.556-21.013-18.586c-3.258-2.749-7.915-7.576-12.718-8.734
		c-0.356-0.964-1.24-1.765-2.314-1.728c-7.814,0.275-15.355,8.08-21.098,12.778c-9.222,7.547-19.793,17.467-32.259,18.595
		c-1.736,0.157-2.324,1.769-1.795,2.939c-0.371,0.824-0.232,1.901,0.749,2.644c6.809,5.15,13.673,10.203,20.367,15.506
		c5.276,4.182,9.81,9.85,15.471,13.415c0.979,0.617,1.979,0.479,2.735-0.049c8.983,0.766,17.865-6.134,24.698-11.041
		c4.881-3.504,9.56-7.302,14.194-11.12c3.241-2.669,7.886-5.344,10.109-8.938c0.081-0.132,0.112-0.268,0.166-0.4
		c0.675,0.138,1.378,0.058,2.068-0.356c0.775-0.464,1.188-1.007,1.441-1.874C188.315,103.921,188.05,102.549,187.22,101.863z
		 M149.176,125.258c0.824-0.632,1.663-1.243,2.517-1.841c1.332-0.793,2.668-1.577,3.992-2.386
		C153.578,122.553,151.41,123.974,149.176,125.258z"/>
	<g>
		<path d="M37.749,141.936C37.727,142.018,37.731,142.004,37.749,141.936L37.749,141.936z"/>
		<path d="M37.968,140.824c0.007-0.034,0.017-0.069,0.022-0.105C38.015,140.593,38.019,140.573,37.968,140.824z"/>
		<path d="M151.769,143.265c-0.028-0.428-0.152-0.788-0.33-1.094c1.54-1.957-1.009-5.197-3.237-3.629
			c-5.09,3.58-10.295,6.729-15.677,9.758c-9.734-10.984-21.904-19.576-33.73-28.223c0.734-2.068-1.86-4.671-4.093-3.298
			c-0.244,0.15-0.483,0.312-0.726,0.464c-0.29,0.08-0.541,0.261-0.76,0.486c-6.809,4.371-13.135,9.635-19.587,14.49
			c-4.862,3.658-13.716,8.146-16.862,13.809c-0.422-0.189-0.779-0.354-1.033-0.481c-3.125-1.588-6.227-3.291-9.479-4.612
			c-2.039-0.828-3.722-0.616-5.177-0.734c-0.023-0.033-0.046-0.068-0.06-0.096c-0.077-0.152-0.187-0.283-0.268-0.433
			c-0.002,0.004-0.004,0.007-0.007,0.012c-0.507-0.71-1.733-0.985-2.352-0.012c-0.143,0.225-0.235,0.479-0.333,0.725
			c-0.039,0.097-0.052,0.213-0.069,0.322c-0.05,0.257-0.198,0.999-0.197,0.993c-0.005,0.062-0.027,0.156-0.044,0.225
			c0.01-0.036,0.018-0.069,0.043-0.158c-0.1,0.358-0.124,0.709-0.114,1.076c0.019,0.642,0.076,1.264,0.182,1.899
			c0.203,1.22,0.354,2.77,0.99,3.933c0.038,0.255,0.127,0.507,0.328,0.726c6.844,7.454,15.065,12.5,23.848,17.396
			c9.664,5.387,19.321,11.645,29.3,16.359c0.981,0.463,2.009,0.216,2.714-0.368c3.24,1.181,6.432-2.574,9.034-4.172
			c5.19-3.187,10.722-5.773,16.19-8.436c10.714-5.216,21.526-10.383,30.569-18.273c0.633-0.139,1.177-0.551,1.274-1.274
			C152.447,148.144,151.936,145.758,151.769,143.265z M111.323,137.315c-1.271-1.206-2.542-2.415-3.811-3.625
			c1.417,1.147,2.839,2.288,4.264,3.426C111.62,137.168,111.471,137.234,111.323,137.315z"/>
	</g>
</g>
<g>
</g>
<g>
</g>
<g>
</g>
<g>
</g>
<g>
</g>
<g>
</g>
<g>
</g>
<g>
</g>
<g>
</g>
<g>
</g>
<g>
</g>
<g>
</g>
<g>
</g>
<g>
</g>
<g>
</g>
</svg>
