<?xml version="1.0" encoding="iso-8859-1"?>
<!-- Generator: Adobe Illustrator 16.0.0, SVG Export Plug-In . SVG Version: 6.00 Build 0)  -->
<!DOCTYPE svg PUBLIC "-//W3C//DTD SVG 1.1//EN" "http://www.w3.org/Graphics/SVG/1.1/DTD/svg11.dtd">
<svg version="1.1" id="Capa_1" xmlns="http://www.w3.org/2000/svg" xmlns:xlink="http://www.w3.org/1999/xlink" x="0px" y="0px"
	 width="187.288px" height="187.289px" viewBox="0 0 187.288 187.289" style="enable-background:new 0 0 187.288 187.289;"
	 xml:space="preserve">
<g>
	<path d="M139.053,33.318c-3.497-7.674-13.218-12.111-22.79-14.611c0.016-1.229,0.015-2.456,0.074-3.688
		c0.169-3.475,0.587-6.94,0.65-10.419c0.046-2.492-2.121-4.596-4.586-4.586c-10.488,0.044-21.009-0.151-31.49,0.202
		c-2.193,0.074-4.641,1.946-4.383,4.383c0.48,4.545-0.268,8.983,0.788,13.316c-9.759,2.521-18.864,7.339-24.647,14.971
		c-0.624,0.824-0.565,1.737-0.135,2.484c-2.08,0.248-3.998,1.714-4.035,4.423c-0.337,24.926-3.564,49.773-4.18,74.707
		c-0.316,12.774-0.487,25.825,1.43,38.493c0.653,4.315,1.264,9.203,3.384,13.109c1.128,2.08,2.144,2.898,3.252,3.485
		c-1.315,1.591-1.636,3.927,0.311,5.8c1.987,1.912,5.195,4.75,8.734,6.962c0.396,0.684,1.022,1.248,1.898,1.532
		c0.522,0.169,1.126,0.311,1.761,0.437c1.724,0.745,3.458,1.239,5.115,1.293c10.823,2.949,23.57,1.439,33.982-0.202
		c8.298-1.31,27.651-3.32,34.042-11.628c0.559-0.354,1.008-0.89,1.182-1.662c0.042-0.188,0.075-0.376,0.116-0.565
		c0.161-0.374,0.354-0.732,0.464-1.128c0.154-0.542,0.162-1.055,0.084-1.535c8.404-42.985-7.503-86.903,2.931-129.662
		C143.789,36.022,141.555,33.812,139.053,33.318z M109.712,35.604c-0.074,0.379-0.091,0.773-0.072,1.176
		c-1.396-0.14-2.792-0.279-4.189-0.405C106.872,36.141,108.294,35.882,109.712,35.604z M84.413,9.062
		c0.254,0.006,0.508,0.004,0.762,0.009c-1.842,2.119-1.349,6.02,1.96,7.106c-1.221,0.13-2.445,0.276-3.668,0.471
		C83.287,14.166,83.832,11.566,84.413,9.062z M71.548,176.033c-0.398,0.168-0.772,0.38-1.123,0.631
		c-0.673-0.055-1.347-0.085-2.019-0.149c-0.172-0.096-0.328-0.154-0.507-0.261c-1.236-0.744-2.39-1.616-3.517-2.527
		c0.72-0.033,1.426-0.223,2.061-0.53c0.044,0.604,0.348,1.312,0.962,2.14c0.401,0.539,1.149,0.259,1.13-0.375
		c0.166,0.091,0.369,0.18,0.654,0.259c0.923,0.254,1.911,0.395,2.908,0.512C71.904,175.823,71.712,175.913,71.548,176.033z
		 M117.154,67.582c-0.036,8.375-0.276,16.744-0.555,25.112c-1.248,20.12-3.026,40.216-3.396,60.354
		c-0.527,0.153-1.048,0.426-1.521,0.875c-10.54,9.993-23.58,13.697-36.671,5.55c-1.053-0.655-2.15-0.502-3.002,0.058
		c-3.853-31.547-6.967-62.597-3.516-94.305c0.351,0.106,0.701,0.21,1.053,0.315c15.159,6.509,31.574,10.684,46.775,1.874
		c0.366-0.212,0.661-0.458,0.916-0.719C117.192,66.976,117.155,67.265,117.154,67.582z M117.438,32.431
		c-0.229-0.235-0.47-0.434-0.724-0.594c0.146-0.777,0.064-1.609-0.222-2.396c0.288,0.099,0.583,0.177,0.871,0.278
		c0.622,0.219,1.2,0.485,1.777,0.753C118.42,30.961,117.823,31.633,117.438,32.431z"/>
</g>
<g>
</g>
<g>
</g>
<g>
</g>
<g>
</g>
<g>
</g>
<g>
</g>
<g>
</g>
<g>
</g>
<g>
</g>
<g>
</g>
<g>
</g>
<g>
</g>
<g>
</g>
<g>
</g>
<g>
</g>
</svg>
