<?xml version="1.0" encoding="iso-8859-1"?>
<!-- Generator: Adobe Illustrator 16.0.0, SVG Export Plug-In . SVG Version: 6.00 Build 0)  -->
<!DOCTYPE svg PUBLIC "-//W3C//DTD SVG 1.1//EN" "http://www.w3.org/Graphics/SVG/1.1/DTD/svg11.dtd">
<svg version="1.1" id="Capa_1" xmlns="http://www.w3.org/2000/svg" xmlns:xlink="http://www.w3.org/1999/xlink" x="0px" y="0px"
	 width="190.542px" height="190.542px" viewBox="0 0 190.542 190.542" style="enable-background:new 0 0 190.542 190.542;"
	 xml:space="preserve">
<g>
	<path d="M171.252,104.323c-0.017-2.804-2.15-4.409-4.715-4.717c-1.479-0.177-2.97-0.323-4.452-0.494
		c0.988-0.957,1.37-2.362,0.242-3.9c-9.937-13.544-21.356-27.19-33.655-39.846c1.059-0.052,2.117-0.085,3.178-0.157
		c4.558-0.307,4.864-6.842,0.892-7.532c0.601-0.974,0.789-2.248,0.226-3.497C125.543,27.74,107.659,12.94,94.458,1.135
		c-1.523-1.361-4.065-1.658-5.547,0c-10.438,11.681-28.935,26.987-33.55,43.038c-1.421,1.788-2.65,3.63-3.566,5.23
		c-0.289,0.506-0.449,0.998-0.524,1.471c-0.459,0.712-0.911,1.433-1.377,2.136c-1.347,2.035-0.088,5.416,2.389,5.871
		c0.953,0.175,1.913,0.266,2.867,0.417c-2.67,2.582-5.363,5.138-7.969,7.79c-7.057,7.183-22.932,20.917-22.208,32.463
		c-1.15,0.344-2.122,1.312-2.248,2.944c-1.768,22.761-3.979,45.728-5.209,68.506c-0.362,6.711,1.502,14.293,8.459,16.857
		c15.335,5.651,36.2,0.823,51.815-0.478c30.304-2.522,60.229-5.276,90.573-1.676c2.543,0.301,4.72-2.369,4.706-4.706
		C172.917,155.428,171.415,129.893,171.252,104.323z M49.343,76.525c5.198-5.529,10.67-10.806,16.214-16.012
		c1.482,0.115,2.959,0.275,4.448,0.348c0.807,0.04,1.637,0.094,2.48,0.152c-0.423,5.882-0.265,11.745,0.169,17.748
		c0.112,1.54,1.174,2.338,2.307,2.461c0.521,0.482,1.201,0.828,2.119,0.832c12.157,0.052,24.373-0.236,36.513,0.405
		c0.438,0.023,0.793-0.086,1.15-0.188c0.972,0.323,2.252-0.069,2.439-1.197c1.277-7.725,1.569-15.301,1.639-23.04
		c1.436,1.539,2.863,3.084,4.285,4.627c10.621,11.521,20.015,25.704,32.184,35.694c-40.309-4.365-81.366-6.177-121.72-2.361
		C39.347,90.134,44.292,81.898,49.343,76.525z M138.64,107.355h-0.123c-2.424-0.593-4.85-1.178-7.296-1.686
		c2.421,0.178,4.841,0.358,7.261,0.56C138.517,106.614,138.595,106.976,138.64,107.355z M79.116,115.09
		c-0.337,0.507-0.514,1.016-0.589,1.517c-6.095,3.854-11.272,10.32-15.197,15.064C53.255,143.846,44.919,158,37.899,172.346
		c-0.726,0.218-1.452,0.436-2.185,0.653c-3.25,0.967-3.822,4.101-2.64,6.355c-1.728-0.608-3.058-1.541-4.011-2.899
		C40.53,152.05,57.107,110.425,85.6,105.75C83.326,108.781,81.211,111.938,79.116,115.09z M124.532,174.8
		c0.169-0.213,0.319-0.426,0.432-0.668c0.141-0.056,0.257-0.132,0.383-0.2c2.339,0.2,4.678,0.438,7.017,0.71
		C129.751,174.673,127.142,174.719,124.532,174.8z M155.007,175.141c0.338-0.639,0.44-1.42,0.118-2.323
		c-4.219-11.854-17.314-23.52-25.665-32.441c-9.334-9.975-20.669-21.127-34.051-25.586c2.194-2.403,4.265-4.96,6.288-7.612
		c25.451,8.72,46.208,45.594,60.536,63.521c0.384,0.48,0.809,0.776,1.247,0.967c0.023,1.381,0.068,2.762,0.086,4.143
		C160.713,175.532,157.86,175.32,155.007,175.141z"/>
</g>
<g>
</g>
<g>
</g>
<g>
</g>
<g>
</g>
<g>
</g>
<g>
</g>
<g>
</g>
<g>
</g>
<g>
</g>
<g>
</g>
<g>
</g>
<g>
</g>
<g>
</g>
<g>
</g>
<g>
</g>
</svg>
