<?xml version="1.0" encoding="iso-8859-1"?>
<!-- Generator: Adobe Illustrator 16.0.0, SVG Export Plug-In . SVG Version: 6.00 Build 0)  -->
<!DOCTYPE svg PUBLIC "-//W3C//DTD SVG 1.1//EN" "http://www.w3.org/Graphics/SVG/1.1/DTD/svg11.dtd">
<svg version="1.1" id="Capa_1" xmlns="http://www.w3.org/2000/svg" xmlns:xlink="http://www.w3.org/1999/xlink" x="0px" y="0px"
	 width="190.138px" height="190.138px" viewBox="0 0 190.138 190.138" style="enable-background:new 0 0 190.138 190.138;"
	 xml:space="preserve">
<g>
	<path d="M167.743,81.454c-1.821-13.081-12.202-22.639-22.297-30.263c6.7-6.492,13.603-12.76,19.744-19.812
		c5.248-6.024-3.521-14.868-8.803-8.803c-6.453,7.408-14.035,14.094-19.271,22.459c-6.728-4.929-13.254-9.723-19.479-15.059
		c-0.215-0.562-0.546-1.057-0.922-1.516c2.98-1.975,5.715-4.454,8.002-6.439c2.88-2.501,5.636-5.144,8.437-7.731
		c2.323-2.145,4.942-3.772,5.947-6.916c1.163-3.641-1.949-7.365-5.617-7.374c-6.409-0.014-13.121,9.32-17.514,13.274
		c-2.793,2.515-5.685,4.701-8.781,6.789c-0.229-0.243-0.466-0.468-0.694-0.715c-6.456-6.984-15.433-16.07-25.786-14.093
		c-10.729,2.049-7.315,13.372-2.512,19.854C66.893,31.117,54.64,40.06,53.143,53.7c-0.974,8.877,2.023,16.491,6.806,23.213
		c-7.423,4.486-14.165,10.552-19.368,16.747c-3.859,4.596-6.387,11.307-5.629,17.275c-16.948,18.77-19.092,55.302,7.611,64.181
		c26.59,8.841,85.195-37.124,89.013,9.61c0.581,7.117,11.046,7.312,11.205,0c0.768-35.258-29.411-35.433-55.789-28.174
		c-11.709,3.221-31.713,13.204-43.715,7.494c-17.189-8.178-12.42-28.494-2.806-43.707c0.434,0.313,0.868,0.627,1.359,0.908
		c9.178,5.251,20.794-5.102,27.075-10.632c2.551-2.247,8.389-6.871,12.612-11.737c7.177,6.176,15.312,11.51,24.105,11.479
		c14.569-0.053,27.787-16.021,36.738-26.765c7.02,4.341,13.592,5.661,21.899,3.997C167.171,87.005,168.095,83.985,167.743,81.454z
		 M63.414,58.038c-0.311-4.338,1.39-8.482,4.094-12.287C65.349,49.619,63.94,53.753,63.414,58.038z"/>
</g>
<g>
</g>
<g>
</g>
<g>
</g>
<g>
</g>
<g>
</g>
<g>
</g>
<g>
</g>
<g>
</g>
<g>
</g>
<g>
</g>
<g>
</g>
<g>
</g>
<g>
</g>
<g>
</g>
<g>
</g>
</svg>
