<?xml version="1.0" encoding="iso-8859-1"?>
<!-- Generator: Adobe Illustrator 16.0.0, SVG Export Plug-In . SVG Version: 6.00 Build 0)  -->
<!DOCTYPE svg PUBLIC "-//W3C//DTD SVG 1.1//EN" "http://www.w3.org/Graphics/SVG/1.1/DTD/svg11.dtd">
<svg version="1.1" id="Capa_1" xmlns="http://www.w3.org/2000/svg" xmlns:xlink="http://www.w3.org/1999/xlink" x="0px" y="0px"
	 width="191.599px" height="191.599px" viewBox="0 0 191.599 191.599" style="enable-background:new 0 0 191.599 191.599;"
	 xml:space="preserve">
<g>
	<path d="M191.173,95.728c-10.875-23.49-36.27-38.644-59.041-48.553c-20.274-8.822-46.866-15.962-68.707-8.652
		c-18.436,6.17-35.766,20.798-50.299,33.282c-1.869,1.606-18.677,17.846-11.237,21.2c-1.241,2.687,3.348,11.49,4.27,12.677
		c12.012,15.476,30.254,28.211,46.386,39.086c20.857,14.061,49.697,13.491,72.975,6.658c22.886-6.718,52.057-26.304,61.878-48.839
		c0.107-0.244,0.13-0.484,0.185-0.728C190.14,101.665,192.615,98.847,191.173,95.728z M164.71,75.97
		c-2.158-1.588-4.388-3.112-6.648-4.603c0.023-0.308,0.001-0.606-0.064-0.906C160.313,72.245,162.576,74.067,164.71,75.97z
		 M84.12,137.557c-17.619-7.469-23.768-30.686-24.153-47.923c-0.322-14.396,4.006-26.552,14.029-34.029
		c0.648,0.31,1.384,0.493,2.253,0.347c26.836-4.495,53.913,11.86,60.739,38.575C143.867,121.455,108.802,148.018,84.12,137.557z
		 M43.711,123.674c-13.136-8.631-22.664-23.051-35.987-30.81c15.248-19.119,32.953-31.879,54.402-36.829
		c-6.907,9.268-9.972,22.962-10.095,33.598c-0.184,15.909,5.081,34.031,16.274,45.882C59.672,132.717,51.426,128.742,43.711,123.674
		z M69.65,144.574c7.177,1.853,14.553,3.008,21.938,3.725C83.958,148.13,76.476,146.961,69.65,144.574z M153.485,122.943
		c-8.132,7.462-17.527,11.991-27.561,14.56c12.71-9.999,21.177-25.658,19.505-41.186c-1.411-13.112-8.361-24.721-18.151-33.334
		c19.312,8.106,36.894,20.902,50.878,35.824C168.755,104.071,161.283,115.789,153.485,122.943z"/>
	<path d="M78.763,86.87c-2.341,3.23-2.96,6.956-2.421,10.662c-1.99,9.238,4.181,18.508,12.854,21.679
		c14.225,5.2,29.084-12.196,28.486-25.353C116.892,76.443,87.254,75.158,78.763,86.87z M95.647,87.466
		c-0.975,0.287-1.934,0.646-2.874,1.043c-0.65-0.085-1.316,0.016-1.846,0.396c-0.327,0.235-0.678,0.373-1.028,0.522
		c-0.108,0.024-0.204,0.02-0.314,0.05c-0.408,0.109-0.814,0.274-1.211,0.46c0.746-0.681,1.542-1.316,2.408-1.867
		C92.314,87.699,93.974,87.512,95.647,87.466z"/>
</g>
<g>
</g>
<g>
</g>
<g>
</g>
<g>
</g>
<g>
</g>
<g>
</g>
<g>
</g>
<g>
</g>
<g>
</g>
<g>
</g>
<g>
</g>
<g>
</g>
<g>
</g>
<g>
</g>
<g>
</g>
</svg>
