<?xml version="1.0" encoding="iso-8859-1"?>
<!-- Generator: Adobe Illustrator 16.0.0, SVG Export Plug-In . SVG Version: 6.00 Build 0)  -->
<!DOCTYPE svg PUBLIC "-//W3C//DTD SVG 1.1//EN" "http://www.w3.org/Graphics/SVG/1.1/DTD/svg11.dtd">
<svg version="1.1" id="Capa_1" xmlns="http://www.w3.org/2000/svg" xmlns:xlink="http://www.w3.org/1999/xlink" x="0px" y="0px"
	 width="194.113px" height="194.112px" viewBox="0 0 194.113 194.112" style="enable-background:new 0 0 194.113 194.112;"
	 xml:space="preserve">
<g>
	<path d="M142.457,68.25c-7.483-0.093-15.056-0.571-22.66-1.101c4.503-10.099,11.828-18.371,23.934-23.005
		c3.75-1.436,4.722-6.757,1.231-8.699c0.125-3.184,0.853-6.521,1.305-9.544c0.529-3.544,1.688-7.861,1.206-11.655
		c0.62-2.217,0.055-4.794-2.286-6.177C103.125-16.779,83.272,19.506,75.029,65.94c-8.771,0.619-17.449,2.014-25.939,4.765
		c-2.617,0.848-2.628,3.528-1.172,4.959c-1.765,7.978-1.657,6.338-1.291,15.017c0.046,1.098,0.462,1.896,1.058,2.417
		c-1.756,1.624-1.768,4.825,1.28,5.837c7.18,2.383,14.435,3.992,21.779,5.088c-1.95,33.188,0.25,64.795,3.196,78.213
		c0.343,1.562,1.156,2.59,2.173,3.199c-1.905,2.098-1.807,5.718,1.861,6.86c8.346,2.599,22.337,3.223,29.208-3.689
		c2.333,2.936,8.466,1.5,8.184-2.929c-1.538-24.087-3.511-47.981-2.934-72.158c0.053-2.235,0.139-4.499,0.226-6.76
		c8.894,0.09,17.812-0.396,25.961-2.588c2.753-0.74,3.477-4.012,2.112-6.024c-0.656-5.78,0.99-12.018,3.649-17.098
		c0.499-0.954,0.688-1.839,0.678-2.653C149.224,76.151,148.366,68.323,142.457,68.25z M65.142,76.023
		c-0.288,0.67-0.674,1.279-0.988,1.933c-0.696-0.394-1.364-0.819-2.07-1.202c-1.148-0.624-2.276-0.727-3.297-0.518
		c-0.127-0.201-0.251-0.401-0.406-0.578c2.469-0.228,4.941-0.395,7.412-0.505C65.545,75.416,65.312,75.695,65.142,76.023z"/>
</g>
<g>
</g>
<g>
</g>
<g>
</g>
<g>
</g>
<g>
</g>
<g>
</g>
<g>
</g>
<g>
</g>
<g>
</g>
<g>
</g>
<g>
</g>
<g>
</g>
<g>
</g>
<g>
</g>
<g>
</g>
</svg>
