<?xml version="1.0" encoding="iso-8859-1"?>
<!-- Generator: Adobe Illustrator 16.0.0, SVG Export Plug-In . SVG Version: 6.00 Build 0)  -->
<!DOCTYPE svg PUBLIC "-//W3C//DTD SVG 1.1//EN" "http://www.w3.org/Graphics/SVG/1.1/DTD/svg11.dtd">
<svg version="1.1" id="Capa_1" xmlns="http://www.w3.org/2000/svg" xmlns:xlink="http://www.w3.org/1999/xlink" x="0px" y="0px"
	 width="189.061px" height="189.061px" viewBox="0 0 189.061 189.061" style="enable-background:new 0 0 189.061 189.061;"
	 xml:space="preserve">
<g>
	<path d="M17.581,3.078C16.256-1.546,8.646-0.8,8.997,4.239c2.174,31.2-1.39,61.798-1.649,92.943
		c-0.119,14.396,0.742,28.804,0.976,43.196c0.236,14.454-4.211,30.389-2.522,44.378c0.534,4.421,5.506,5.904,8.195,2.22
		c6.918-9.479,5.768-25.627,6.038-36.836c0.389-16.153-0.653-32.333-0.916-48.481C18.587,68.991,26.763,35.109,17.581,3.078z"/>
	<path d="M182.805,86.854c-0.734-1.042-1.979-1.648-3.229-1.465c-5.172-1.852-10.513-3.305-15.785-4.814
		c-3.25-0.93-6.356-2.196-9.301-3.853c-1.904-1.072-3.353-2.626-4.893-4.059c18.349-0.347,36.438-21.54,27.734-39.241
		c-0.269-0.547-0.637-0.873-1.033-1.107c-1.037-2.023-4.12-3.052-6.206-1.192c-23.192,20.681-48.229,4.084-71.02-8.667
		C78.187,10.767,53.907,5.989,30.514,11.898c-0.888,0.224-1.461,0.792-1.792,1.479c-0.33,0.332-0.541,0.804-0.524,1.42
		c0.76,27.162-1.306,54.166-0.643,81.285c0.053,2.167,1.601,3.31,3.273,3.537c1.38,0.828,3.272,0.885,4.543-0.405
		c7.399-7.514,27.873,0.953,36.23,3.474c11.882,3.582,23.219,8.473,34.832,12.772c29.288,10.843,62.541,5.289,76.471-24.692
		C183.941,89.866,183.867,87.954,182.805,86.854z M85.106,25.434c13.221,5.709,24.978,14.387,38.296,20.059
		c16.88,7.188,36.691,8.566,49.179-5.328c0.154,6.379-2.101,11.377-7.166,16.505c-3.722,3.768-8.018,5.796-12.561,7.5
		c-0.354-0.186-0.745-0.325-1.197-0.346c-11.654-0.533-20.191-0.772-31.258-5.477c-7.721-3.283-14.831-7.891-22.661-10.974
		c-19.822-7.806-40.029-14.614-61.276-9.73c-0.422-6.799-1.355-13.481-3.18-19.926C51.396,16.795,68.165,18.117,85.106,25.434z
		 M86.487,97.596c-9.125-3.158-38.249-14.961-51.441-8.391c0.075-5.621,0.379-11.353,0.71-17.129
		c23.96,3.034,46.12,10.817,69.193,17.763c18.368,5.529,38.156,9.495,56.374,1.692c1.027-0.44,1.654-1.146,1.987-1.958
		c3.682,0.663,7.474,0.975,11.227,1.207C151.656,120.98,117.256,108.246,86.487,97.596z"/>
</g>
<g>
</g>
<g>
</g>
<g>
</g>
<g>
</g>
<g>
</g>
<g>
</g>
<g>
</g>
<g>
</g>
<g>
</g>
<g>
</g>
<g>
</g>
<g>
</g>
<g>
</g>
<g>
</g>
<g>
</g>
</svg>
