<?xml version="1.0" encoding="iso-8859-1"?>
<!-- Generator: Adobe Illustrator 16.0.0, SVG Export Plug-In . SVG Version: 6.00 Build 0)  -->
<!DOCTYPE svg PUBLIC "-//W3C//DTD SVG 1.1//EN" "http://www.w3.org/Graphics/SVG/1.1/DTD/svg11.dtd">
<svg version="1.1" id="Capa_1" xmlns="http://www.w3.org/2000/svg" xmlns:xlink="http://www.w3.org/1999/xlink" x="0px" y="0px"
	 width="189.534px" height="189.533px" viewBox="0 0 189.534 189.533" style="enable-background:new 0 0 189.534 189.533;"
	 xml:space="preserve">
<g>
	<path d="M19.019,4.483c-7.738,22.606-2.279,49.37-1.539,72.691c1.125,35.463-4.51,71.006-2.671,106.432
		c0.411,7.922,11.775,7.883,12.265,0c2.127-34.211,3.397-68.858,3.6-103.138c0.142-23.966-5.003-48.965,0.689-72.581
		C33.311-0.196,21.676-3.278,19.019,4.483z"/>
	<path d="M174.515,76.706c0.194-1.724-1.146-3.58-3.076-3.555c-10.332,0.134-19.154-1.731-27.927-5.842
		c14.081-11.323,27.133-32.326,18.604-48.761c-0.64-1.235-1.789-1.797-2.977-1.846c-2.065-1.043-4.97-0.815-6.387,1.467
		C123.517,65.25,69.193-18.998,39.938,17.515c-1.449-0.014-2.913,0.974-3.133,2.966c-1.625,14.764-1.928,29.629-2.147,44.469
		c-0.157,10.657-1.613,22.855,2.615,32.833c0.624,1.473,2.291,1.755,3.645,1.246c0.007,0,0.013,0.003,0.02,0.003
		c15.417-0.594,28.592-1.98,43.646,2.577c13.82,4.183,26.482,9.491,41,10.826c21.191,1.947,45.813-10.59,49.468-33.074
		C175.201,78.438,174.961,77.514,174.515,76.706z"/>
</g>
<g>
</g>
<g>
</g>
<g>
</g>
<g>
</g>
<g>
</g>
<g>
</g>
<g>
</g>
<g>
</g>
<g>
</g>
<g>
</g>
<g>
</g>
<g>
</g>
<g>
</g>
<g>
</g>
<g>
</g>
</svg>
