<?xml version="1.0" encoding="iso-8859-1"?>
<!-- Generator: Adobe Illustrator 16.0.0, SVG Export Plug-In . SVG Version: 6.00 Build 0)  -->
<!DOCTYPE svg PUBLIC "-//W3C//DTD SVG 1.1//EN" "http://www.w3.org/Graphics/SVG/1.1/DTD/svg11.dtd">
<svg version="1.1" id="Capa_1" xmlns="http://www.w3.org/2000/svg" xmlns:xlink="http://www.w3.org/1999/xlink" x="0px" y="0px"
	 width="188.516px" height="188.516px" viewBox="0 0 188.516 188.516" style="enable-background:new 0 0 188.516 188.516;"
	 xml:space="preserve">
<g>
	<path d="M174.839,85.313c-0.395-15.142-6.746-30.751-23.682-32.709c-12.271-1.419-24.834,0.793-37.106,1.471
		c-18.163,1.004-36.383,0.917-54.567,0.913c1.011-7.477-5.828-12.968-13.426-13.834c-12.456-1.419-24.445,2.805-36.761,3.583
		c-2.284,0.144-2.95,2.548-2.013,3.993c-0.213,0.281-0.384,0.621-0.449,1.084C4.791,64.458,2.833,79.688,1.773,94.892
		c-1.806,5.47-2.571,10.465-0.658,12.918c-0.233,7.673-0.197,15.299,0.291,22.788c1.077,16.54,8.552,28.411,24.3,34.085
		c17.61,6.346,38.903,2.253,56.909,0.21c19.247-2.185,38.297-0.958,57.558-1.938C180.229,160.916,175.614,115.116,174.839,85.313z
		 M34.861,56.384c-0.584-0.718-1.116-1.548-1.59-2.533c0.615,0,1.231,0,1.846,0c-0.172,0.418-0.268,0.908-0.265,1.474
		C34.854,55.676,34.857,56.029,34.861,56.384z M155.753,61.23c-0.249,0.192-0.467,0.415-0.647,0.67
		c-1.478-0.826-2.997-1.569-4.594-2.146C152.289,60.081,154.039,60.562,155.753,61.23z M151.289,153.845
		c0.035-0.036,0.068-0.075,0.104-0.111c0.158-0.045,0.313-0.097,0.471-0.141c1.188-0.332,1.872-1.151,2.192-2.092
		c2.957-1.474,5.737-3.458,7.842-5.906C159.433,149.769,155.665,152.31,151.289,153.845z"/>
	<path d="M174.549,26.746c-9.749,1.629-20.164-2.35-29.876-3.52c-13.475-1.624-26.957-2.373-40.521-2.664
		c-26.784-0.576-53.588,0.886-80.366,1.272c-1.719,0.025-2.724,1.313-2.904,2.904c-0.476,3.202-0.729,6.421-0.758,9.658
		c-0.087,2.008,2.396,2.548,3.548,1.345c0.042,0.001,0.07,0.021,0.113,0.021c12.889-0.241,34.938-5.212,40.571,10.699
		c0.447,1.264,1.487,2.215,2.892,2.202c27.859-0.227,56.328-7.381,83.921-0.944c31.504,7.348,26.797,39.632,26.777,64.994
		c-0.312,2.869-0.613,5.738-0.896,8.609c-0.364,3.7,5.397,3.661,5.763,0C183.726,112.187,199.378,22.598,174.549,26.746z"/>
</g>
<g>
</g>
<g>
</g>
<g>
</g>
<g>
</g>
<g>
</g>
<g>
</g>
<g>
</g>
<g>
</g>
<g>
</g>
<g>
</g>
<g>
</g>
<g>
</g>
<g>
</g>
<g>
</g>
<g>
</g>
</svg>
