<?xml version="1.0" encoding="iso-8859-1"?>
<!-- Generator: Adobe Illustrator 16.0.0, SVG Export Plug-In . SVG Version: 6.00 Build 0)  -->
<!DOCTYPE svg PUBLIC "-//W3C//DTD SVG 1.1//EN" "http://www.w3.org/Graphics/SVG/1.1/DTD/svg11.dtd">
<svg version="1.1" id="Capa_1" xmlns="http://www.w3.org/2000/svg" xmlns:xlink="http://www.w3.org/1999/xlink" x="0px" y="0px"
	 width="190.44px" height="190.44px" viewBox="0 0 190.44 190.44" style="enable-background:new 0 0 190.44 190.44;"
	 xml:space="preserve">
<g>
	<g>
		<path d="M88.626,65.838c-7.861-15.471-17.225-30.544-26.132-45.44c-0.597-0.998-1.633-1.052-2.386-0.601
			c-0.763-0.092-1.54,0.225-2.003,1.177C46.992,43.826,34.204,66.321,20.749,87.878c-5.004,8.017-10.741,15.551-15.667,23.622
			c-1.782,2.92-3.344,6.009-4.402,9.263c-0.425,1.306-0.256,2.294,0.029,3.254c-0.525,0.399-0.859,1.039-0.642,1.782
			c2.627,9.023,6.79,17.344,11.23,25.598c3.903,7.254,7.909,15.82,13.589,21.848c0.854,0.908,2.348,0.57,3.033-0.303
			c0.504,0.055,1.014-0.086,1.403-0.574c12.58-15.775,21.032-34.109,30.824-51.635c9.707-17.373,19.467-34.777,29.735-51.826
			C90.725,67.509,89.82,66.215,88.626,65.838z"/>
		<path d="M186.85,117.99c0.019-0.201,0-0.422-0.096-0.67c-0.115-0.303-0.256-0.6-0.378-0.9c-0.021-0.077-0.062-0.145-0.092-0.221
			c-3.008-7.291-7.784-14.06-11.721-20.858c-4.929-8.514-9.938-16.983-14.858-25.502C149.238,51.72,140.486,32.656,129.97,14.59
			c-0.092-0.157-0.211-0.271-0.334-0.375c0.21-0.987-0.188-2.153-1.331-2.45c-15.402-4.003-34.726-2.368-50.378-0.354
			c-0.433,0.056-0.79,0.222-1.085,0.445c-0.013-0.004-0.027-0.004-0.04-0.008c-0.383-0.131-0.884-0.128-1.348-0.051
			c-0.046,0.005-0.09,0.015-0.135,0.024c-0.25,0.051-0.488,0.116-0.674,0.208c-0.287,0.142-0.501,0.325-0.656,0.531
			c-0.982-0.226-2.156,0.759-1.413,1.749c11.238,14.976,21.699,29.961,30.913,46.228c2.75,6.871,5.998,13.472,10.352,19.28
			c6.657,12.826,13.201,25.737,20.763,38.014c0.021,0.036,0.049,0.062,0.071,0.095c0.048,0.46,0.261,0.909,0.733,1.21
			c7.456,4.731,16.907,4.708,25.46,4.624c7.836-0.076,18.821,0.38,26.073-2.971C188.058,120.273,187.902,118.464,186.85,117.99z
			 M135.474,111.523c-0.801-1.468-1.6-2.935-2.393-4.406c0.836,1.168,1.688,2.328,2.556,3.486c0.108,0.146,0.227,0.271,0.348,0.389
			C135.792,111.15,135.617,111.324,135.474,111.523z"/>
		<path d="M188.151,132.158c0.033-1.021-0.629-2.057-2.014-2.151c-19.708-1.339-40.001,1.688-59.693,2.674
			c-20.803,1.042-41.053,0.015-61.637-3.129c-0.892-0.136-1.563,0.288-1.92,0.878c-0.158,0.157-0.305,0.34-0.425,0.578
			c-4.34,8.613-8.567,17.282-12.964,25.866c-2.356,4.598-4.828,9.135-7.336,13.651c-0.373,0.672-2.634,5.916-2.64,5.92
			c-0.524,0.332-0.192,1.248,0.435,1.033c0.059-0.017,0.118-0.033,0.177-0.05c0.74,0.315,1.413,0.293,2.036-0.263
			c0.145-0.129,0.271-0.285,0.414-0.419c2.345,2.887,6.514,1.94,10.161,2.038c8.613,0.236,17.226,0.425,25.841,0.57
			c26.581,0.447,53.368-1.908,79.801,1.75c1.739,0.24,2.938-1.076,3.18-2.416c7.175-4.281,9.681-14.11,13.831-20.918
			c4.846-7.947,11.677-14.689,14.939-23.518C190.854,132.861,189.328,131.852,188.151,132.158z"/>
	</g>
</g>
<g>
</g>
<g>
</g>
<g>
</g>
<g>
</g>
<g>
</g>
<g>
</g>
<g>
</g>
<g>
</g>
<g>
</g>
<g>
</g>
<g>
</g>
<g>
</g>
<g>
</g>
<g>
</g>
<g>
</g>
</svg>
