<?xml version="1.0" encoding="iso-8859-1"?>
<!-- Generator: Adobe Illustrator 16.0.0, SVG Export Plug-In . SVG Version: 6.00 Build 0)  -->
<!DOCTYPE svg PUBLIC "-//W3C//DTD SVG 1.1//EN" "http://www.w3.org/Graphics/SVG/1.1/DTD/svg11.dtd">
<svg version="1.1" id="Capa_1" xmlns="http://www.w3.org/2000/svg" xmlns:xlink="http://www.w3.org/1999/xlink" x="0px" y="0px"
	 width="186.537px" height="186.537px" viewBox="0 0 186.537 186.537" style="enable-background:new 0 0 186.537 186.537;"
	 xml:space="preserve">
<g>
	<path d="M184.187,62.312c-3.844-16.076-13.693-29.585-26.712-39.471C138.349,8.32,115.253,7.115,92.26,7.198
		c-1.906,0.007-3.222,0.915-3.965,2.166C52.294,6.081,20.312,28.014,6.292,62.118C-8.525,98.16,3.534,139.751,35.02,162.242
		c34.401,24.573,83.271,22.133,115.709-3.908C178.398,136.121,192.441,96.842,184.187,62.312z M44.291,129.673
		c-3.384-0.523-7.657,0.272-10.268,0.344c-1.388,0.038-3.935-0.278-6.33-0.2c-0.474-3.257-1.231-6.559-1.37-9.76
		c-0.153-3.538-0.119-7.086-0.024-10.634c3.47,1.234,8.823,0.622,11.763,0.693c1.768,0.042,5.812,0.049,8.778-0.872
		C46.061,115.62,44.947,122.621,44.291,129.673z M49.881,65.915c-0.735-0.206-1.571-0.207-2.508,0.141
		c-3.566,1.323-7.571,1.54-11.323,1.928c-2,0.207-4.364,0.247-6.543,0.687c0.704-6.3,1.268-12.594,1.331-18.806
		c3.214-0.038,6.425-0.143,9.658,0.019c3.199,0.159,7.194,1.076,10.585,0.532C50.601,55.572,50.213,60.74,49.881,65.915z
		 M87.322,95.615c-8.302,0.03-16.934-0.211-25.159,1.084c1.179-6.367,2.775-12.739,3.849-19.075
		c14.199,3.708,29.362,4.281,43.968,4.402c-0.008,4.824,0.149,9.634,0.166,14.454C102.802,95.068,94.71,95.588,87.322,95.615z
		 M114.683,143.424c25.121-31.581,23.469-70.419,4.326-104.354C152.643,60.077,160.438,138.371,114.683,143.424z"/>
</g>
<g>
</g>
<g>
</g>
<g>
</g>
<g>
</g>
<g>
</g>
<g>
</g>
<g>
</g>
<g>
</g>
<g>
</g>
<g>
</g>
<g>
</g>
<g>
</g>
<g>
</g>
<g>
</g>
<g>
</g>
</svg>
