<?xml version="1.0" encoding="iso-8859-1"?>
<!-- Generator: Adobe Illustrator 16.0.0, SVG Export Plug-In . SVG Version: 6.00 Build 0)  -->
<!DOCTYPE svg PUBLIC "-//W3C//DTD SVG 1.1//EN" "http://www.w3.org/Graphics/SVG/1.1/DTD/svg11.dtd">
<svg version="1.1" id="Capa_1" xmlns="http://www.w3.org/2000/svg" xmlns:xlink="http://www.w3.org/1999/xlink" x="0px" y="0px"
	 width="184.667px" height="184.666px" viewBox="0 0 184.667 184.666" style="enable-background:new 0 0 184.667 184.666;"
	 xml:space="preserve">
<g>
	<path d="M87.082,0.263c-1.941,0.147-3.213,1.175-3.848,2.478C13.621,1.205-19.011,98.272,17.28,152.374
		c22.861,34.081,68.464,38.652,104.532,25.445c37.08-13.578,60.043-49.559,60.542-88.425C183.021,37.459,138.876-3.688,87.082,0.263
		z M97.979,153.105c20.647-32.076,25.325-92.051-0.701-121.562C147.998,35.579,141.499,135.375,97.979,153.105z M50.626,50.632
		c7.595,0.859,15.501,1.107,23.094,0.061c0.307,1.156,0.594,2.318,0.966,3.452c0.166,5.562,0.222,11.118,0.128,16.667
		c-5.064,0.771-10.099,1.756-15.189,2.449c-2.543,0.346-5.035,0.754-7.518,1.405c-0.295,0.077-0.628,0.193-0.962,0.325
		C50.794,66.879,50.315,58.767,50.626,50.632z M50.759,102.054c3.588,0.832,7.382,1.142,11.022,1.301
		c3.594,0.157,7.958,0.589,11.515-0.605c-0.588,7.574-1.892,15.892-2.666,24.208c-6.79,0.062-13.838,0.993-20.643,1.97
		C50.076,119.953,50.265,110.968,50.759,102.054z M60.926,170.6c2.641,0.833,5.364,1.491,8.168,1.982
		c0.118,0.122,0.232,0.247,0.361,0.358c-3.012-0.552-5.951-1.262-8.789-2.162C60.752,170.718,60.844,170.666,60.926,170.6z"/>
</g>
<g>
</g>
<g>
</g>
<g>
</g>
<g>
</g>
<g>
</g>
<g>
</g>
<g>
</g>
<g>
</g>
<g>
</g>
<g>
</g>
<g>
</g>
<g>
</g>
<g>
</g>
<g>
</g>
<g>
</g>
</svg>
