<?xml version="1.0" encoding="iso-8859-1"?>
<!-- Generator: Adobe Illustrator 16.0.0, SVG Export Plug-In . SVG Version: 6.00 Build 0)  -->
<!DOCTYPE svg PUBLIC "-//W3C//DTD SVG 1.1//EN" "http://www.w3.org/Graphics/SVG/1.1/DTD/svg11.dtd">
<svg version="1.1" id="Capa_1" xmlns="http://www.w3.org/2000/svg" xmlns:xlink="http://www.w3.org/1999/xlink" x="0px" y="0px"
	 width="193.113px" height="193.114px" viewBox="0 0 193.113 193.114" style="enable-background:new 0 0 193.113 193.114;"
	 xml:space="preserve">
<g>
	<path d="M79.203,135.263c-0.31-6.376-5.745-39.785-18.698-33.532c-1.548-1.337-4.591-0.615-4.392,1.865
		c1.864,23.281,0.334,46.573,0.129,69.896c-0.027,3.024,3.07,5.502,6.023,4.588C78.963,172.912,79.899,149.562,79.203,135.263z
		 M66.801,121.519c-0.508,0.631-0.911,1.381-1.002,2.368c-0.122,1.321-0.254,2.694-0.384,4.091
		c-0.313-4.037-0.759-8.062-1.395-12.072C65.148,117.719,66.052,119.567,66.801,121.519z M66.012,154.645
		c0.422,1.746,0.963,3.431,1.643,5.044c-0.497,1.44-1.062,2.817-1.782,4.02C65.924,160.686,65.974,157.665,66.012,154.645z"/>
	<path d="M142.978,114.031c2.848-2.55,1.867-8.518-3.063-8.521l-2.806-0.001c-1.651-1.994-4.828-2.988-7.401-0.849
		c-0.312,0.259-0.568,0.576-0.869,0.846h-0.196c-3.113-0.001-4.941,2.656-4.736,5.484c-13.562,18.491-11.188,50.293,7.851,63.319
		c0.656,0.893,1.499,1.406,2.429,1.582c1.424,0.793,2.902,1.521,4.488,2.106c2.642,0.976,6.277-1.606,5.919-4.509
		c-0.622-5.041-0.493-10.161-0.899-15.204C145.994,143.828,144.68,128.449,142.978,114.031z"/>
	<path d="M176.916,106.005c-1.63-39.339-17.172-83.276-58.536-92.34C61.789,1.264,18.944,56.92,22.752,108.746
		C9.837,118.615,1.609,134.22,0.151,150.634c-2.145,24.144,18.967,33.215,39.626,29.913c1.62-0.259,3.108-1.946,3.478-3.478
		c3.117-12.901,3.447-26.571,3.049-39.774c-0.155-5.125,0.213-12.351-1.636-18.016c0.148-2.241,0.332-4.467,0.585-6.665
		c0.237-2.06-1.08-3.436-2.759-4.056c2.133-3.532-0.499-9.275-5.382-7.573c-1.937,0.675-3.791,1.496-5.604,2.384
		c3.455-47.414,40.512-92.904,92.877-76.88c31.458,9.626,37.74,45.98,40.326,76.68c-1.449-0.053-2.939-0.048-4.505,0.066
		c-3.207,0.231-4.76,2.928-4.669,5.428c-0.053,0.031-0.111,0.045-0.163,0.079c-2.941-1.351-7.044-0.131-6.577,3.873
		c0.049,0.416,0.14,0.819,0.207,1.229c-0.014,0.002-0.027,0.004-0.041,0.006c0.031,0.087,0.053,0.164,0.084,0.25
		c0.571,3.301,1.619,6.45,2.008,9.788c0.002,0.017,0.011,0.03,0.014,0.047c-0.173,4.247,0.377,8.93,0.354,12.071
		c-0.097,13.512-0.402,27.651,1.887,41.02c0.332,1.938,2.688,3.725,4.643,3.534c1.894-0.186,3.691-0.56,5.444-1.016
		c1.685,0.577,3.646,0.055,4.737-1.595C196.471,165.94,202.476,118.233,176.916,106.005z"/>
</g>
<g>
</g>
<g>
</g>
<g>
</g>
<g>
</g>
<g>
</g>
<g>
</g>
<g>
</g>
<g>
</g>
<g>
</g>
<g>
</g>
<g>
</g>
<g>
</g>
<g>
</g>
<g>
</g>
<g>
</g>
</svg>
