<?xml version="1.0" encoding="iso-8859-1"?>
<!-- Generator: Adobe Illustrator 16.0.0, SVG Export Plug-In . SVG Version: 6.00 Build 0)  -->
<!DOCTYPE svg PUBLIC "-//W3C//DTD SVG 1.1//EN" "http://www.w3.org/Graphics/SVG/1.1/DTD/svg11.dtd">
<svg version="1.1" id="Capa_1" xmlns="http://www.w3.org/2000/svg" xmlns:xlink="http://www.w3.org/1999/xlink" x="0px" y="0px"
	 width="182.255px" height="182.255px" viewBox="0 0 182.255 182.255" style="enable-background:new 0 0 182.255 182.255;"
	 xml:space="preserve">
<g>
	<path d="M167.688,82.557c-0.029-0.496-0.168-1.014-0.463-1.541c-0.786-1.407-1.665-2.737-2.498-4.105
		c-0.135-0.548-0.451-1.039-0.897-1.474c-5.648-9.01-12.229-17.261-19.415-25.014c2.53-2.565,4.614-5.944,6.628-8.536
		c4.018-5.171,7.972-10.432,11.397-16.018c0.99-1.614,0.365-3.826-1.249-4.763c-8.45-4.905-17.197-9.19-26.262-12.832
		c-1.255-0.504-3.125,0.297-3.691,1.502c-2.956,6.28-6.718,12.124-9.59,18.435c-9.924-9.037-20.049-17.875-29.521-27.186
		c-1.099-1.08-2.898-1.378-4.236-0.546C62.226,16.425,48.087,43.484,30.327,67.163c-0.446,0.357-0.767,0.822-1.001,1.335
		c-4.096,5.387-8.392,10.587-13.079,15.417c-0.445,0.459-0.643,0.952-0.743,1.446c-0.127-0.001-0.255-0.004-0.382-0.005
		c-2.423-0.027-3.056,3.855-0.582,4.304c11.645,2.113,23.509,3.559,35.482,4.479c-4.343,19.925-4.45,41.032-7.72,61.222
		c-0.873,5.39-4.002,21.84,6.064,20.583c0.928,0.904,2.2,1.676,4.001,2.396c5.571,2.228,15.168,1.494,20.682-0.539
		c1.842-0.679,2.46-2.383,2.08-3.835c0.633-0.294,1.14-0.816,1.283-1.648c1.639-9.551,3.672-46.079,21.678-35.507
		c6.664,3.912,6.188,16.699,6.19,23.187c0.002,4.206-2.634,14.141,1.482,16.908c-0.756,1.658-0.337,3.719,2.041,4.245
		c4.756,1.053,9.513,1.229,14.363,1.039c3.278-0.128,6.531-0.128,9.468-1.585c2.041,1.673,6.014,0.792,6.04-2.663
		c0.165-22.409,1.726-44.626,0.338-66.848c-0.092-4.732-0.51-9.437-1.346-14.089c-0.177-1.377-0.298-2.753-0.506-4.13
		c9.975-0.894,19.87-1.973,29.618-3.217C169.683,89.158,170.345,83.903,167.688,82.557z"/>
</g>
<g>
</g>
<g>
</g>
<g>
</g>
<g>
</g>
<g>
</g>
<g>
</g>
<g>
</g>
<g>
</g>
<g>
</g>
<g>
</g>
<g>
</g>
<g>
</g>
<g>
</g>
<g>
</g>
<g>
</g>
</svg>
