<?xml version="1.0" encoding="iso-8859-1"?>
<!-- Generator: Adobe Illustrator 16.0.0, SVG Export Plug-In . SVG Version: 6.00 Build 0)  -->
<!DOCTYPE svg PUBLIC "-//W3C//DTD SVG 1.1//EN" "http://www.w3.org/Graphics/SVG/1.1/DTD/svg11.dtd">
<svg version="1.1" id="Capa_1" xmlns="http://www.w3.org/2000/svg" xmlns:xlink="http://www.w3.org/1999/xlink" x="0px" y="0px"
	 width="187.021px" height="187.02px" viewBox="0 0 187.021 187.02" style="enable-background:new 0 0 187.021 187.02;"
	 xml:space="preserve">
<g>
	<path d="M185.132,94.379c0.233-4.415,0.699-9.701-0.188-14.409c2.227-1.899,3.053-5.695,0.505-7.693
		c-14.683-11.514-39.473-11.648-60.876-10.318c-0.302-19.734-1.954-40.196-8.038-57.822c-1.495-4.331-7.405-4.797-9.596-1.641
		c-0.323-0.092-0.591-0.241-0.954-0.289C97.646,1.11,88.299,2.172,79.902,2.62c-2.523,0.134-3.986,1.725-4.424,3.562
		c-0.66-0.03-1.321-0.07-1.98-0.092c-0.453-0.015-0.853,0.068-1.208,0.214c-1.883-0.359-3.87,0.212-4.741,2.241
		c-7.503,17.49-8.649,38.542-8.587,58.557c-15.109,1.175-30.224,1.955-45.389,1.371c-1.842-2.275-5.83-2.428-8.501-0.477
		c-0.654-0.049-1.307-0.079-1.962-0.134c-3.013-0.253-3.607,4.568-0.708,5.231c0.007,0.001,0.014,0.003,0.021,0.004
		c-2.065,15.594-4.339,30.9,0.263,46.238c-0.29,0.321-0.59,0.633-0.84,0.986c-0.498,0.703-0.068,1.56,0.525,2.002
		c7.254,5.408,21.293,0.716,29.771-0.119c9.337-0.919,18.696-1.655,28.061-2.292c0.819,19.396,2.094,38.832,3.909,58.015
		c-0.208,1.947,0.746,4.166,2.858,4.92c8.1,2.896,16.372,3.693,24.932,3.672c6.697-0.017,16.443,0.775,21.962-3.487
		c1.003-0.774,1.636-1.71,1.986-2.686c1.97,0.522,4.336-0.568,4.591-3.34c1.789-19.581,2.711-39.349,3.297-59.092
		c17.519,0.338,34.985,1.705,52.301,4.793c0.99,0.575,2.169,0.744,3.273,0.464c5.823,0.312,8.583-7.365,4.507-10.376
		C184.704,106.699,184.817,100.34,185.132,94.379z"/>
</g>
<g>
</g>
<g>
</g>
<g>
</g>
<g>
</g>
<g>
</g>
<g>
</g>
<g>
</g>
<g>
</g>
<g>
</g>
<g>
</g>
<g>
</g>
<g>
</g>
<g>
</g>
<g>
</g>
<g>
</g>
</svg>
