<?xml version="1.0" encoding="iso-8859-1"?>
<!-- Generator: Adobe Illustrator 16.0.0, SVG Export Plug-In . SVG Version: 6.00 Build 0)  -->
<!DOCTYPE svg PUBLIC "-//W3C//DTD SVG 1.1//EN" "http://www.w3.org/Graphics/SVG/1.1/DTD/svg11.dtd">
<svg version="1.1" id="Capa_1" xmlns="http://www.w3.org/2000/svg" xmlns:xlink="http://www.w3.org/1999/xlink" x="0px" y="0px"
	 width="192.686px" height="192.687px" viewBox="0 0 192.686 192.687" style="enable-background:new 0 0 192.686 192.687;"
	 xml:space="preserve">
<g>
	<path d="M141.599,136.018c-6.192-17.483-30.503-26.119-40.909-41.537c-1.896-2.811-5.785-3.602-8.326-1.073
		c-13.4,13.333-26.184,27.233-39.654,40.501c-0.812,0.801-1.252,1.65-1.412,2.487c-1.163,2.424,0.055,5.747,3.736,6.198
		c2.288,0.281,4.6,0.461,6.908,0.656c-1.378,4.828-1.099,10.75-1.222,15.039c-0.271,9.514,0.315,19.594,1.531,29.041
		c0.241,1.875,1.364,3.018,2.675,3.454c0.438,0.789,1.215,1.411,2.42,1.486c2.177,0.136,4.34,0.217,6.522,0.237
		c2.124,0.019,5.399,0.617,7.293-0.487c0.547-0.319,0.932-0.778,1.182-1.294c0.98-0.016,1.9-0.543,2.112-1.74
		c1.2-6.766,2.221-15.654,10.065-17.91c8.343-2.4,8.199,10.533,7.966,15.253c-0.154,3.163,2.781,4.079,4.985,3.078
		c4.937,1.459,11.377,2.466,16.173,0.681c1.983-0.738,2.803-2.904,2.479-4.703c0.99-0.596,1.75-1.615,1.875-3.062
		c1.051-12.174,0.171-24.633,2.322-36.689c1.396-0.219,2.778-0.477,4.121-0.832c1.764-0.467,2.787-1.623,3.183-2.967
		C140.204,141.465,142.544,138.686,141.599,136.018z"/>
	<path d="M94.693,0.106c-43.012,2.899-21.584,65.418,0.073,81.318c1.062,0.78,2.364,0.396,3.206-0.448
		c1.504,0.483,3.22,0.214,4.677-1.331C121.44,59.72,139.702-2.927,94.693,0.106z M88.529,23.793c0.661-2.911,2.5-5.729,4.93-7.784
		c0.517,0.273,1.07,0.465,1.651,0.525c1.173,0.121,2.412,0.069,3.324,0.258c1.197,0.248,1.312,0.401,1.799,0.893
		c0.691,0.7,1.002,2.646,0.892,4.982c-0.188,3.993-2.562,8.953-5.825,10.823c-0.046-0.012-0.381,0.103-0.637,0.194
		c-0.067-0.037-0.878,0.055-0.976,0.051c0.154,0.006-1.248-0.491-1.849-0.968C88.923,30.447,87.701,27.441,88.529,23.793z"/>
</g>
<g>
</g>
<g>
</g>
<g>
</g>
<g>
</g>
<g>
</g>
<g>
</g>
<g>
</g>
<g>
</g>
<g>
</g>
<g>
</g>
<g>
</g>
<g>
</g>
<g>
</g>
<g>
</g>
<g>
</g>
</svg>
