<?xml version="1.0" encoding="iso-8859-1"?>
<!-- Generator: Adobe Illustrator 16.0.0, SVG Export Plug-In . SVG Version: 6.00 Build 0)  -->
<!DOCTYPE svg PUBLIC "-//W3C//DTD SVG 1.1//EN" "http://www.w3.org/Graphics/SVG/1.1/DTD/svg11.dtd">
<svg version="1.1" id="Capa_1" xmlns="http://www.w3.org/2000/svg" xmlns:xlink="http://www.w3.org/1999/xlink" x="0px" y="0px"
	 width="185.875px" height="185.875px" viewBox="0 0 185.875 185.875" style="enable-background:new 0 0 185.875 185.875;"
	 xml:space="preserve">
<g>
	<path d="M166.279,25.543C144.978-0.559,109.205-2.204,78.389,4.315C37.527,2.208,7.84,33.921,1.325,74.487
		c-7.18,44.701,15.153,90.164,58.903,105.201c43.819,15.062,90.967-4.304,112.736-44.351
		C191.273,101.654,191.034,55.878,166.279,25.543z M33.474,58.303c-0.578,0.359-1.047,1.127-1.414,2.227
		c-0.264-0.202-0.549-0.367-0.856-0.483c0.901-1.283,1.827-2.551,2.781-3.8C33.82,56.933,33.647,57.618,33.474,58.303z
		 M53.946,167.668c-1.946-0.996-3.862-2.046-5.717-3.194c1.963,0.87,3.991,1.617,6.048,2.305
		C54.127,167.066,54.002,167.362,53.946,167.668z M136.838,110.247c0.168,1.487,0.388,2.97,0.645,4.449
		c0.022,0.798,0.038,1.597,0.058,2.395c-0.146-0.334-0.271-0.678-0.406-1.018c-0.154-0.781-0.334-1.567-0.535-2.361
		C136.679,112.558,136.758,111.402,136.838,110.247z M104.059,71.968c0.164,2.37,0.432,4.756,0.728,7.15
		c-0.409,0.429-0.654,1-0.752,1.656C104.049,77.85,104.058,74.915,104.059,71.968z M95.649,33.974
		c3.976,3.957,3.856,10.982,3.088,16.443c-4.467,0.968-9.309,1.014-13.824,0.2c0.331-6.378,1.662-13.443-0.056-19.394
		C88.588,31.602,92.302,30.641,95.649,33.974z M81.397,30.326c0.013,0.006,0.026,0.007,0.038,0.013
		c-0.048,0.082-0.107,0.153-0.145,0.244c-0.547,1.303-0.982,2.66-1.368,4.04c-0.007-2.15-0.01-4.301-0.017-6.451
		C80.02,29.067,80.484,29.893,81.397,30.326z M120.312,153.725c-2.928,0.062-5.854,0.153-8.78,0.276
		c-6.139,0.227-12.272,0.524-18.412,0.715c-6.194,0.192-12.372,0.074-18.559-0.221c-9.176-0.436-12.538-0.26-13.513-5.972
		c4.222,1.123,8.534,1.871,12.696,1.172c0.646,0.134,1.314-0.035,1.883-0.431c1.112-0.318,2.214-0.718,3.294-1.301
		c0.156-0.084,0.266-0.235,0.401-0.354c0.141,0.092,0.264,0.21,0.414,0.29c2.652,1.418,5.695-1.446,4.147-4.147
		c-1.496-2.609-1.019-8.555-1.254-11.482c-0.517-6.456-0.674-12.945-0.844-19.418c-0.166-6.294,2.037-19.892-1.228-26.794
		c0.211-0.089,0.427-0.143,0.636-0.247c3.312-1.653,0.972-7.28-2.53-6.001c-2.007,0.733-3.937,0.688-6.05,0.546
		c-1.265-0.084-2.526-0.241-3.786-0.377c-0.146-0.016-0.39-0.059-0.655-0.108c-0.233-3.264-0.059-6.771,0.979-9.732
		c8.907,3.291,17.833,4.17,27.297,4.41c-0.295,12.176-0.957,24.341-1.106,36.521c-0.104,8.621-1.3,21.408,3.93,28.905
		c0.104,0.147,0.247,0.251,0.371,0.376c-0.979,1.737-0.226,4.399,2.393,4.409c1.73,0.006,3.461,0.012,5.191,0.018
		c0.182,0,0.363-0.077,0.547-0.116c-0.176,0.246,3.597,0.82,4.134,0.881c3.457,0.394,7.107,0.202,10.682,0.077
		C122.39,148.412,121.659,151.119,120.312,153.725z M143.576,18.767c-0.212-0.086-0.426-0.171-0.671-0.231
		c-0.839-0.206-1.677-0.401-2.514-0.603c0.078-0.595,0.043-1.208-0.119-1.797c1.449,0.687,2.886,1.411,4.292,2.219
		C144.218,18.439,143.895,18.603,143.576,18.767z M152.049,48.391c-0.147-1.444-0.261-2.889-0.36-4.332
		c0.589,0.94,1.2,1.868,1.827,2.788C152.932,47.255,152.419,47.762,152.049,48.391z"/>
</g>
<g>
</g>
<g>
</g>
<g>
</g>
<g>
</g>
<g>
</g>
<g>
</g>
<g>
</g>
<g>
</g>
<g>
</g>
<g>
</g>
<g>
</g>
<g>
</g>
<g>
</g>
<g>
</g>
<g>
</g>
</svg>
