<?xml version="1.0" encoding="iso-8859-1"?>
<!-- Generator: Adobe Illustrator 16.0.0, SVG Export Plug-In . SVG Version: 6.00 Build 0)  -->
<!DOCTYPE svg PUBLIC "-//W3C//DTD SVG 1.1//EN" "http://www.w3.org/Graphics/SVG/1.1/DTD/svg11.dtd">
<svg version="1.1" id="Capa_1" xmlns="http://www.w3.org/2000/svg" xmlns:xlink="http://www.w3.org/1999/xlink" x="0px" y="0px"
	 width="190.579px" height="190.579px" viewBox="0 0 190.579 190.579" style="enable-background:new 0 0 190.579 190.579;"
	 xml:space="preserve">
<g>
	<path d="M183.536,69.676c-3.465-8.177-9.993-12.923-17.647-15.747c1.567-3.847,1.133-8.722,0.363-12.61
		c-0.273-1.378-1.717-2.3-3.046-2.319c-11.246-0.16-22.247-2.799-33.482-2.983c-1.69-0.028-3.096,1.431-3.098,3.098
		c-0.006,3.44-0.292,6.682,0.051,9.942c-20.45-1.113-40.812-3.12-61.287-4.021c-17.058-0.75-41.682-2.611-55.563,9.629
		c-1.61,1.42-1.508,3.22-0.577,4.551c-1.043,0.04-2.052,0.636-2.463,1.98c-4.55,14.895-5.121,29.207-5.794,44.624
		c-0.423,9.684-2.748,21.579,1.642,30.761c10.363,21.675,44.713,18.336,64.233,16.896c28.687-2.114,55.277-6.705,84.025-3.428
		c10.133,1.155,21.474,2.591,31.217-1.204c6.354-2.474,6.817-9.842,7.445-15.738C191.58,114.072,191.097,87.524,183.536,69.676z
		 M132.428,42.335c9.36,0.491,18.582,2.373,27.95,2.86c0.057,2.416-0.495,4.593-0.859,6.841c-7.752-1.802-16.063-2.207-23.274-2.476
		c-1.507-0.056-3.009-0.168-4.514-0.238C131.755,46.983,132.097,44.662,132.428,42.335z M13.183,82.905
		c-1.125-0.034-2.165-0.081-2.556-0.071c-0.401,0.01-0.723,0.128-1.052,0.236c0.042-0.61,0.062-1.222,0.111-1.831
		c1.587,0.381,3.183,0.677,4.776,1.005C14.024,82.441,13.6,82.659,13.183,82.905z M10.087,76.86c0.482-4.71,1.132-9.424,2.116-14.17
		c0.135-0.651,0.026-1.2-0.173-1.691c1.054,0.188,2.2-0.032,3.22-0.909c12.094-10.395,35.413-7.701,50.138-7.249
		c17.437,0.535,34.765,2.635,52.16,3.79c17.051,1.133,38.951-2.66,53.368,8.648c4.239,3.324,6.862,8.372,8.521,14.19
		c-2.413,0.141-4.825,0.253-7.237,0.336c-22.471-4.201-46.361-2.63-68.873-1.553C72.043,79.749,41.207,81.121,10.087,76.86z
		 M71.278,129.907c-11.577-17.305,3.327-34.302,18.548-42.417c0.497,0.349,1.08,0.619,1.85,0.653
		c12.745,0.557,22.895,5.445,23.745,19.347c0.643,10.52-4.557,21.345-12.062,28.459C92.827,145.932,78.693,140.991,71.278,129.907z"
		/>
	<path d="M104.479,97.213c-0.924-1.727-2.869-1.454-3.912-0.345c-8.021-3.569-17.52-1.911-22.743,6.018
		c-5.175,7.856-2.858,21.679,4.934,27.04c6.59,4.535,15.272,0.068,19.81-5.189C109.357,116.868,109.198,106.034,104.479,97.213z
		 M100.139,119.544c-2.682,4.419-8.191,8.223-13.488,6.589c-6.944-2.142-7.163-14.514-4.861-19.661
		c3.102-6.937,11.854-7.311,18.695-6.1C103.603,106.64,103.855,113.419,100.139,119.544z"/>
	<path d="M48.416,61.943c-0.07-1.04-0.675-2.056-1.758-2.31c-5.688-1.332-11.629-1.65-17.421-0.886
		c-1.619,0.214-4.237,0.323-5.175,1.924c-1.536,2.623-1.75,5.86-1.774,8.892c-0.97,0.688-1.289,2.441,0.015,3.036
		c0.431,0.197,0.871,0.383,1.309,0.573c0.101,0.046,0.194,0.099,0.301,0.132c5.253,2.247,10.958,3.874,16.657,2.632
		C47.068,74.519,48.802,67.701,48.416,61.943z M37.755,71.91c-3.372,0.677-7.156-0.167-10.602-1.294
		c-0.004-1.66-0.038-6.307,0.657-6.517c1.641-0.495,3.387-0.62,5.086-0.749c3.589-0.273,7.247-0.045,10.797,0.593
		C43.659,67.934,42.321,70.994,37.755,71.91z"/>
</g>
<g>
</g>
<g>
</g>
<g>
</g>
<g>
</g>
<g>
</g>
<g>
</g>
<g>
</g>
<g>
</g>
<g>
</g>
<g>
</g>
<g>
</g>
<g>
</g>
<g>
</g>
<g>
</g>
<g>
</g>
</svg>
