<?xml version="1.0" encoding="iso-8859-1"?>
<!-- Generator: Adobe Illustrator 16.0.0, SVG Export Plug-In . SVG Version: 6.00 Build 0)  -->
<!DOCTYPE svg PUBLIC "-//W3C//DTD SVG 1.1//EN" "http://www.w3.org/Graphics/SVG/1.1/DTD/svg11.dtd">
<svg version="1.1" id="Capa_1" xmlns="http://www.w3.org/2000/svg" xmlns:xlink="http://www.w3.org/1999/xlink" x="0px" y="0px"
	 width="190.284px" height="190.284px" viewBox="0 0 190.284 190.284" style="enable-background:new 0 0 190.284 190.284;"
	 xml:space="preserve">
<g>
	<path d="M92.199,6.283c-1.642,0.205-2.832,1.075-3.579,2.198c-20.5,0.857-40.173,8.163-56.623,20.971
		C11.762,45.204,3.067,71.518,0.542,96.116c-2.195,21.366,2.139,45.839,15.718,63.005c15.204,19.221,38.253,25.011,61.845,25.504
		c49.928,1.045,102.896-25.926,111.158-78.53C198.065,50.064,148.636-0.749,92.199,6.283z M65.915,91.642
		c-2.855,15.11,4.486,31.127,12.861,43.952c-2.994,2.479-6.029,4.906-8.9,7.493c-1.193-3.114-3.065-6.142-4.277-9.146
		c-2.046-5.071-3.813-10.246-5.909-15.297c-1.181-2.847-4.016-3.623-6.455-1.704c-6.324,4.974-11.513,11.644-17.258,17.37
		c-0.663-0.625-1.332-1.25-1.966-1.877c-1.181-1.169-2.623-2.797-4.207-4.326c10.054-8.376,20.059-19.697,24.386-31.774
		c6.701-18.708-11.527-31.991-18.99-47.427c1.3-0.915,2.589-1.846,3.875-2.789c1.711-1.256,3.517-2.329,5.328-3.379
		c0.037,0.061,0.045,0.125,0.091,0.185c5.075,6.595,9.163,13.265,13.517,20.324c1.374,2.227,4.028,2.3,5.925,0.763
		c8.31-6.731,14.576-15.755,20.408-24.649c0.896,0.519,1.796,1.032,2.69,1.557c0.931,0.547,1.917,1.232,2.933,1.923
		C79.868,57.811,69.308,73.674,65.915,91.642z M105.004,138.216c4.522-30.442,5.452-61.774,9.477-92.354
		c29.543-1.143,47.545,23.978,47.539,52.543C162.013,132.519,130.798,135.13,105.004,138.216z"/>
	<path d="M147.74,77.546c-0.058-0.082-0.136-0.132-0.199-0.206c-2.902-9.886-9.678-17.948-20.825-20.274
		c-2.366-0.494-4.254,1.029-4.451,3.391c-1.729,20.643-5.589,41.085-5.442,61.863c0.004,0.52,0.122,0.946,0.303,1.309
		c-0.057,1.841,1.185,3.875,3.354,3.907c11.613,0.181,21.28-5.797,26.931-15.825C152.485,102.701,153.866,86.311,147.74,77.546z"/>
</g>
<g>
</g>
<g>
</g>
<g>
</g>
<g>
</g>
<g>
</g>
<g>
</g>
<g>
</g>
<g>
</g>
<g>
</g>
<g>
</g>
<g>
</g>
<g>
</g>
<g>
</g>
<g>
</g>
<g>
</g>
</svg>
