<?xml version="1.0" encoding="iso-8859-1"?>
<!-- Generator: Adobe Illustrator 16.0.0, SVG Export Plug-In . SVG Version: 6.00 Build 0)  -->
<!DOCTYPE svg PUBLIC "-//W3C//DTD SVG 1.1//EN" "http://www.w3.org/Graphics/SVG/1.1/DTD/svg11.dtd">
<svg version="1.1" id="Capa_1" xmlns="http://www.w3.org/2000/svg" xmlns:xlink="http://www.w3.org/1999/xlink" x="0px" y="0px"
	 width="184.314px" height="184.314px" viewBox="0 0 184.314 184.314" style="enable-background:new 0 0 184.314 184.314;"
	 xml:space="preserve">
<g>
	<path d="M162.439,26.417C145.863,10.488,120.259,7.629,98.608,4.748c-1.658-0.221-2.945,0.447-3.831,1.52
		C75.98,0.617,48.274,8.482,33.671,17.157c-21.613,12.84-29.78,40.259-32.728,63.54c-2.908,22.959,0.506,50.295,15.871,68.581
		c16.751,19.935,41.678,28.127,66.937,30.229c24.327,2.025,49.549-2.617,69.081-17.706c19.923-15.393,28.734-41.479,30.994-65.619
		C186.108,71.783,180.618,43.887,162.439,26.417z M77.461,133.562c-1.138-2.747-3.162-5.643-4.014-7.503
		c-2.531-5.531-4.811-11.181-7.529-16.625c-0.892-1.786-3.675-2.105-4.994-0.645c-5.041,5.589-9.983,11.291-13.374,18.043
		c-1.24-1.72-2.487-3.436-3.715-5.164c-1.346-1.894-2.752-3.802-4.23-5.616c8.6-7.925,16.777-18.023,19.589-28.961
		c3.702-14.402-11.339-32.99-18.332-44.411c0.95-0.451,1.902-0.896,2.85-1.35c2.654-1.269,5.234-2.733,7.82-4.134
		c0.663-0.359,1.406-0.723,2.139-1.124c-0.045,0.069-0.088,0.14-0.102,0.223c-0.007,0.04-0.013,0.08-0.02,0.121
		c-0.083,0.506,0.233,0.825,0.604,0.921c0.01,0.025,0.02,0.049,0.03,0.074c-0.238,0.18-0.461,0.393-0.548,0.683
		c-0.19,0.636,0.051,1.223,0.237,1.823c0.742,2.389,1.627,4.733,2.51,7.072c1.605,4.25,3.295,8.703,5.696,12.576
		c1.327,2.14,4.409,2.151,5.734,0c4.135-6.715,8.732-13.074,13.405-19.404c1.473,2.978,3.412,5.757,5.211,8.502
		c-8.619,11.091-14.357,23.08-13.674,37.57c0.611,12.948,7.309,26.613,15.396,37.021C84.238,126.165,80.682,129.723,77.461,133.562z
		 M124.52,90.604c-1.19,0.241-2.232,1.118-2.256,2.717c-0.174,12.296,1.289,24.681-0.478,36.891
		c-0.593-0.123-1.236-0.136-1.935,0.007c-3.206,0.659-6.55,0.752-9.824,0.49c3.143-29.683-1.048-59.635,1.774-89.374
		c0.255-0.055,0.514-0.132,0.777-0.255c15.746-7.343,30.812-2.157,36.53,14.78c2.389,7.072,1.898,13.397-0.604,18.617
		c-1.628,2.877-3.776,5.558-6.338,7.951c-4.203,3.414-9.693,5.723-15.907,6.598C125.279,89.165,124.738,89.82,124.52,90.604z"/>
	<path d="M138.759,58.304c-0.888-3.503-5.083-7.348-8.889-7.758c-0.317-0.133-0.683-0.215-1.144-0.193
		c-6.032,0.29-4.905,11.17-3.906,17.319c-1.684,2.646,1.849,6.767,4.754,4.695c2.3-1.641,4.132-3.631,5.599-5.881
		c0.568-0.454,1.101-0.955,1.555-1.522C138.383,63.126,139.407,60.861,138.759,58.304z"/>
</g>
<g>
</g>
<g>
</g>
<g>
</g>
<g>
</g>
<g>
</g>
<g>
</g>
<g>
</g>
<g>
</g>
<g>
</g>
<g>
</g>
<g>
</g>
<g>
</g>
<g>
</g>
<g>
</g>
<g>
</g>
</svg>
