<?xml version="1.0" encoding="iso-8859-1"?>
<!-- Generator: Adobe Illustrator 16.0.0, SVG Export Plug-In . SVG Version: 6.00 Build 0)  -->
<!DOCTYPE svg PUBLIC "-//W3C//DTD SVG 1.1//EN" "http://www.w3.org/Graphics/SVG/1.1/DTD/svg11.dtd">
<svg version="1.1" id="Capa_1" xmlns="http://www.w3.org/2000/svg" xmlns:xlink="http://www.w3.org/1999/xlink" x="0px" y="0px"
	 width="193.744px" height="193.744px" viewBox="0 0 193.744 193.744" style="enable-background:new 0 0 193.744 193.744;"
	 xml:space="preserve">
<g>
	<path d="M153.486,43.737c-7.968-24.846-37.74-30.303-60.072-26.478C67.76,21.655,42.996,44.237,49.538,72.432
		c3.004,12.947,10.909,18.645,19.995,27.528c6.472,6.328,8.127,13.463,8.89,22.062c0.229,2.591,0.311,5.312,1.483,7.591
		c-6.559,0.962-15.928,4.426-9.352,11.396c1.297,1.375,2.949,2.477,4.744,3.444c-4.969,3.491-6.672,9.641-2.491,14.974
		c1.189,1.517,2.619,2.809,4.17,3.964c-3.636,0.819-6.599,1.757-8.786,5.971c-1.8,3.468-1.015,7.404,1.396,10.34
		c6.345,7.726,18.73,9.749,28.01,10.917c10.171,1.28,23.339,1.288,31.957-5.146c8.94-6.673,5.74-17.675,0.022-25.37
		c1.721-3.689,2.229-7.979,1.13-11.871c0.084-0.045,0.177-0.07,0.26-0.115c7.877-4.34,3.839-14.711-2.451-18.828
		c-0.021-0.776-0.267-1.573-0.724-2.244c1.561-0.625,2.813-2.164,2.412-4.265c-3.324-17.383,10.369-27.535,19.17-40.489
		C157.167,70.822,157.61,56.598,153.486,43.737z M56.429,70.904c1.163,3.505,2.66,6.692,4.493,9.632
		c0.002,0.564,0.126,1.145,0.562,1.719c0.82,1.078,1.636,2.156,2.452,3.233C59.831,81.353,57.424,76.299,56.429,70.904z
		 M146.48,46.234c-0.214-0.369-0.434-0.726-0.661-1.082c-0.116-0.637-0.385-1.278-0.893-1.887c-0.51-0.608-1.058-1.16-1.581-1.748
		c-0.097-0.137-0.207-0.292-0.299-0.424c-2.107-3.018-4.508-5.92-7.193-8.515C140.502,36.297,144.188,40.927,146.48,46.234z
		 M121.849,25.111c-0.41,0.201-0.768,0.495-1.096,0.827c-0.209-0.086-0.417-0.194-0.626-0.252c-0.005-0.003-0.008-0.007-0.013-0.009
		c-0.689-0.248-1.392-0.506-2.123-0.297c-0.024,0.007-0.042,0.031-0.067,0.039c-1.716-0.921-3.445-1.722-5.2-2.294
		C115.868,23.488,118.921,24.17,121.849,25.111z M108.452,126.173c0.066-0.288,0.085-0.589,0.132-0.883
		c0.511-0.272,0.908-0.766,0.934-1.539c0.616-18.685-4.932-58.739,15.278-69.464c0.44,0.071,0.884,0.138,1.326,0.21
		c0.003,0.018,0.004,0.036,0.007,0.053c-1.166,4.979-1.134,9.87-0.064,14.75c-2.598,19.017-13.242,38.068-12.968,57.256
		c-1.629,0.083-3.259,0.153-4.886,0.219C108.303,126.589,108.398,126.402,108.452,126.173z M91.661,64.959
		c0.234,0.032,0.475,0.086,0.695,0.072c0.045,0.819,0.052,1.646,0.107,2.465c-0.083,1.617-0.137,3.24-0.172,4.868
		c-0.602-0.899-1.237-1.759-1.886-2.606C91.875,68.779,92.602,66.693,91.661,64.959z M73.353,64.562
		c2.402,2.995,4.811,5.986,7.099,9.078c1.23,1.663,3.656,1.793,5.217,0.889c3.641,5.006,6.288,11.025,8.379,16.761
		c-0.121,1.024-0.259,2.041-0.368,3.069c-0.169,1.592,0.747,2.666,1.969,3.175c0.157,0.406,0.39,0.731,0.657,1.017
		c2.101,9.191,2.516,21.389,7.381,28.246c0.035,0.049,0.083,0.081,0.12,0.127c-3.277,0.072-6.765-0.077-10.121,0.177
		c0.271-0.256,0.509-0.567,0.659-1.003C102.788,101.659,82.218,85.058,73.353,64.562z M90.137,122.943
		c-0.038-0.6-0.068-1.199-0.096-1.799c-0.009-3.359-0.019-6.72-0.03-10.078C90.707,114.806,90.775,118.754,90.137,122.943z
		 M123.953,180.914c-6.819,4.037-16.354,3.64-23.937,3.032c-7.795-0.625-16.312-2.418-22.983-6.674
		c-5.405-3.447-1.121-8.67,2.491-12.202c5.147,3.009,11.349,4.632,16.882,5.556c8.996,1.503,19.307,1.308,27.271-3.643
		c0.54-0.336,1.024-0.745,1.513-1.146C128.266,171.167,130.509,177.033,123.953,180.914z M79.078,146.166
		c6.538,2.431,14.398,3.294,20.062,4.045c7.521,0.997,16.77,2.16,24.794,0.429c0.266,4.797,0.066,8.599-5.542,11.638
		c-5.856,3.174-13.844,2.807-20.211,1.912C88.215,162.788,71.995,157.983,79.078,146.166z M125.459,143.051
		c-7.491,2.519-16.516,1.48-24.195,0.615c-7.826-0.881-16.335-2.352-23.5-5.771c-0.858-0.41-1.728-0.885-2.451-1.509
		c1.889-2.004,5.192-3.057,7.795-4.115c2.271,0.01,4.237-3.099,2.354-5.46c-0.164-0.206-0.297-0.438-0.429-0.67
		c0.425,0.304,0.915,0.479,1.432,0.554c0.091,0.464,0.164,0.938,0.259,1.398c0.118,0.569,0.396,0.944,0.749,1.163
		c-0.782,1.573-0.217,3.808,1.792,4.309c5.447,1.357,12.004,0.441,17.563,0.354c5.351-0.084,10.783-0.337,16.11-1.063
		C125.284,136.533,132.17,140.794,125.459,143.051z"/>
	<path d="M176.391,2.473c-3.75,0.366-6.142,3.834-8.532,6.409c-3.194,3.443-6.875,7.228-8.989,11.457
		c-1.416,2.832,1.977,5.515,4.358,3.363c3.17-2.862,5.883-6.282,8.969-9.256c2.102-2.026,4.916-3.374,6.895-5.455
		C181.196,6.779,179.891,2.132,176.391,2.473z"/>
	<g>
		<path d="M193.625,43.011c-1.16-3.898-5.167-3.182-8.284-2.746c-3.756,0.525-7.522,1.361-11.04,2.794
			c-3.491,1.423-2.26,6.693,1.592,5.774c2.939-0.701,5.925-1.295,8.931-1.619c1.096-0.118,2.28-0.259,3.379-0.095
			c0.594,0.089,1.177,0.189,1.775,0.17c0.012-0.001,0.861-0.175,1.406-0.285C193.074,46.617,194.106,44.627,193.625,43.011z"/>
		<path d="M191.384,47.005c-0.014,0.003-0.022,0.016-0.037,0.018C192.103,46.862,191.855,46.91,191.384,47.005z"/>
	</g>
	<path d="M185.185,103.992c0.702,0.501-0.203-0.309-0.247-0.351c-0.732-0.703-1.477-1.086-2.435-1.396
		c-1.621-0.528-3.126-1.415-4.604-2.253c-3.437-1.95-6.813-4.006-10.191-6.055c-2.803-1.7-5.049,2.448-2.513,4.299
		c3.438,2.509,6.884,5.008,10.406,7.398c2.542,1.726,5.521,4.938,8.899,3.583C186.863,108.272,187.306,105.506,185.185,103.992z"/>
	<path d="M49.432,25.595c-3.666-5.457-9.646-10.198-14.929-14.01c-2.052-1.48-4.274-2.771-6.885-2.12
		c-3.13,0.782-3.649,4.502-1.968,6.812c0.974,1.339,2.943,1.745,4.203,0.894c1.911,0.955,3.668,2.306,5.38,3.567
		c3.625,2.67,6.833,5.992,10.586,8.471C48,30.648,50.9,27.78,49.432,25.595z"/>
	<path d="M33.731,49.641c-5.358-1.108-10.415-2.097-15.904-2.669c-2.97-0.31-5.939-0.654-8.888-1.126
		c-0.278-0.045-0.566-0.104-0.857-0.17c-0.501-0.675-1.283-1.162-2.426-1.163c-2.917-0.005-6.46,1.236-5.495,4.949
		c0.835,3.21,5.121,3.59,7.765,3.861c8.726,0.894,17.226,0.98,25.805-0.697C35.224,52.334,35.206,49.946,33.731,49.641z"/>
	<path d="M35.992,86.317c-4.577,1.592-9.002,3.588-13.593,5.155c-3.513,1.2-8.495,1.31-11.448,3.569
		c-1.912,1.463-2.202,4.136,0,5.548c3.702,2.375,8.491-0.064,12.143-1.48c5.188-2.012,10.524-4.312,15.179-7.383
		C40.953,89.959,39.307,85.163,35.992,86.317z"/>
</g>
<g>
</g>
<g>
</g>
<g>
</g>
<g>
</g>
<g>
</g>
<g>
</g>
<g>
</g>
<g>
</g>
<g>
</g>
<g>
</g>
<g>
</g>
<g>
</g>
<g>
</g>
<g>
</g>
<g>
</g>
</svg>
