<?xml version="1.0" encoding="iso-8859-1"?>
<!-- Generator: Adobe Illustrator 16.0.0, SVG Export Plug-In . SVG Version: 6.00 Build 0)  -->
<!DOCTYPE svg PUBLIC "-//W3C//DTD SVG 1.1//EN" "http://www.w3.org/Graphics/SVG/1.1/DTD/svg11.dtd">
<svg version="1.1" id="Capa_1" xmlns="http://www.w3.org/2000/svg" xmlns:xlink="http://www.w3.org/1999/xlink" x="0px" y="0px"
	 width="185.493px" height="185.493px" viewBox="0 0 185.493 185.493" style="enable-background:new 0 0 185.493 185.493;"
	 xml:space="preserve">
<g>
	<path d="M101.37,0.065C77.785-1.064,56.667,12.548,53.871,37.093c-1.738,15.27,1.771,29.773,7.354,43.939
		c4.526,11.485,11.937,27.501,21.075,36.093c0.403,0.38,0.943,0.648,1.513,0.834c0.324,0.492,0.791,0.845,1.378,1.073
		c1.029,0.944,2.332,1.246,3.693,1.309c0.905,0.042,2.129-0.559,2.497-1.433c0.062-0.143,0.113-0.284,0.171-0.425
		c0.482-0.216,0.963-0.524,1.422-0.978c20.265-20.023,40.427-44.547,41.464-74.214C135.131,23.502,123.21,1.109,101.37,0.065z
		 M105.901,41.562c-2.206,9.904-11.317,14.315-20.282,9.324c-11.883-6.615-3.927-29.496,8.712-30.457
		c0.347,0.433,0.776,0.819,1.371,1.09C104.44,25.502,108.09,31.733,105.901,41.562z"/>
	<path d="M180.125,178.805c-0.85-24.938-8.888-48.863-14.161-73.088c-4.292-19.723-21.347-16.975-37.771-16.976
		c-2.595,0-3.6,2.02-3.267,3.9c-5.57,6.853-11.333,13.546-17.466,19.905c-1.433,1.322-2.835,2.676-4.183,4.079
		c-3.135,2.895-6.449,5.587-9.985,7.984c-7.468,5.062-11.329,3.325-16.066-3.233c-2.357-3.263-9.399-19.535-15.817-25.428
		c-0.471-1.348-1.016-2.671-1.636-3.939c-0.624-1.275-1.868-1.466-2.904-1.03c-0.347-0.201-0.758-0.348-1.246-0.406
		c-12.902-1.528-25.963-2.415-31.678,11.523c-4.886,11.92-8.161,24.719-11.791,37.067c-2.338,7.955-5.08,16.403-6.498,24.854
		c-0.646,1.233-0.839,2.747-0.571,4.142c-0.248,2.254-0.417,4.505-0.396,6.739c0.009,0.911,0.338,1.628,0.812,2.19
		c0.072,1.144,0.688,2.249,1.984,2.592c25.258,6.695,51.098,3.97,76.916,3.17c30.788-0.954,61.427,1.8,92.167,2.506
		c0.035,0.001,0.064-0.008,0.099-0.008c1.316,0.442,2.931-0.136,3.39-1.58C181.04,182.385,181.047,180.371,180.125,178.805z"/>
</g>
<g>
</g>
<g>
</g>
<g>
</g>
<g>
</g>
<g>
</g>
<g>
</g>
<g>
</g>
<g>
</g>
<g>
</g>
<g>
</g>
<g>
</g>
<g>
</g>
<g>
</g>
<g>
</g>
<g>
</g>
</svg>
