<?xml version="1.0" encoding="iso-8859-1"?>
<!-- Generator: Adobe Illustrator 16.0.0, SVG Export Plug-In . SVG Version: 6.00 Build 0)  -->
<!DOCTYPE svg PUBLIC "-//W3C//DTD SVG 1.1//EN" "http://www.w3.org/Graphics/SVG/1.1/DTD/svg11.dtd">
<svg version="1.1" id="Capa_1" xmlns="http://www.w3.org/2000/svg" xmlns:xlink="http://www.w3.org/1999/xlink" x="0px" y="0px"
	 width="195.352px" height="195.352px" viewBox="0 0 195.352 195.352" style="enable-background:new 0 0 195.352 195.352;"
	 xml:space="preserve">
<g>
	<path d="M177.107,156.423c-0.243-18.282-1.67-36.649-0.536-54.922c0.149-2.396-2.153-4.551-4.487-4.487
		c-7.2,0.196-14.394,0.201-21.584,0.122c5.123-5.975,0.511-28.098-0.104-32.148c-3.526-23.247-11.625-48.22-33.091-60.64
		C97.457-7.137,76.239,5.997,64.426,22.046C50.764,40.611,45.333,69.71,51.862,91.782c-8.454-0.098-16.806,0.375-24.824,1.961
		c-1.966-1.237-5.203,0.403-4.667,3.396c5.451,30.458-4.18,61.862-4.783,92.41c-0.048,2.392,1.992,4.234,4.298,4.298
		c48.085,1.317,98.852-14.171,145.677,1.31c2.116,0.7,3.878-0.581,4.651-2.298c0.543-0.306,1.066-0.707,1.51-1.343
		C179.831,182.758,177.239,166.349,177.107,156.423z M38.903,185.091c0.664-0.329,1.324-0.669,1.976-1.028
		c1.115,0.081,2.235,0.209,3.348,0.268c1.544,0.113,3.088,0.218,4.632,0.321C45.542,184.841,42.224,184.981,38.903,185.091z
		 M120.52,133.378c-1.411,6.492-7.757,4.593-12.067,7.026c-0.867,0.489-1.286,1.239-1.379,2.036
		c-0.472,0.549-0.744,1.28-0.619,2.222c0.968,7.259,0.235,14.326-0.008,21.553c-2.751,0.679-5.68,0.801-8.553,0.821
		c0.042-7.769,0.29-16.307-2.193-23.455c-0.554-1.596-1.957-2.371-3.606-2.048c-0.218,0.043-0.357,0.142-0.532,0.216
		c0.229-0.811,0.1-1.69-0.622-2.266c-6.661-5.312-7.972-11.459-1.56-17.614c6.449-6.191,15.927-6.145,23.441-2.207
		C117.744,122.241,121.771,127.622,120.52,133.378z M83.008,103.212c3.022,0.112,6.027,0.243,8.994,0.428
		c3.38,0.211,6.759,0.397,10.139,0.594c-0.186,0.214-0.295,0.471-0.424,0.72C95.479,104.407,89.243,103.801,83.008,103.212z
		 M98.71,95.061c-9.428-0.57-19.288-1.636-29.213-2.405c0.173-16.752,6.115-64.077,26.269-66.856
		c0.128,0.012,0.219,0.071,0.355,0.072c1.336-0.054,2.666-0.044,3.993,0.009c2.161,0.36,4.45,1.151,6.901,2.528
		c11.948,6.716,14.23,27.437,16.043,39.458c1.402,9.308,1.229,19.226,3.004,28.548C116.946,96.051,107.829,95.612,98.71,95.061z
		 M166.708,119.891c-0.129-2.292-0.24-4.585-0.386-6.878c0.23-0.26,0.427-0.546,0.586-0.857c0.116-0.043,0.239-0.077,0.348-0.13
		c-0.027,2.696-0.026,5.395,0.007,8.094C167.083,120.025,166.898,119.964,166.708,119.891z"/>
</g>
<g>
</g>
<g>
</g>
<g>
</g>
<g>
</g>
<g>
</g>
<g>
</g>
<g>
</g>
<g>
</g>
<g>
</g>
<g>
</g>
<g>
</g>
<g>
</g>
<g>
</g>
<g>
</g>
<g>
</g>
</svg>
