<?xml version="1.0" encoding="iso-8859-1"?>
<!-- Generator: Adobe Illustrator 16.0.0, SVG Export Plug-In . SVG Version: 6.00 Build 0)  -->
<!DOCTYPE svg PUBLIC "-//W3C//DTD SVG 1.1//EN" "http://www.w3.org/Graphics/SVG/1.1/DTD/svg11.dtd">
<svg version="1.1" id="Capa_1" xmlns="http://www.w3.org/2000/svg" xmlns:xlink="http://www.w3.org/1999/xlink" x="0px" y="0px"
	 width="188.654px" height="188.654px" viewBox="0 0 188.654 188.654" style="enable-background:new 0 0 188.654 188.654;"
	 xml:space="preserve">
<g>
	<path d="M102.437,2.141C56.041-2.573,80.91,60.287,92.161,80.395c1.002,1.79,3.275,0.64,3.257-1.092
		c1.144,0.006,2.297-0.453,3.002-1.536C109.238,61.163,140.028,5.96,102.437,2.141z M98.618,11.918
		c2.934,2.387,6.808,1.725,6.78,6.679c-0.019,3.452-2.335,7.018-5.173,8.833c-4.003,2.561-8.608-1.012-10.091-4.876
		C88.424,18.098,93.96,14.284,98.618,11.918z"/>
	<path d="M188.47,179.308c-0.661-18.346-3.715-36.354-5.639-54.593c-2.133-20.221-2.899-40.519-3.042-60.84
		c-0.007-0.989-0.332-1.758-0.827-2.332c-0.366-2.454-2.799-3.428-4.805-2.902c-0.568-0.547-1.349-0.917-2.366-0.939
		c-16.275-0.346-34.018-3.178-50.089-0.461c-1.035,0.175-1.548,0.936-1.658,1.791c-0.381,0.196-0.737,0.447-1.007,0.819
		c-7.961,10.955-12.61,25.089-24.104,33.182c-10.213,7.193-16.851-25.96-17.166-32.628c-0.074-1.567-1.702-2.452-2.987-2.205
		c-14.676-3.431-31.185-2.947-46.154-3.054c-0.741-0.005-1.349,0.191-1.848,0.501c-0.489,0.018-0.996,0.191-1.456,0.586
		c-4.612,3.956-6.514,9.978-7.487,16.231c-3.587,13.04-4.384,27.78-6.506,40.235c-3.43,20.13-7.09,40.206-11.215,60.206
		c-0.611,2.964,1.28,5.266,4.219,5.539c36.05,3.341,72.284,2.43,108.35,5.468c14.875,1.253,29.702,1.697,44.606,2.274
		c9.291,0.358,20.258,1.837,29.005-2.015C188.464,183.218,188.986,181.174,188.47,179.308z M78.687,127.48
		c-1.222-1.202-8.9-10.29-12.772-12.957c2.058-0.954,4.159-2.86,5.61-3.819c1.344-0.887,2.717-1.729,4.109-2.539
		c2.632,4.649,5.899,9.111,9.75,12.617c1.347,1.226,3.133,1.174,4.485,0c6.101-5.297,11.269-11.498,16.756-17.398
		c0.351-0.378,0.588-0.778,0.733-1.185c1.612,2.071,3.111,4.201,4.606,6.356c-2.014,2.092-3.786,4.68-5.436,6.66
		c-2.64,3.172-5.034,6.583-6.315,10.537c-0.245,0.755-0.104,1.354,0.221,1.807c0.061,0.369,0.189,0.744,0.485,1.113
		c1.759,2.189,3.716,4.157,5.696,6.146c1.779,1.787,3.444,3.844,5.418,5.437c-0.256,0.258-0.519,0.507-0.807,0.719
		c-1.546,1.137-3.466,1.999-5.382,2.223c-0.478,0.056-0.849,0.239-1.17,0.465c-4.401-3.237-8.146-7.248-12.361-10.722
		c-1.553-1.279-3.463-1.052-4.634,0.597c-2.478,3.488-6.216,6.171-9.097,9.33c-0.82,0.9-0.878,1.901-0.506,2.703
		c-4.538-0.088-9.082-0.187-13.636-0.268c4.776-4.352,9.682-8.562,14.244-13.145C79.95,130.888,79.974,128.746,78.687,127.48z"/>
</g>
<g>
</g>
<g>
</g>
<g>
</g>
<g>
</g>
<g>
</g>
<g>
</g>
<g>
</g>
<g>
</g>
<g>
</g>
<g>
</g>
<g>
</g>
<g>
</g>
<g>
</g>
<g>
</g>
<g>
</g>
</svg>
