<?xml version="1.0" encoding="iso-8859-1"?>
<!-- Generator: Adobe Illustrator 16.0.0, SVG Export Plug-In . SVG Version: 6.00 Build 0)  -->
<!DOCTYPE svg PUBLIC "-//W3C//DTD SVG 1.1//EN" "http://www.w3.org/Graphics/SVG/1.1/DTD/svg11.dtd">
<svg version="1.1" id="Capa_1" xmlns="http://www.w3.org/2000/svg" xmlns:xlink="http://www.w3.org/1999/xlink" x="0px" y="0px"
	 width="184.542px" height="184.542px" viewBox="0 0 184.542 184.542" style="enable-background:new 0 0 184.542 184.542;"
	 xml:space="preserve">
<g>
	<path d="M99.286,36.125c-4.693,0.01-11.445-1.057-15.27,0.892c-1.232-4.022-3.154-7.711-5.555-11.02
		c0.998-0.376,1.81-1.274,1.901-2.714c0.041-0.651,0.002-1.224-0.057-1.774c1.416-2.461,2.432-5.163,2.936-6.869
		c0.485-1.641-0.583-2.944-2.006-3.534c-7.999-3.312-15.518-7.65-23.521-10.963c-1.138-0.471-2.68,0.294-3.231,1.315
		c-1.556,2.882-2.315,5.89-2.621,9.046c-2.433-0.26-4.92-0.311-7.452-0.083c-1.312,0.118-2.19,0.837-2.726,1.743
		c-1.426,0.121-2.77,0.377-4.073,0.697c-0.06-0.141-0.066-0.276-0.152-0.42c-2.637-4.406-7.685-6.644-11.366-10.037
		c-0.912-0.841-2.44-1.22-3.539-0.457c-3.64,2.53-6.87,5.523-9.858,8.791c-2.048,2.24-5.685,6.146-5.685,9.41
		c0,3.731,6.083,7.691,8.76,9.688c1.018,0.76,2.1,1.29,3.208,1.719c-1.003,3.028-1.673,6.245-1.975,9.557
		c-4.683-0.149-9.374,2.294-13.294,4.683c-1.237,0.753-1.591,2.007-1.37,3.366c1.468,9.029,3.047,18.063,6.306,26.644
		c0.629,1.657,2.626,2.915,4.326,1.76c2.736-1.859,5.407-2.887,8.616-3.55c1.453-0.3,2.803-0.731,4.137-1.179
		c3.153,3.985,7.121,7.246,11.936,9.314c-2.331,4.126-2.438,11.224-2.506,14.823c-0.031,1.638,1.382,2.97,2.985,2.983
		c8.12,0.076,16.217,1.4,24.271-0.255c1.503-0.309,2.378-2.073,1.977-3.482c-0.739-2.598-1.322-5.158-2.259-7.739
		c-0.594-1.635-1.095-3.49-1.934-5.019c-0.04-0.073-0.074-0.104-0.112-0.168c10.487-3.051,18.794-10.934,22.859-21.031
		c3.471,0.668,6.963,0.875,10.149,2.77c1.298,0.771,3.348,0.385,4.041-1.059c3.76-7.84,4.902-16.386,4.99-25.009
		C102.137,37.417,100.819,36.122,99.286,36.125z M56.862,56.366c-4.696,2.455-11.788-1.798-13.102-6.435
		c-0.892-3.147,0.433-5.897,2.594-8.078c0.482,0.107,0.995,0.121,1.505,0.023c1.177-0.227,1.938-0.833,2.767-1.559
		c0.614-0.329,1.136-0.831,1.457-1.437c4.609,0.809,8.394,2.665,9.519,7.601C62.495,50.395,60.303,54.567,56.862,56.366z"/>
	<path d="M181.882,106.407c-4.276-8.308-9.052-16.378-12.702-24.993c-0.691-1.633-2.914-1.685-4.191-0.764
		c-0.764-0.511-1.779-0.658-2.782-0.115c-3.536,1.915-6.808,5.735-9.062,9.162c-2.539-2.612-5.276-4.999-8.213-7.025
		c2.129-3.309,3.147-8.62,4.163-11.587c0.394-1.148-0.228-2.709-1.321-3.249c-8.908-4.397-18.162-8.202-28.064-8.339
		c-1.109-0.583-2.344-0.443-3.322,0.131c-0.476,0.034-0.945,0.022-1.424,0.075c-1.141,0.125-2.468,0.745-2.68,2.04
		c-0.797,4.87-0.893,9.698,0.969,13.841c-3.959,0.869-7.934,2.372-11.859,4.728c-1.623-1.533-3.265-3.043-4.214-5.238
		c-0.629-1.455-2.433-1.723-3.784-1.164c-0.892-0.283-1.912-0.204-2.799,0.17c-7.516,3.176-14.49,8.63-20.243,14.346
		c-1.05,1.043-1.195,2.627-0.504,3.902c0.476,0.878,0.987,1.688,1.516,2.461c0.157,0.536,0.496,1.024,1.032,1.419
		c1.301,1.607,2.786,2.901,4.514,3.837c0.664,0.695,1.324,1.394,2.015,2.055c-3.578,5.767-5.654,12.581-6.296,19.559
		c-0.373-0.129-0.755-0.242-1.158-0.289c-4.577-0.532-9.264-0.005-13.772,0.862c-1.635,0.313-2.582,2.268-2.148,3.783
		c3.113,10.865,6.142,21.729,7.872,32.916c0.299,1.934,2.94,2.781,4.469,1.817c4.292-2.707,8.921-4.851,12.756-8.036
		c3.872,5.799,8.631,10.272,13.958,13.527c-2.126,2.721-3.353,6.159-4.266,9.961c-0.365,1.52,0.464,2.925,1.933,3.405
		c9.422,3.078,19.043,4.772,28.958,4.938c1.627,0.027,2.847-1.343,2.903-2.902c0.115-3.155,0.525-6.255,0.61-9.349
		c6.552-0.808,13.191-2.889,19.645-6.079c1.766,5.234,5.602,9.063,12.104,10.486c1.692,0.37,3.126-0.493,3.696-2.1
		c3.217-9.042,7.582-17.385,14.998-23.668c1.088-0.923,1.123-2.674,0.39-3.856c1.131-1.71-0.095-3.788-1.808-4.396
		c-1.908-0.678-3.776-1.579-5.646-2.486c2.246-7.53,2.104-15.554,0.213-23.32c4.131-2.043,8.312-4.185,12.447-6.287
		C182.328,109.801,182.61,107.818,181.882,106.407z M127.022,139.014c-7.832,3.084-18.812-3.638-19.084-12.007
		c-0.24-7.444,7.477-14.556,14.61-16.021c6.286,2.204,10.782,6.115,11.702,13.119C135.003,129.831,132.774,136.749,127.022,139.014z
		 M155.184,148.42c1.241-1.315,2.434-2.703,3.553-4.195c-2.121,3.974-5.072,7.724-8.959,11.116
		C151.643,153.168,153.417,150.826,155.184,148.42z M149.684,163.366c0.106-0.066,0.201-0.137,0.307-0.204
		c0.254,0.374,0.55,0.713,0.91,0.968c0.287,0.437,0.746,0.698,1.319,0.673c0.642,0.171,1.646,0.324,2.38,0.418
		c0.026,0.003,0.062,0.012,0.094,0.018c-0.33,0.419-0.646,0.846-0.978,1.264C152.38,165.44,151.034,164.4,149.684,163.366z"/>
</g>
<g>
</g>
<g>
</g>
<g>
</g>
<g>
</g>
<g>
</g>
<g>
</g>
<g>
</g>
<g>
</g>
<g>
</g>
<g>
</g>
<g>
</g>
<g>
</g>
<g>
</g>
<g>
</g>
<g>
</g>
</svg>
