<?xml version="1.0" encoding="iso-8859-1"?>
<!-- Generator: Adobe Illustrator 16.0.0, SVG Export Plug-In . SVG Version: 6.00 Build 0)  -->
<!DOCTYPE svg PUBLIC "-//W3C//DTD SVG 1.1//EN" "http://www.w3.org/Graphics/SVG/1.1/DTD/svg11.dtd">
<svg version="1.1" id="Capa_1" xmlns="http://www.w3.org/2000/svg" xmlns:xlink="http://www.w3.org/1999/xlink" x="0px" y="0px"
	 width="193.103px" height="193.104px" viewBox="0 0 193.103 193.104" style="enable-background:new 0 0 193.103 193.104;"
	 xml:space="preserve">
<g>
	<path d="M148.065,144.046c-0.337-11.433-0.802-22.86-1.202-34.291c-0.767-21.868-1.307-43.745-1.185-65.627
		c1.431-1.534,1.871-4,0.015-6.105c-0.203-0.23-0.43-0.446-0.638-0.673c-0.153-0.2-0.309-0.388-0.506-0.533
		c-8.498-8.935-21.149-14.945-34.851-17.662c1.579-3.854,2.335-7.918,3.946-11.77c0.939-2.242-1.004-4.534-2.966-5.224
		c-10.479-3.687-22.432-2.55-32.253,2.58c-1.571,0.821-2.309,2.857-1.839,4.519c0.925,3.273,1.187,6.393,2.112,9.449
		c-12.498,2.197-23.926,7.427-31.845,15.988c-1.144,0.174-2.149,0.998-2.169,2.602c-0.034,2.646,0.025,5.289,0.038,7.934
		c-0.35,1.054-0.322,2.222,0.016,3.293c0.451,39.608,5.416,79.073,4.833,118.77c-0.034,2.328,1.629,3.5,3.39,3.569
		c-0.104,0.709,0.012,1.457,0.511,2.061c12.86,15.572,35.494,21.136,54.884,20.045c14.014-0.788,33.986-9.962,37.11-25.108
		c0.714-0.28,1.347-0.854,1.684-1.769C149.648,159.313,148.275,151.176,148.065,144.046z M63.292,173.434
		c0.396-0.448,0.722-0.962,0.879-1.552c1.127,1.546,2.375,2.982,3.863,4.184C66.414,175.242,64.848,174.342,63.292,173.434z
		 M73.127,178.456c0.433-0.071,0.823-0.253,1.187-0.479c1.528,0.997,3.088,1.905,4.68,2.707
		C77.013,180.009,75.05,179.277,73.127,178.456z M122.17,180.903c-3.365,1.549-7.001,2.52-10.717,3.044
		c4.227-1.192,8.284-3.09,12.091-5.58c0.096,0.205,0.211,0.402,0.341,0.588L122.17,180.903z M129.924,161.004
		c-14.96,22.461-39.463,19.252-60.606,6.495c-8.444-11.288-6.293-34.397-6.075-45.977c0.075-3.953,0.25-7.904,0.455-11.856
		c7.774,9.51,21.753,14.146,33.481,15.167c10.16,0.885,28.419,0.495,36.152-8.444C133.362,131.431,132.802,146.355,129.924,161.004z
		 M138.384,45.063c-0.072-0.718-0.27-1.378-0.559-1.975c0.403,0.34,0.838,0.644,1.232,0.995c-0.077,1.222-0.123,2.445-0.188,3.667
		c-0.094-0.041-0.188-0.081-0.285-0.118C138.515,46.776,138.47,45.92,138.384,45.063z M139.985,155.354
		c-0.319-0.438-0.73-0.794-1.176-1.099c0.322-2.433,0.58-4.775,0.821-6.928c0.158-1.411,0.26-2.825,0.386-4.237
		C140.004,147.047,139.82,151.247,139.985,155.354z"/>
</g>
<g>
</g>
<g>
</g>
<g>
</g>
<g>
</g>
<g>
</g>
<g>
</g>
<g>
</g>
<g>
</g>
<g>
</g>
<g>
</g>
<g>
</g>
<g>
</g>
<g>
</g>
<g>
</g>
<g>
</g>
</svg>
