<?xml version="1.0" encoding="iso-8859-1"?>
<!-- Generator: Adobe Illustrator 16.0.0, SVG Export Plug-In . SVG Version: 6.00 Build 0)  -->
<!DOCTYPE svg PUBLIC "-//W3C//DTD SVG 1.1//EN" "http://www.w3.org/Graphics/SVG/1.1/DTD/svg11.dtd">
<svg version="1.1" id="Capa_1" xmlns="http://www.w3.org/2000/svg" xmlns:xlink="http://www.w3.org/1999/xlink" x="0px" y="0px"
	 width="186.768px" height="186.767px" viewBox="0 0 186.768 186.767" style="enable-background:new 0 0 186.768 186.767;"
	 xml:space="preserve">
<g>
	<path d="M183.375,7.272c-0.326-4.347-4.831-5.999-8.107-3.358C142.456,30.37,97.239,65.167,52.334,56.962
		c-2.873-0.525-5.791,1.236-5.779,4.402c0.066,19.109,0.075,38.367,5.222,56.911c0.754,2.718,4.498,2.958,5.954,1.17
		c0.354,0.069,0.696,0.158,1.117,0.13c5.256-0.364,10.555-0.034,15.84,0.755c-2.101,14.919-6.326,29.646-5.316,44.846
		c0.739,11.12,9.612,21.003,21.557,18.577c11.216-2.277,13.522-19.878,14.712-28.713c1.04-7.718,2.506-16.818,2.2-25.093
		c2.567,0.987,5.101,1.985,7.585,2.971c19.146,7.589,45.979,18.673,57.146,37.112c1.934,3.192,8.096,3.186,8.724-1.141
		C189.077,115.355,187.408,61.06,183.375,7.272z M81.671,171.984c-1.692-1.391-2.554-3.522-2.942-5.933
		c0.769,1.454,1.747,2.778,2.942,3.952C81.671,170.664,81.67,171.323,81.671,171.984z M141.646,42.739
		c-2.286,0.608-4.551,1.248-6.793,1.93c2.368-1.423,4.716-2.879,7.037-4.376C141.568,41.085,141.505,41.93,141.646,42.739z"/>
	<path d="M35.39,111.125c-0.381,0.158-0.763,0.315-1.144,0.473c1.548-16.546,0.334-33.738,0.352-50.232
		c0.002-2.219-1.469-3.849-3.471-4.559C26.2,55.058,5.542,52.065,4.038,60.102c-3.786,20.238-4.071,40.622-4.035,61.152
		c0.005,2.584,2.158,4.76,4.752,4.752c9.387-0.031,20.432,1,29.01-3.324c2.713-1.366,2.306-4.54,0.465-6.198
		c0.636-1.537,1.271-3.075,1.906-4.613C36.408,111.393,35.867,110.852,35.39,111.125z M14.237,64.958
		c-0.299,0.589-0.499,1.273-0.513,2.11c-0.08,0.046-0.129,0.137-0.206,0.188c-0.095,0.007-0.192-0.007-0.287,0.003
		c-0.323-0.016-0.627,0.039-0.913,0.165c-0.174,0.068-0.3,0.117-0.403,0.157c-0.12,0.034-0.225,0.085-0.334,0.135
		C11.671,66.141,12.133,65.333,14.237,64.958z"/>
</g>
<g>
</g>
<g>
</g>
<g>
</g>
<g>
</g>
<g>
</g>
<g>
</g>
<g>
</g>
<g>
</g>
<g>
</g>
<g>
</g>
<g>
</g>
<g>
</g>
<g>
</g>
<g>
</g>
<g>
</g>
</svg>
