<?xml version="1.0" encoding="iso-8859-1"?>
<!-- Generator: Adobe Illustrator 16.0.0, SVG Export Plug-In . SVG Version: 6.00 Build 0)  -->
<!DOCTYPE svg PUBLIC "-//W3C//DTD SVG 1.1//EN" "http://www.w3.org/Graphics/SVG/1.1/DTD/svg11.dtd">
<svg version="1.1" id="Capa_1" xmlns="http://www.w3.org/2000/svg" xmlns:xlink="http://www.w3.org/1999/xlink" x="0px" y="0px"
	 width="184.029px" height="184.029px" viewBox="0 0 184.029 184.029" style="enable-background:new 0 0 184.029 184.029;"
	 xml:space="preserve">
<g>
	<path d="M146.295,63.303c3.075,3.282,6.154,6.563,9.308,9.785c1.997,2.041,5.798,1.677,7.172-0.924
		c8.341-15.781,13.065-32.855,18.601-49.737c0.86-2.626-1.516-6.231-4.468-5.865c-9.007,1.114-17.331,3.951-25.734,7.301
		c-7.018,2.798-15.923,4.962-22.174,9.161c-1.904,1.279-2.261,3.456-1.493,5.138c-1.672,1.215-2.358,4.016-0.617,5.579
		c2.081,1.868,4.079,3.812,6.067,5.764c-2.635,2.349-5.058,5.067-6.85,6.579c-9.281,7.833-18.726,15.476-28.212,23.06
		c-11.989-14.897-25.207-29.33-40.868-40.311c2.991-2.97,5.998-5.942,9.154-8.79c2.269-2.048,1.518-5.812-0.94-7.301
		C50.213,13.647,35.328,4.714,18.212,0.161c-2.968-0.79-5.529,1.432-5.71,4.35c-0.605,9.72,0.424,19.388,2.05,28.966
		c1.306,7.692,3.216,19.738,9.627,25.045c0.957,0.792,2.133,1.025,3.206,0.852c0.785,0.946,2.13,1.388,3.666,0.581
		c5.934-3.116,11.055-7.114,15.888-11.454C58.302,63.237,69.825,77.885,81.381,92.48c-13.419,10.896-26.959,21.777-41.231,31.385
		c-2.905-2.762-5.946-5.374-9.248-7.698c-1.593-1.122-3.101-0.172-3.689,1.237c-0.614,0.35-1.181,0.855-1.639,1.589
		c-7.292,11.685-14.203,23.579-22.385,34.679c-2.072,2.809,0.693,7.414,4.09,7.127c17.196-1.455,34.26-4.137,51.444-5.725
		c3.853-0.355,6.208-4.764,3.234-7.807c-3.161-3.234-6.182-6.629-9.204-10.027c15.681-5.133,30.122-16.193,43.035-26.829
		c5.92,7.132,12.03,14.099,18.477,20.772c5.29,5.477,11.628,12.518,18.752,16.65c-2.35,1.984-4.679,3.988-7.053,5.949
		c-1.418,1.171-1.21,2.915-0.267,4.129c-0.355,0.372-0.651,0.814-0.802,1.398c-1.94,7.547,11.004,11.598,15.971,13.781
		c9.896,4.354,20.234,8.119,30.71,10.814c2.5,0.643,5.854-1.301,5.523-4.208c-1.97-17.3-7.751-34.104-16.042-49.386
		c-1.362-2.514-4.606-2.547-6.577-0.848c-3.732,3.221-7.46,6.438-11.191,9.649c-11.58-12.847-21.486-27.791-31.725-41.991
		c7.433-6.547,14.594-13.406,21.541-20.458C136.483,73.238,142.339,68.461,146.295,63.303z M139.407,38.914
		c-0.326,0.181-0.643,0.38-0.972,0.556c-0.856,0.459-1.439,1.044-1.815,1.686c-0.508-0.337-1.001-0.712-1.521-1.021
		C136.533,39.858,137.973,39.427,139.407,38.914z"/>
</g>
<g>
</g>
<g>
</g>
<g>
</g>
<g>
</g>
<g>
</g>
<g>
</g>
<g>
</g>
<g>
</g>
<g>
</g>
<g>
</g>
<g>
</g>
<g>
</g>
<g>
</g>
<g>
</g>
<g>
</g>
</svg>
