<?xml version="1.0" encoding="iso-8859-1"?>
<!-- Generator: Adobe Illustrator 16.0.0, SVG Export Plug-In . SVG Version: 6.00 Build 0)  -->
<!DOCTYPE svg PUBLIC "-//W3C//DTD SVG 1.1//EN" "http://www.w3.org/Graphics/SVG/1.1/DTD/svg11.dtd">
<svg version="1.1" id="Capa_1" xmlns="http://www.w3.org/2000/svg" xmlns:xlink="http://www.w3.org/1999/xlink" x="0px" y="0px"
	 width="190.381px" height="190.381px" viewBox="0 0 190.381 190.381" style="enable-background:new 0 0 190.381 190.381;"
	 xml:space="preserve">
<g>
	<path d="M189.859,129.912c-0.222-14.42-1.009-28.976-3.189-43.252c0.127-2.299-1.248-4.559-4.276-4.489
		c-8.146,0.188-16.801,5.004-24.124,8.206c-3.448,1.508-6.908,2.99-10.369,4.471c-4.01-10.771-11.59-18.691-24.42-19.624
		c-2.36-0.172-4.729-0.301-7.102-0.4c6.077-4.785,10.428-12.868,11.537-19.671c2.238-13.725-3.412-28.719-16.885-34.023
		c-17.207-6.774-33.064,9.412-35.481,25.206c-1.58,10.321,2.298,21.927,10.144,28.289c-6.97,0.05-13.93,0.064-20.837-0.172
		c-1.371-0.047-2.74-0.128-4.111-0.179c5.352-4.238,8.834-10.876,8.694-18.132c-0.251-13.033-9.182-26.826-20.832-32.537
		c-15.311-7.504-30.691,4.09-35.472,18.841c-3.212,9.911,0.828,22.132,8.143,29.71c-0.609-0.141-1.255-0.17-1.951,0.045
		c-0.485,0.15-0.889,0.393-1.253,0.673c-1.531,0.714-2.691,2.281-2.257,4.406c0.004,0.02,0.014,0.038,0.019,0.057
		c-0.022,0.002-0.043,0.014-0.064,0.017c-0.248,0.052-0.486,0.106-0.71,0.186c-0.124,0.053-0.233,0.121-0.35,0.19
		c-0.327-3.509-5.897-3.887-6.912-0.344c-8.729,30.483-17.771,73.265,18.711,87.838c26.4,10.546,58.72,2.708,86.255,4.177
		c14.567,0.775,24.342,2.145,31.23-12.609c1.681-3.6,3.207-8.053,4.447-12.999c0.334,0.113,0.671,0.222,1.003,0.338
		c11.075,3.869,22.261,7.91,32.554,13.591c4.904,2.707,9.343-3.621,6.488-7.221C191.646,145.457,189.911,133.325,189.859,129.912z
		 M41.884,43.32c-0.499,0.241-0.917,0.537-1.301,0.855c-0.035-0.142-0.053-0.261-0.09-0.406c-0.179-0.705-0.582-1.281-1.071-1.77
		c-0.008-0.008-0.012-0.021-0.02-0.03c0.491-0.117,0.978-0.227,1.426-0.281c0.311,0.096,0.621,0.19,0.961,0.349
		c0.689,0.322,1.328,0.14,1.741-0.261c0.37,0.076,0.719,0.176,1.047,0.305c0.138,0.185,0.274,0.369,0.41,0.557
		C43.939,42.66,42.901,42.828,41.884,43.32z M113.536,65.322c-2.278,2.46-4.921,3.14-7.677,3.663
		c2.207-0.89,4.216-1.929,5.791-2.973c1.281-0.85,2.461-1.791,3.553-2.789C114.688,63.949,114.149,64.661,113.536,65.322z"/>
</g>
<g>
</g>
<g>
</g>
<g>
</g>
<g>
</g>
<g>
</g>
<g>
</g>
<g>
</g>
<g>
</g>
<g>
</g>
<g>
</g>
<g>
</g>
<g>
</g>
<g>
</g>
<g>
</g>
<g>
</g>
</svg>
