<?xml version="1.0" encoding="iso-8859-1"?>
<!-- Generator: Adobe Illustrator 16.0.0, SVG Export Plug-In . SVG Version: 6.00 Build 0)  -->
<!DOCTYPE svg PUBLIC "-//W3C//DTD SVG 1.1//EN" "http://www.w3.org/Graphics/SVG/1.1/DTD/svg11.dtd">
<svg version="1.1" id="Capa_1" xmlns="http://www.w3.org/2000/svg" xmlns:xlink="http://www.w3.org/1999/xlink" x="0px" y="0px"
	 width="189.168px" height="189.168px" viewBox="0 0 189.168 189.168" style="enable-background:new 0 0 189.168 189.168;"
	 xml:space="preserve">
<g>
	<path d="M158.927,177.518c-4.896-3.979-9.755-7.812-14.564-11.653c-5.161-4.589-10.385-9.115-15.666-13.581
		c-5.402-10.057-19.763-20.544-27.309-23.049c-6.214-2.062-12.118,3.897-16.361,7.384c-8.773,7.207-16.877,15.038-25.654,22.189
		c-0.244,0.197-0.33,0.463-0.357,0.736c-5.689,4.782-11.365,10.054-15.559,16.101c-0.248,0.212-0.491,0.436-0.735,0.652
		c-1.478,1.129-2.812,2.405-3.903,3.929c-0.701,0.824-0.934,1.742-0.847,2.606c-0.557,2.165,0.492,4.682,3.266,4.362
		c19.776-2.277,39.371-0.086,59.144-1.62c16.416-1.274,37.121,7.187,52.542,1.758c1.188-0.418,1.978-1.292,2.403-2.291
		C159.147,185.167,162.57,180.479,158.927,177.518z"/>
	<path d="M85.201,110.982C74.254,98.574,56.726,94.968,41.919,89.304c-8.81-3.37-14.803-1.329-17.763,3.962
		c-0.589,0.19-1.161,0.508-1.613,1.124c-3.832,5.221-3.845,14.313-4.737,20.529c-1.375,9.581-2.185,19.236-2.703,28.897
		c-0.6,11.209-3.208,32.238,6.575,40.794c0.768,2.415,4.055,3.534,6.142,1.158c0.916-0.22,1.635-0.908,1.495-2.164
		c0.564-0.844,1.082-1.712,1.613-2.574c7.79-7.559,14.346-16.126,21.86-24.036c6.03-6.348,13.935-11.189,20.627-16.814
		C80.988,133.816,94.432,121.445,85.201,110.982z"/>
	<path d="M171.904,169.289c-0.04-0.344-0.161-0.604-0.269-0.881c-2.588-28.272,3.698-56.647,3.161-84.973
		c-0.045-2.352-2.435-4.531-4.844-3.69c-13.862,4.833-33.49,10.688-45.687,21.806c-6.599,3.855-12.508,9.006-13.188,15.951
		c-0.632,6.435,6.175,12.869,9.929,17.137c2.361,2.683,4.983,5.255,7.739,7.722c13.122,13.418,26.314,26.834,39.526,40.119
		c1.946,1.956,4.828-0.331,3.968-2.673c0.477-0.474,0.755-1.124,0.66-1.933C172.568,175.014,172.236,172.151,171.904,169.289z"/>
	<path d="M172.584,70.488c-3.085-4.453-4.974-9.718-7.179-14.637c-0.505-1.128-1.364-1.604-2.264-1.622
		c1.262-4.204,2.697-8.367,4.385-12.565c1.145-2.845-1.677-5.264-4.188-5.499c-1.876-0.175-3.749-0.304-5.624-0.466
		c-0.01-0.011-0.017-0.022-0.027-0.033C143.95,22.033,126.405,8.18,108.229,1.236c-19.426-7.42-37.434,20.74-52.958,26.831
		c-0.237,0.093-0.4,0.261-0.52,0.447c-7.716,0.135-15.291,1.241-22.393,4.413c-1.811,0.81-2.405,3.171-2.004,4.924
		c1.203,5.262,2.549,10.481,3.943,15.686c-0.067,0.125-0.166,0.22-0.22,0.357c-2.838,7.207-6.976,13.823-9.274,21.206
		c-0.4,0.536-0.581,1.182-0.541,1.833c-0.025,0.095-0.059,0.187-0.084,0.283c-0.365,1.438,1.244,2.819,2.5,2.266
		c0.09,0.014,0.154,0.059,0.249,0.067c2.535,0.222,5.054,0.372,7.598,0.459c2.347,0.08,4.847,0.59,6.917-0.644
		c0.317,0.811,1.012,1.153,1.721,1.104c0.298,0.323,0.661,0.614,1.167,0.817c9.605,3.845,19.396,7.109,28.769,11.53
		c8.762,4.133,15.801,11.876,24.651,15.18c0.965,0.361,1.76,0.131,2.332-0.39c0.637,0.088,1.305,0.031,1.961-0.338
		c9.988-5.621,19.415-12.281,29.202-18.253c6.51-3.973,14.007-7.518,20.335-12.136c0.445,0.094,0.925,0.097,1.429-0.116
		c5.167-2.191,10.675-2.683,16.217-1.905C171.505,75.176,174.261,72.908,172.584,70.488z M152.1,67.662
		c-8.817,3.248-17.001,9.507-24.93,14.381c-9.586,5.892-19.416,11.774-27.978,19.122c-4.878-6.928-15.241-11.496-22.227-14.966
		c-9.788-4.863-20.376-8.524-31.192-10.152c-0.249-0.037-0.46,0.002-0.685,0.012c0.391-12.71-2.557-24.428-5.442-36.726
		c15.625-5.377,35.455-0.596,51.268,0.565c22.144,1.626,44.288,2.706,66.441,4.489C154.76,51.984,152.837,59.584,152.1,67.662z"/>
	<path d="M142.352,52.502c-20.418,0.445-39.688-0.412-59.892-3.067c-5.687-0.747-24.843-5.294-27.982,2.227
		c-0.243,0.583,0.26,1.184,0.773,1.361c3.159,1.094,7.319,0.426,10.664,0.729c8.611,0.778,17.191,2.612,25.73,3.94
		c16.724,2.603,33.867,3.088,50.707,1.349C146.455,58.618,146.646,52.408,142.352,52.502z"/>
	<path d="M124.228,67.339c-20.815-1.765-42.06-4.009-62.958-4.04c-2.652-0.004-2.519,3.749,0,4.025
		c20.695,2.259,42.1,6.711,62.958,5.499C127.787,72.616,127.73,67.636,124.228,67.339z"/>
	<path d="M112.542,77.979c-10.017-1.995-22.097-1.028-32.195,0.208c-1.448,0.177-2.125,2.58-0.381,2.816
		c10.289,1.396,22.295,4.07,32.576,2.167C115.139,82.688,115.102,78.489,112.542,77.979z"/>
</g>
<g>
</g>
<g>
</g>
<g>
</g>
<g>
</g>
<g>
</g>
<g>
</g>
<g>
</g>
<g>
</g>
<g>
</g>
<g>
</g>
<g>
</g>
<g>
</g>
<g>
</g>
<g>
</g>
<g>
</g>
</svg>
