<?xml version="1.0" encoding="iso-8859-1"?>
<!-- Generator: Adobe Illustrator 16.0.0, SVG Export Plug-In . SVG Version: 6.00 Build 0)  -->
<!DOCTYPE svg PUBLIC "-//W3C//DTD SVG 1.1//EN" "http://www.w3.org/Graphics/SVG/1.1/DTD/svg11.dtd">
<svg version="1.1" id="Capa_1" xmlns="http://www.w3.org/2000/svg" xmlns:xlink="http://www.w3.org/1999/xlink" x="0px" y="0px"
	 width="191.121px" height="191.12px" viewBox="0 0 191.121 191.12" style="enable-background:new 0 0 191.121 191.12;"
	 xml:space="preserve">
<g>
	<path d="M167.118,34.771C128.245-12.806,46.825-12.788,15.566,42.44c-17.665,31.211-16.282,72.061-0.733,103.745
		c14.913,30.389,43.947,47.175,76.37,44.648c17.695,1.906,35.854-5.994,50.465-15.312c1.368-0.872,2.706-1.788,4.03-2.723
		c0.041-0.015,0.083-0.028,0.124-0.045c0.393-0.146,0.658-0.388,0.868-0.659c13.146-9.515,24.015-22.057,31.587-36.404
		C195.43,103.186,190.096,62.897,167.118,34.771z M157.359,31.143c1.061,1.063,2.102,2.144,3.106,3.256
		c-0.233,0.068-0.457,0.175-0.66,0.317c-0.669-0.822-1.309-1.663-1.998-2.472c-0.165-0.296-0.334-0.59-0.501-0.884
		C157.326,31.287,157.346,31.215,157.359,31.143z M154.963,57.002c1.844,1.483,3.669,2.991,5.461,4.545
		c0.113,0.097,0.229,0.178,0.345,0.247c-8.915,6.141-20.008,9.394-27.433,17.373c-3.185-4-8.414-6.341-12.849-8.601
		c-7.175-3.657-14.585-6.866-20.851-11.943c8.42-6.57,15.062-15.166,21.42-23.726C131.82,43.078,143.531,49.822,154.963,57.002z
		 M129.492,81.561c-1.465,1.001-2.874,2.084-4.25,3.212c0.113-0.217,0.173-0.449,0.194-0.689c0.871-0.096,1.659-0.621,1.769-1.558
		c0.397-0.338,0.664-0.822,0.676-1.335c0.159-0.093,0.301-0.199,0.431-0.32C128.699,81.105,129.11,81.321,129.492,81.561z
		 M102.576,92.339c-0.375,0.309-0.754,0.614-1.132,0.921c-0.095-0.215-0.228-0.42-0.435-0.6c0.334-0.203,0.659-0.406,0.978-0.605
		C102.184,92.148,102.378,92.247,102.576,92.339z M59.911,80.997c-0.51-0.179-1.112-0.157-1.746,0.184
		c-0.516,0.278-1.024,0.572-1.538,0.855c-8.13-6.471-17.681-12.195-26.836-17.071c0.935-1.1,1.909-2.164,2.9-3.211
		c2.937-2.125,5.563-4.83,7.981-7.466c10.28-8.581,22.307-15.296,34.116-21.314c4.576,8.911,7.905,19.589,15.73,25.968
		C80.03,65.999,72.167,77.137,59.911,80.997z M83.773,87.049c-1.016-0.52-2.038-1.029-3.06-1.536
		c0.187-0.088,0.361-0.168,0.532-0.25C82.089,85.857,82.937,86.452,83.773,87.049z M89.721,6.717c0.176,0.177,0.405,0.32,0.69,0.42
		c-4.981,0.316-9.944,0.857-14.904,1.424C80.212,7.617,84.948,6.939,89.721,6.717z M47.862,23.131
		c-0.441,0.714-0.876,1.433-1.337,2.131c-0.254,0.161-0.508,0.323-0.76,0.486c0.632-0.997,1.217-2.03,1.775-3.083
		C47.63,22.833,47.732,22.996,47.862,23.131z M37.851,36.297c-2.133,2.32-4.381,4.54-6.719,6.669
		c0.189-0.272,0.36-0.556,0.546-0.831C33.618,40.083,35.682,38.134,37.851,36.297z M95.915,110.103
		c0.09,0.529,0.261,1.085,0.481,1.653c-0.295-0.262-0.659-0.445-1.049-0.524c-0.037-0.052-0.083-0.108-0.119-0.16
		C95.456,110.748,95.689,110.429,95.915,110.103z M22.832,94.167c0.047-0.311,0.091-0.623,0.136-0.933
		c0.239-0.125,0.476-0.255,0.713-0.386c0.104,0.217,0.228,0.405,0.376,0.56C23.648,93.659,23.24,93.914,22.832,94.167z
		 M28.402,113.397c-0.607-0.857-1.249-1.7-1.961-2.513c-0.001-0.006-0.002-0.012-0.003-0.017c0.847,0.775,1.795,1.586,2.825,2.425
		C28.964,113.266,28.673,113.295,28.402,113.397z M28.913,104.147c9.896-5.789,19.855-11.619,29.429-17.91
		c6.067,3.205,12.058,6.382,17.876,10.077c5.504,3.495,10.786,8.058,16.64,11.051c-0.096,0.06-0.179,0.146-0.218,0.274
		c-0.084,0.271-0.138,0.553-0.17,0.842c-2.809,1.586-5.241,5.324-6.765,7.24c-4.565,5.739-8.549,11.964-12.457,18.176
		C58.509,123.91,44.145,113.377,28.913,104.147z M41.303,172.187c-0.55-0.425-1.102-0.849-1.643-1.292
		c0.036-0.051,0.08-0.094,0.109-0.146c0.219,0.029,0.437,0.015,0.648-0.027c0.317,0.432,0.642,0.855,0.974,1.271
		C41.364,172.058,41.323,172.116,41.303,172.187z M136.341,158.079c-0.041,0.071-0.043,0.144-0.074,0.215
		c-2.141,0.666-4.22,1.489-6.263,2.403c0.252-0.159,0.501-0.321,0.754-0.479c1.168-0.579,2.333-1.164,3.495-1.755
		c0.819-0.321,1.633-0.65,2.445-0.982C136.581,157.682,136.458,157.878,136.341,158.079z M119.611,151.746
		c-8.041,4.749-16.779,8.339-24.747,13.207c-0.161-0.184-0.352-0.357-0.603-0.505c-8.998-5.286-18.629-9.281-27.359-15.077
		c-3.914-2.599-7.578-5.499-8.599-10.223c-0.487-2.254-0.741-4.547-0.991-6.838c7.497,4.622,13.704,8.267,15.473,9.437
		c0.824,0.545,2.032,0.337,2.703-0.349c7.058-7.213,14.855-15.576,19.962-24.56c1.02,1.65,2.07,3.145,2.743,4.239
		c3.401,5.536,8.127,12.83,14.025,15.978c7.162,3.819,16.416,2.354,25.089-1.564C136.17,142.847,125.138,148.481,119.611,151.746z
		 M143.36,160.604c-0.648,0.418-1.297,0.835-1.94,1.26c-0.083,0.013-0.152-0.005-0.239,0.02c-0.546,0.155-1.08,0.337-1.618,0.508
		c1.013-0.579,2.023-1.16,3.034-1.743c0.423-0.243,0.663-0.613,0.775-1.02c0.047,0.119,0.104,0.234,0.173,0.345
		C143.446,160.19,143.389,160.4,143.36,160.604z M151.417,162.583c-0.01-0.016-0.022-0.027-0.034-0.043
		c-0.075-0.13-0.16-0.253-0.264-0.356c0.28-0.343,0.564-0.682,0.845-1.023c0.154,0.183,0.341,0.338,0.549,0.46
		C152.161,161.943,151.779,162.26,151.417,162.583z M160.292,153.711c0.815-1.194,1.631-2.388,2.448-3.582
		c0.233,0.01,0.471-0.027,0.704-0.125C162.421,151.264,161.37,152.498,160.292,153.711z M127.46,133.363
		c-8.061,4.001-13.516-6.174-18.022-11.724c-2.434-2.996-6.139-10.064-10.085-12.816c-0.131-0.155-0.255-0.314-0.385-0.468
		c-0.024-0.029-0.052-0.048-0.078-0.076c14.115-2.563,22.756-16.471,34.479-23.842c10.207,5.262,20.722,11.763,31.922,14.695
		C155.427,112.317,141.966,126.163,127.46,133.363z M168.812,45.714c-0.845-1.368-1.675-2.745-2.495-4.128
		c1.135,1.545,2.227,3.122,3.262,4.735C169.326,46.119,169.069,45.915,168.812,45.714z M177.274,61.9
		c-0.165-0.286-0.38-0.484-0.614-0.639c0.036-0.38-0.02-0.786-0.271-1.21c-0.493-0.833-1.025-1.639-1.541-2.455
		c0.027-0.319-0.04-0.666-0.208-1.024c0.145-0.208,0.241-0.441,0.279-0.694c1.259,2.608,2.408,5.27,3.412,7.993
		C177.988,63.211,177.65,62.55,177.274,61.9z"/>
</g>
<g>
</g>
<g>
</g>
<g>
</g>
<g>
</g>
<g>
</g>
<g>
</g>
<g>
</g>
<g>
</g>
<g>
</g>
<g>
</g>
<g>
</g>
<g>
</g>
<g>
</g>
<g>
</g>
<g>
</g>
</svg>
