<?xml version="1.0" encoding="iso-8859-1"?>
<!-- Generator: Adobe Illustrator 16.0.0, SVG Export Plug-In . SVG Version: 6.00 Build 0)  -->
<!DOCTYPE svg PUBLIC "-//W3C//DTD SVG 1.1//EN" "http://www.w3.org/Graphics/SVG/1.1/DTD/svg11.dtd">
<svg version="1.1" id="Capa_1" xmlns="http://www.w3.org/2000/svg" xmlns:xlink="http://www.w3.org/1999/xlink" x="0px" y="0px"
	 width="192.824px" height="192.824px" viewBox="0 0 192.824 192.824" style="enable-background:new 0 0 192.824 192.824;"
	 xml:space="preserve">
<g>
	<path d="M121.006,105.784c-1.482-0.036-2.968-0.063-4.452-0.096c0.062-14.651-11.131-26.212-26.871-24.762
		c-14.46,1.332-26.933,13.163-27.594,27.244c-2.742,0.432-5.478,0.927-8.205,1.496c-1.359,0.284-2.11,1.251-2.392,2.367
		c-1.516,0.699-2.689,2.132-2.748,4.334c-0.459,17.376-0.337,34.71,0.597,52.07c0.163,3.024,2.377,5.447,5.493,5.493
		c20.269,0.303,40.467,2.791,60.748,1.907c2.885-0.125,5.183-2.285,5.231-5.231c0.333-20.064,5.667-39.554,5.354-59.663
		C126.124,108.08,123.853,105.854,121.006,105.784z M92.801,138.063c-2.165,1.689-1.902,3.983-0.552,5.607
		c-0.567,4.169-0.941,8.359-1.296,12.554c-0.115,1.36-0.369,2.9-0.509,4.451c-2.596-0.003-5.284,0.317-7.675,0.439
		c-1.573,0.08-3.011,0.225-4.405,0.464c0.031-1.248,0.044-2.479,0.131-3.587c0.41-5.179,0.493-10.391,0.553-15.587
		c0.016-1.364-0.927-2.175-1.998-2.382c0.03-2.009-1.529-3.265-2.622-4.798c-1.266-1.775-1.324-3.684-0.865-5.759
		c1.117-5.053,5.248-8.797,10.115-9.986c5.067-1.237,10.513,1.358,13.23,5.631C100.099,130.132,96.85,134.903,92.801,138.063z
		 M71.607,106.938c3.212-7.203,8.125-13.045,16.674-15.289c11.624-3.051,16.601,4.515,17.726,13.882
		C94.512,105.445,83.015,105.723,71.607,106.938z"/>
	<path d="M177.263,143.098c21.869-29.23,20.394-67.201-2.579-95.142c-20.359-24.76-56.077-32.391-86.557-31.004
		C56.341,18.398,28.941,33.698,12.175,60.81C1.328,78.35-2.811,100.885,1.961,121.014c0.261,1.496,0.668,2.891,1.179,4.209
		c2.312,7.561,5.914,14.704,11.006,20.991c0.787,0.971,1.786,0.932,2.577,0.426c0.053,0.002,0.091,0.023,0.146,0.022
		c4.255-0.057,7.907-1.322,11.704-3.175c3.324-1.621,8.86-4.393,8.627-8.676c-0.007-0.123-0.059-0.218-0.077-0.335
		c0.8-0.813,1.196-2.036,0.508-3.191C14.525,92.474,53.545,59.486,90.143,52.382c19.061-3.701,38.937,5.916,52.92,18.15
		c17.665,15.456,20.019,36.029,7.292,54.8c-3.615-3.114-7.36-6.066-11.209-8.902c-2.353-1.732-5.54,0.627-5.568,3.195
		c-0.145,13.023-1.024,26.033-0.304,39.053c0.122,2.204,1.729,3.97,4.004,4.004c15.555,0.234,31.087,1.21,46.646,1.231
		c3.206,0.005,5.095-3.512,3.584-6.246C185.442,153.925,181.753,146.446,177.263,143.098z M11.806,80.046
		c-0.498,0.977-0.982,1.964-1.456,2.961c0.864-3.187,1.888-6.372,3.212-9.559C12.892,75.654,12.319,77.853,11.806,80.046z"/>
</g>
<g>
</g>
<g>
</g>
<g>
</g>
<g>
</g>
<g>
</g>
<g>
</g>
<g>
</g>
<g>
</g>
<g>
</g>
<g>
</g>
<g>
</g>
<g>
</g>
<g>
</g>
<g>
</g>
<g>
</g>
</svg>
