<?xml version="1.0" encoding="iso-8859-1"?>
<!-- Generator: Adobe Illustrator 16.0.0, SVG Export Plug-In . SVG Version: 6.00 Build 0)  -->
<!DOCTYPE svg PUBLIC "-//W3C//DTD SVG 1.1//EN" "http://www.w3.org/Graphics/SVG/1.1/DTD/svg11.dtd">
<svg version="1.1" id="Capa_1" xmlns="http://www.w3.org/2000/svg" xmlns:xlink="http://www.w3.org/1999/xlink" x="0px" y="0px"
	 width="194.328px" height="194.328px" viewBox="0 0 194.328 194.328" style="enable-background:new 0 0 194.328 194.328;"
	 xml:space="preserve">
<g>
	<path d="M141.039,110.118c-0.478-17.582-2.833-35.106-5.287-52.502c-2.3-16.306-4.137-33.534-12.747-47.936
		c-10.974-18.357-28.53-7.367-37.203,6.257C73.78,34.823,71.532,59.243,69.011,81.029c-2.213,19.119-5.077,44.694,5.944,61.789
		c10.29,15.961,31.953,7.085,39.354-6.609c13.643-25.243,5.254-60.548,1.295-87.162c-0.532-3.582-5.422-2.198-5.788,0.784
		c-2.437,19.838,0.019,39.837-1.318,59.731c-0.602,8.942-2.123,21.724-10.073,27.403c-8.778,6.272-14.391-0.158-16.847-8.317
		c-4.937-16.406-2.37-35.89-0.297-52.584c2.419-19.488,5.349-39.732,16.067-56.584C115.081-8.404,123,50.172,124.518,60.713
		c4.474,31.025,9.091,64.983,0.472,95.662c-3.354,11.936-12.435,27.906-27.029,25.634c-12.518-1.948-20.866-15.679-25.022-26.341
		c-5.397-13.845-5.519-30.908-6.882-45.577c-1.442-15.51-2.416-31.675,0.625-47.043c1.448-7.318-9.737-10.442-11.21-3.09
		c-3.317,16.547-2.486,33.407-1.161,50.134c1.36,17.177,2.199,35.878,8.527,52.067c7.08,18.112,28.185,39.823,49.464,29.501
		C140.694,177.885,141.769,137.069,141.039,110.118z"/>
</g>
<g>
</g>
<g>
</g>
<g>
</g>
<g>
</g>
<g>
</g>
<g>
</g>
<g>
</g>
<g>
</g>
<g>
</g>
<g>
</g>
<g>
</g>
<g>
</g>
<g>
</g>
<g>
</g>
<g>
</g>
</svg>
