<?xml version="1.0" encoding="iso-8859-1"?>
<!-- Generator: Adobe Illustrator 16.0.0, SVG Export Plug-In . SVG Version: 6.00 Build 0)  -->
<!DOCTYPE svg PUBLIC "-//W3C//DTD SVG 1.1//EN" "http://www.w3.org/Graphics/SVG/1.1/DTD/svg11.dtd">
<svg version="1.1" id="Capa_1" xmlns="http://www.w3.org/2000/svg" xmlns:xlink="http://www.w3.org/1999/xlink" x="0px" y="0px"
	 width="188.488px" height="188.488px" viewBox="0 0 188.488 188.488" style="enable-background:new 0 0 188.488 188.488;"
	 xml:space="preserve">
<g>
	<path d="M153.762,29.486c-13.516-30.46-42.95,4.773-52.217,18.317C75.396,86.029,47.829,123.048,18.95,159.307
		c-0.995,1.25-1.091,2.647-0.661,3.812c-0.137,0.711-0.088,1.473,0.305,2.223c18.331,35.085,63.401-18.302,75.205-32.752
		c14.641-17.922,27.607-37.227,39.469-57.077c5.077-8.497,20.652-28.634,17.592-39.523C153.281,35.431,154.86,31.965,153.762,29.486
		z M30.872,157.699c0.089,0.387,0.23,0.748,0.431,1.089c-1.471,1.663-2.938,3.322-4.376,4.992c-0.394-0.285-0.786-0.573-1.172-0.9
		C27.49,161.203,29.171,159.434,30.872,157.699z"/>
	<path d="M63.38,27.532C55.4,11.749,35.383,6.932,21.56,15.862c-21.751,7.87-31.11,45.964-8.589,58.618
		C42.025,90.806,78.45,57.335,63.38,27.532z M21.088,53.454c-6.622-9.25,0.002-17.598,8.408-21.676
		c1.691-0.82,1.242-3.556-0.518-3.963c-0.489-0.113-0.958-0.16-1.437-0.232C38.651,25.64,54,39.144,48.097,49.742
		C43.253,58.436,27.27,62.087,21.088,53.454z"/>
	<path d="M139.258,100.67c-16.028,7.177-25.495,27.306-23.966,44.25c-0.644,3.72-0.782,7.366-0.296,10.785
		c2.338,16.416,21.484,20.799,35.116,21.344c18.879,0.755,32.084-13.73,36.735-30.821
		C195.182,115.603,170.621,86.627,139.258,100.67z M131.394,137.128c4.59-9.153,13.382-17.812,22.525-21.393
		c14.218-5.567,17.795,11.596,17.594,22.357C171.111,159.562,127.812,157.789,131.394,137.128z"/>
</g>
<g>
</g>
<g>
</g>
<g>
</g>
<g>
</g>
<g>
</g>
<g>
</g>
<g>
</g>
<g>
</g>
<g>
</g>
<g>
</g>
<g>
</g>
<g>
</g>
<g>
</g>
<g>
</g>
<g>
</g>
</svg>
