<?xml version="1.0" encoding="iso-8859-1"?>
<!-- Generator: Adobe Illustrator 16.0.0, SVG Export Plug-In . SVG Version: 6.00 Build 0)  -->
<!DOCTYPE svg PUBLIC "-//W3C//DTD SVG 1.1//EN" "http://www.w3.org/Graphics/SVG/1.1/DTD/svg11.dtd">
<svg version="1.1" id="Capa_1" xmlns="http://www.w3.org/2000/svg" xmlns:xlink="http://www.w3.org/1999/xlink" x="0px" y="0px"
	 width="187.409px" height="187.408px" viewBox="0 0 187.409 187.408" style="enable-background:new 0 0 187.409 187.408;"
	 xml:space="preserve">
<g>
	<path d="M174.842,16.515c-8.273-13.85-22.847-20.123-37.947-14.407c-1.445,0.547-2.278,1.618-2.62,2.806
		c-23.746,11.661-38.799,33.052-19.079,57.628c6.758,8.422,25.012,0.774,26.306,11.21c2.662,21.461-28.601,39.129-43.608,49.637
		c-27.448,19.218-31.861-10.562-53.844-18.077c-17.619-6.024-40.951,17.021-38.75,34.911c-0.726,0.556-1.284,1.382-1.431,2.497
		c-3.07,23.302,5.245,44.21,31.179,44.679c28.131,0.507,57.648-18.719,79.581-34.271c28.167-19.972,51.297-47.996,64.482-79.957
		C187.122,53.75,185.487,34.332,174.842,16.515z M13.992,163.626c-1.516-3.781-2.432-8.218-2.894-13.098
		c0.171,0.176,0.324,0.367,0.551,0.497c0.082,0.047,0.174,0.05,0.257,0.09c0.201,4.001,1.164,7.988,2.94,11.848
		C14.54,163.159,14.248,163.374,13.992,163.626z"/>
</g>
<g>
</g>
<g>
</g>
<g>
</g>
<g>
</g>
<g>
</g>
<g>
</g>
<g>
</g>
<g>
</g>
<g>
</g>
<g>
</g>
<g>
</g>
<g>
</g>
<g>
</g>
<g>
</g>
<g>
</g>
</svg>
