<?xml version="1.0" encoding="iso-8859-1"?>
<!-- Generator: Adobe Illustrator 16.0.0, SVG Export Plug-In . SVG Version: 6.00 Build 0)  -->
<!DOCTYPE svg PUBLIC "-//W3C//DTD SVG 1.1//EN" "http://www.w3.org/Graphics/SVG/1.1/DTD/svg11.dtd">
<svg version="1.1" id="Capa_1" xmlns="http://www.w3.org/2000/svg" xmlns:xlink="http://www.w3.org/1999/xlink" x="0px" y="0px"
	 width="189.997px" height="189.997px" viewBox="0 0 189.997 189.997" style="enable-background:new 0 0 189.997 189.997;"
	 xml:space="preserve">
<g>
	<path d="M184.552,72.219c-3.589-19.089-10.068-50.759-29.538-60.637C130.287-0.963,92.623,3.248,66.359,6.23
		C39.778,9.249,16.194,14.671,5.941,41.293c-14.914,38.722,3.438,83.618-0.499,123.516c-0.156,1.582,1.087,2.519,2.429,2.666
		c2.608,16.617,20.44,16.126,37.177,17.671c31.642,2.92,64.117,2.04,95.695-1.187c17.799-1.818,35.359-3.132,42.545-21.885
		C193.991,134.139,189.937,100.866,184.552,72.219z M45.166,59.576c-1.048,1.328-2.084,2.667-3.137,3.991
		c-0.232,0.292-0.334,0.602-0.479,0.906c-0.082-0.835-0.15-1.67-0.242-2.506C42.614,61.194,43.894,60.389,45.166,59.576z
		 M42.708,20.724c-7.884,2.876-15.236,7-21.767,12.84c0.945-1.333,1.962-2.611,3.097-3.796
		C28.498,25.114,35.524,22.495,42.708,20.724z M25.259,106.658c-0.34-0.094-0.681-0.135-1.037-0.138
		c0.33-5.686,0.679-11.369,1.179-17.038C25.443,95.204,25.349,100.929,25.259,106.658z M34.033,158.27
		c-0.038-1.498-0.133-2.989-0.199-4.483c1.054,1.707,2.151,3.396,3.381,5.033C36.153,158.646,35.092,158.462,34.033,158.27z
		 M96.173,122.417c-2.35-1.793-6.583-1.494-7.862,2.208c-4.175,12.077-10.836,21.605-19.854,29.729
		c1.135-17.271,4.075-34.61,7.305-51.482c1.923-10.045,4.154-20.439,8.47-29.766c4.925-10.642,9.424,6.825,9.471,10.438
		c0.09,6.893-0.998,13.988-1.943,20.797c-0.273,1.972,0.852,3.427,2.266,4.075c0.309,0.357,0.673,0.666,1.11,0.892
		c13.177,6.8,25.81-6.001,28.329-18.086c2.769-13.286-2.241-28.126-13.436-35.987c-15.097-10.603-36.16-0.146-43.77,14.393
		c-3.578,6.835-6.065,17.804-1.965,24.979c0.317,0.555,1.127,1.223,2.146,1.831c-0.726,4.24-1.33,8.47-1.892,12.524
		c-5.473-3.704-11.074-6.385-13.971-13.344c-3.476-8.353-0.657-18.103,3.017-25.838c8.404-17.695,28.094-31.438,48.062-27.684
		C143.925,50.042,143.333,137.157,96.173,122.417z M98.296,60.929c3.284,0.606,6.347,2.032,8.912,4.219
		c-0.503-0.086-1.026-0.117-1.548-0.047c-0.401,0.056-0.79,0.19-1.177,0.324C102.665,63.764,100.6,62.263,98.296,60.929z
		 M110.293,68.487c2.634,3.823,3.904,8.695,4.074,13.509c-0.531-1.981-1.216-3.896-2.053-5.737c0.116-0.503,0.15-1.054,0.03-1.671
		c-0.266-1.379-1.223-2.465-2.11-3.536c0.024-0.804,0.085-1.572,0.098-2.391C110.334,68.593,110.295,68.552,110.293,68.487z
		 M139.485,108.985c-0.47,0.212-0.898,0.543-1.28,1.018c1.7-4.033,2.986-8.407,3.688-13.079c0.23-1.535,0.393-3.07,0.521-4.604
		c0.076,0.087,0.17,0.14,0.253,0.215C141.78,98.069,140.759,103.562,139.485,108.985z"/>
</g>
<g>
</g>
<g>
</g>
<g>
</g>
<g>
</g>
<g>
</g>
<g>
</g>
<g>
</g>
<g>
</g>
<g>
</g>
<g>
</g>
<g>
</g>
<g>
</g>
<g>
</g>
<g>
</g>
<g>
</g>
</svg>
