<?xml version="1.0" encoding="iso-8859-1"?>
<!-- Generator: Adobe Illustrator 16.0.0, SVG Export Plug-In . SVG Version: 6.00 Build 0)  -->
<!DOCTYPE svg PUBLIC "-//W3C//DTD SVG 1.1//EN" "http://www.w3.org/Graphics/SVG/1.1/DTD/svg11.dtd">
<svg version="1.1" id="Capa_1" xmlns="http://www.w3.org/2000/svg" xmlns:xlink="http://www.w3.org/1999/xlink" x="0px" y="0px"
	 width="188.401px" height="188.401px" viewBox="0 0 188.401 188.401" style="enable-background:new 0 0 188.401 188.401;"
	 xml:space="preserve">
<g>
	<path d="M161.118,92.161c-2.427-21.404-4.734-47.783-27.725-56.806c-23.638-9.277-48.591-1.99-59.109,21.045
		c-23.311-14.49-53.411,14.258-47.67,38.984c-1.039-0.49-2.287-0.423-3.36,0.696c-0.513,0.536-0.98,1.096-1.469,1.645
		c-20.343,5.699-31.295,32.865-10.932,48.241c23.222,17.535,58.677,8.729,85.558,9.153c26.815,0.425,69.886,8.157,87.044-18.489
		C196.289,116.7,182.483,94.181,161.118,92.161z M33.92,86.186c0.576-3.669,1.791-7.313,3.488-10.695
		c0.214,0.134,0.434,0.25,0.677,0.34C36.471,79.167,35.051,82.637,33.92,86.186z M88.721,48.775
		c-0.078,0.081-0.118,0.18-0.185,0.266c-1.464,1.154-2.855,2.381-4.135,3.696c5.04-6.945,12.165-11.505,20.018-13.576
		c-0.804,0.498-1.569,1.041-2.288,1.63C96.8,41.9,93.021,44.274,88.721,48.775z M175.442,106.108
		c-0.109-0.175-0.195-0.35-0.309-0.524c-0.646-0.99-1.476-1.511-2.337-1.721c-1.521-1.392-3.316-2.61-5.397-3.627
		c3.388,1.246,6.11,3.191,8.213,5.572C175.543,105.899,175.503,106.011,175.442,106.108z M178.702,130.726
		c1.176-2.9,1.703-6.127,1.659-9.653c0.168-0.201,0.322-0.411,0.484-0.616C180.833,123.91,180.132,127.428,178.702,130.726z"/>
</g>
<g>
</g>
<g>
</g>
<g>
</g>
<g>
</g>
<g>
</g>
<g>
</g>
<g>
</g>
<g>
</g>
<g>
</g>
<g>
</g>
<g>
</g>
<g>
</g>
<g>
</g>
<g>
</g>
<g>
</g>
</svg>
