<?xml version="1.0" encoding="iso-8859-1"?>
<!-- Generator: Adobe Illustrator 16.0.0, SVG Export Plug-In . SVG Version: 6.00 Build 0)  -->
<!DOCTYPE svg PUBLIC "-//W3C//DTD SVG 1.1//EN" "http://www.w3.org/Graphics/SVG/1.1/DTD/svg11.dtd">
<svg version="1.1" id="Capa_1" xmlns="http://www.w3.org/2000/svg" xmlns:xlink="http://www.w3.org/1999/xlink" x="0px" y="0px"
	 width="194.62px" height="194.62px" viewBox="0 0 194.62 194.62" style="enable-background:new 0 0 194.62 194.62;"
	 xml:space="preserve">
<g>
	<path d="M166.137,10.884c-0.256-2.548-2.562-3.41-4.271-2.651c-0.223-2.466-1.954-4.795-5.226-4.95
		C119.188,1.505,80.058-2.359,42.722,2c-1.435,0.167-2.531,0.818-3.273,1.7c-2.192,0.44-4.123,2.112-4.217,5.034
		c-1.046,32.439-5.637,64.649-7.465,97.047c-0.895,15.867-3.346,38.617,0.674,57.608c-0.56,7.87-0.528,16.111,3.198,23.158
		c2.195,4.15,6.472,6.862,11.05,7.485c2.411,0.328,5.252,0.35,7.929-0.135c28.329-0.587,56.181-2.973,84.529,0.672
		c5.871,0.754,6.551-7.114,2.269-9.767c-2.078-3.462-5.682-6.468-7.8-9.562c-3.386-4.946-5.897-10.29-7.562-15.96
		c11.097-0.738,22.3,0.945,33.213,2.75c2.458,0.405,4.384-0.757,5.481-2.42c2.475,0.081,5.015-1.483,5.086-4.718
		C166.881,107.305,170.897,58.307,166.137,10.884z M90.608,23.074c1.193,0.387,2.4,0.676,3.601,1.009
		c-0.267,0.309-0.505,0.645-0.681,1.028c-0.074,0.16-0.134,0.324-0.207,0.484C92.458,24.707,91.545,23.877,90.608,23.074
		L90.608,23.074z M94.158,159.644c0.169,0.354,0.321,0.715,0.488,1.07c-0.833-0.964-1.662-1.93-2.536-2.878
		c0.913-1.279,1.67-2.639,2.297-4.062c0.216-0.065,0.438-0.119,0.642-0.212c0,0.003,0,0.008,0,0.012
		C93.687,155.099,93.094,157.411,94.158,159.644z"/>
	<path d="M149.025,163.558c-3.787,0.692-7.894-0.103-11.729,0.339c-2.588,0.299-5.301,3.2-3.362,5.858
		c1.426,1.956,2.932,3.649,4.766,5.228c0.245,0.212,0.502,0.411,0.755,0.614c-0.051,0.265-0.128,0.519-0.156,0.79
		c-0.261,2.414,2.219,4.445,4.445,4.445c0.56,0,1.062-0.11,1.526-0.282c1.595,0.42,3.525-0.634,2.807-2.616
		c-0.041-0.112-0.104-0.225-0.147-0.339c0.122-0.388,0.219-0.789,0.26-1.208c-0.053,0.541-0.18,0.76,0.239,0.041
		c0.372-0.637,0.84-1.192,1.312-1.754c1.114-1.323,2.34-2.553,3.556-3.781C156.576,167.579,153.185,162.798,149.025,163.558z"/>
</g>
<g>
</g>
<g>
</g>
<g>
</g>
<g>
</g>
<g>
</g>
<g>
</g>
<g>
</g>
<g>
</g>
<g>
</g>
<g>
</g>
<g>
</g>
<g>
</g>
<g>
</g>
<g>
</g>
<g>
</g>
</svg>
