<?xml version="1.0" encoding="iso-8859-1"?>
<!-- Generator: Adobe Illustrator 16.0.0, SVG Export Plug-In . SVG Version: 6.00 Build 0)  -->
<!DOCTYPE svg PUBLIC "-//W3C//DTD SVG 1.1//EN" "http://www.w3.org/Graphics/SVG/1.1/DTD/svg11.dtd">
<svg version="1.1" id="Capa_1" xmlns="http://www.w3.org/2000/svg" xmlns:xlink="http://www.w3.org/1999/xlink" x="0px" y="0px"
	 width="192.669px" height="192.669px" viewBox="0 0 192.669 192.669" style="enable-background:new 0 0 192.669 192.669;"
	 xml:space="preserve">
<g>
	<path d="M157.619,119.28c-3.187-20.208-13.901-28.5-23.122-13.208c-2.579-7.707-7.962-15.095-16.494-15.351
		c-3.902-0.116-7.286,2.337-9.214,5.567c-1.125-2.896-2.983-5.305-5.998-6.488c-3.955-1.553-7.34,0.036-10.038,2.878
		c0.049-7.453-0.083-15.358-0.973-23.044c12.019-5.845,19.892-16.924,18.443-31.372C108.721,23.299,98.276,8.673,84.548,2.524
		C68.146-4.821,52.55,4.749,45.127,19.831c-4.877,9.909-3.334,20.837,2.542,29.861c2.42,3.717,6.671,8.661,11.368,11.908
		c-1.019,13.97,2.14,29.059,5.94,42.858c-8.911-7.37-19.024-9.831-30.347,0.909c-2.556,2.424-1.154,5.649,1.259,6.899
		c3.542,6.258,7.622,12.096,11.867,17.826c6.126,16.889,8.642,35.169,20.068,49.447c15.539,19.421,55.471,14.073,74.776,4.535
		C162.527,174.229,160.423,137.074,157.619,119.28z M74.608,33.274c-2.136-1.599-4.795-0.148-6.148,1.612
		c-3.534,4.598-5.918,9.676-7.444,15.053c-0.645-0.559-1.264-1.119-1.804-1.688c-7.138-7.518-8.776-16.5-4.132-25.845
		c5.224-10.515,16.26-15.228,26.789-9.887c9.228,4.682,15.507,14.443,17.763,24.303c2.284,9.982-2.348,17.278-9.757,21.899
		C87.398,48.561,82.871,39.458,74.608,33.274z M98.083,102.005c0.009,0.134,0.032,0.262,0.042,0.394
		c-0.52-0.248-1.067-0.371-1.633-0.397c0.441-0.891,0.928-1.758,1.543-2.552c0.614-0.795,1.335-1.475,2.116-1.934
		c-0.002,0.001,0.092,0.021,0.161,0.027c0.186,0.098,0.317,0.274,0.486,0.398C99.185,98.471,97.926,99.802,98.083,102.005z
		 M126.807,147.894c-0.123-0.099-0.268-0.183-0.393-0.278c-0.128-4.447-0.762-8.801-1.907-13.163c0.022,0,0.042,0.001,0.064,0.001
		c0.022,0.034,0.042,0.068,0.063,0.103c0.076,0.11,0.184,0.169,0.267,0.27c0.374,0.843,0.7,1.664,1.005,2.479
		c0.09,1.194,0.188,2.384,0.236,3.612c0.043,1.071,0.418,1.878,0.907,2.558c0.098,0.68,0.203,1.358,0.318,2.033
		C127.251,146.308,127.012,147.1,126.807,147.894z"/>
</g>
<g>
</g>
<g>
</g>
<g>
</g>
<g>
</g>
<g>
</g>
<g>
</g>
<g>
</g>
<g>
</g>
<g>
</g>
<g>
</g>
<g>
</g>
<g>
</g>
<g>
</g>
<g>
</g>
<g>
</g>
</svg>
