<?xml version="1.0" encoding="iso-8859-1"?>
<!-- Generator: Adobe Illustrator 16.0.0, SVG Export Plug-In . SVG Version: 6.00 Build 0)  -->
<!DOCTYPE svg PUBLIC "-//W3C//DTD SVG 1.1//EN" "http://www.w3.org/Graphics/SVG/1.1/DTD/svg11.dtd">
<svg version="1.1" id="Capa_1" xmlns="http://www.w3.org/2000/svg" xmlns:xlink="http://www.w3.org/1999/xlink" x="0px" y="0px"
	 width="192.365px" height="192.365px" viewBox="0 0 192.365 192.365" style="enable-background:new 0 0 192.365 192.365;"
	 xml:space="preserve">
<g>
	<path d="M180.52,68.834c0.004-0.908-0.449-1.464-1.04-1.732c1.065-1.702,0.767-4.198-1.747-4.676
		c-8.465-1.613-16.945-1.81-25.538-1.791c-1.763,0.004-3.284,1.482-3.264,3.264c0.017,1.455,0.038,2.964,0.074,4.49
		c-0.203-0.745-0.916-1.254-1.746-1.363c1.12,0.147-0.678-0.121-0.649-0.121c-0.96,0-1.659,0.685-2.414,1.18
		c-1.447,0.949-2.895,1.712-4.479,2.204c1.812-24.062,4.603-60.777-18.064-67.817c-13.994-4.347-29.89-2.008-44.109-0.179
		c-14.966,1.924-30.251,4.57-44.65,9.181c-2.166,0.694-3.259,3.638-1.404,5.319C46.426,30.327,52.913,48.12,53.906,67.006
		c-0.398-0.173-0.84-0.26-1.324-0.146c-3.138,0.748-6.364,0.497-9.535,0.938c-0.111-2.398-0.216-4.796-0.358-7.191
		c-0.145-2.445-2.952-2.897-4.168-1.426c-7.083,0.003-14.16,0.239-21.234,0.574c-0.38,0.018-0.707,0.109-0.998,0.238
		c-1.186-0.416-2.599-0.025-3.025,1.604c-6.706,25.637,2.986,51.239-1.019,77.044c-0.557,3.585,3.756,5.519,5.806,3.769
		c0.156,1.048,0.827,1.875,1.97,2.279c6.603,2.332,15.113-0.086,21.943-0.154c0.345-0.003,0.616-0.11,0.905-0.192
		c-3.993,20.029-9.671,38.973,18.173,44.913c29.392,6.27,64.834,2.344,93.656-5.432c1.816-0.49,2.566-2.25,2.258-3.976
		c-1.876-10.488-1.267-24.645-3.221-37.122c3.172,0.67,6.4,1.076,9.628,1.364c3.245,0.289,9.535,1.725,11.975-1.114
		c0.109-0.128,0.163-0.27,0.247-0.403c1.833,0.467,4.279-0.52,4.587-2.997C183.081,116.03,180.428,92.457,180.52,68.834z
		 M17.524,87.499c-0.099,0.618-0.188,1.237-0.279,1.856c-0.27-3.761-0.368-7.523-0.353-11.287c0.211,0.398,0.462,0.8,0.742,1.213
		c0.063,0.712,0.108,1.424,0.167,2.136C17.695,83.446,17.578,85.475,17.524,87.499z M39.816,16.07
		c22.764-6.643,48.102-10.67,71.5-9.142c31.803,2.077,21.576,54.697,21.235,76.309c-8.569-0.282-17.31,0.45-24.969,0.837
		c-13.175,0.666-26.316,1.924-39.458,3.147c0.131-0.741-0.27-1.55-1.072-1.771c-0.492-0.135-0.961,0.241-1.314-0.05
		c-0.156-0.128-0.312-0.257-0.468-0.385c-0.384-0.316-0.859,0.159-0.543,0.543c0.128,0.156,0.257,0.312,0.385,0.468
		c0.291,0.354-0.086,0.822,0.05,1.315c0.016,0.059,0.066,0.092,0.088,0.147c-2.592,0.24-5.184,0.47-7.777,0.699
		C62.332,62.182,58.061,35.487,39.816,16.07z M105.828,91.148c-0.348,0.308-0.625,0.66-0.814,1.063
		c-3.327-0.167-6.652-0.315-9.976-0.428c0.97-0.076,1.941-0.156,2.91-0.228C100.602,91.357,103.224,91.233,105.828,91.148z
		 M44.646,89.236c0.414-3.919-0.821-8.555-1.093-12.329c-0.127-1.758-0.207-3.52-0.297-5.281c1.119,0.027,2.24,0.099,3.359,0.146
		c2.5,0.105,5.085,0.203,7.414-0.82c0.071,5.627-0.294,11.326-1.078,17.025c-0.029,0.213,0.012,0.399,0.032,0.593
		C50.204,88.804,47.426,89.035,44.646,89.236z M75.641,184.703c-17.472-0.975-34.102-5.36-29.835-26.559
		c2.045-10.163,4.18-19.126,3.199-29.295c1.831,0.695,3.703,1.282,5.601,1.798c0.521,0.461,1.217,0.768,2.166,0.715
		c0.226-0.013,0.451-0.033,0.677-0.046c11.595,2.636,24.079,2.547,35.679,2.61c16.859,0.091,33.789-1.316,50.406-4.176
		c1.926,16.085,3.898,32.524,6.648,48.526C126.13,184.396,100.311,186.08,75.641,184.703z M150.612,86.114
		c-3.683-1.248-7.622-1.998-11.677-2.433c0-0.015,0.008-0.024,0.008-0.039c0.029-2.836,0.254-6.319,0.539-10.209
		c2.029-0.128,4.125-0.564,5.945-1.236c1.654-0.611,3.062-1.033,3.575-2.882c0.036-0.13,0.006-0.238,0.015-0.359
		c0.143,5.382,0.619,10.997,2.207,15.969C150.936,85.262,150.737,85.662,150.612,86.114z"/>
	<path d="M120.936,22.077c-19.737-0.254-39.498,0.387-59.229,0.816c-1.961,0.043-1.961,2.999,0,3.041
		c19.731,0.429,39.491,1.071,59.229,0.816C123.949,26.712,123.949,22.116,120.936,22.077z"/>
	<path d="M117.646,35.943c-16.547-1.934-34.334,1.577-51.002,2.029c-1.607,0.044-1.612,2.475,0,2.497
		c16.619,0.224,34.541,0.868,51.002-1.261C119.732,38.938,119.757,36.19,117.646,35.943z"/>
	<path d="M118.059,47.595c-7.103-1.314-16.63,2.213-23.821,2.937c-4.171,0.42-8.359,0.734-12.543,0.998
		c-2.291,0.145-7.665,1.401-9.856,0.411c-0.595-0.269-1.079,0.517-0.517,0.884c5.218,3.413,14.94,1.706,20.691,1.472
		c7.182-0.292,20.861,0.805,26.731-4.107C119.607,49.467,119.163,47.799,118.059,47.595z"/>
	<path d="M118.168,65.291c-3.732-1.299-47.397,3.506-47.402,1.898c-0.003-0.927-1.419-1.15-1.635-0.221
		c-1.373,5.906,44.643,5.241,49.507,1.921C120.08,67.906,119.823,65.866,118.168,65.291z"/>
</g>
<g>
</g>
<g>
</g>
<g>
</g>
<g>
</g>
<g>
</g>
<g>
</g>
<g>
</g>
<g>
</g>
<g>
</g>
<g>
</g>
<g>
</g>
<g>
</g>
<g>
</g>
<g>
</g>
<g>
</g>
</svg>
