<?xml version="1.0" encoding="iso-8859-1"?>
<!-- Generator: Adobe Illustrator 16.0.0, SVG Export Plug-In . SVG Version: 6.00 Build 0)  -->
<!DOCTYPE svg PUBLIC "-//W3C//DTD SVG 1.1//EN" "http://www.w3.org/Graphics/SVG/1.1/DTD/svg11.dtd">
<svg version="1.1" id="Capa_1" xmlns="http://www.w3.org/2000/svg" xmlns:xlink="http://www.w3.org/1999/xlink" x="0px" y="0px"
	 width="185.678px" height="185.679px" viewBox="0 0 185.678 185.679" style="enable-background:new 0 0 185.678 185.679;"
	 xml:space="preserve">
<g>
	<path d="M170.714,130.751c-0.778-8.609-1.562-17.218-2.266-25.831c-0.246-3.017-0.714-15.621-1.59-13.958
		c2.916-5.529-3.927-9.635-7.95-5.933c-1.083-0.758-2.48-1.131-3.813-0.863c-0.252,0.051-0.513,0.083-0.766,0.132
		c-5.083-9.555-13.775-17.093-21.31-24.728c-4.025-4.079-8-8.16-11.868-12.315c1.349-2.059,2.672-4.147,3.948-6.295
		c2.024-3.409-0.663-6.919-4.178-7.279c-4.097-0.42-8.185-0.716-12.27-0.957c-1.515-1.941-2.982-3.924-4.407-5.944
		c-0.028-0.815-0.063-1.651-0.067-2.415c-0.025-4.294-0.192-8.578-0.436-12.861c0.134-1.122,0.319-2.236,0.496-3.35
		c1.68-1.934,1.254-5.088-0.991-6.132c-0.504-0.524-1.104-0.958-1.914-1.126c-7.888-1.637-15.998-0.933-23.67,1.325
		c-0.527-0.077-1.06-0.131-1.582-0.224c-1.92-0.339-3.302,0.729-3.871,2.102c-1.156,0.464-2.302,0.95-3.425,1.479
		c-1.398,0.659-2.17,2.37-2.199,3.833C66.43,17.573,65.075,25.79,68.7,33.332c-5.921,0.554-11.84,1.289-17.759,2.287
		c-3.989,0.672-4.755,6.07-2.278,8.628c1.925,1.989,3.795,4.027,5.643,6.086c-3.243,3.339-6.467,6.697-9.66,10.085
		c-5.477,5.811-20.451,17.699-24.077,27.948c-1.973-0.05-3.592,1.217-4.386,2.956c-0.103,0.063-0.246,0.045-0.329,0.135
		c-6.489,7.056-3.757,21.887-3.878,30.738c-0.254,18.54-0.302,37.078-0.322,55.619c-0.003,3.136,2.439,5.002,5.316,5.317
		c50.574,5.522,101.091,0.389,151.771,0.115c2.928-0.017,5.474-2.458,5.431-5.432C173.944,162.104,172.128,146.385,170.714,130.751z
		 M51.524,67.298c3.038-3.24,6.124-6.447,9.224-9.639c3.673,4.234,7.339,8.474,11.185,12.552c3.607,3.825,9.768,11.169,15.746,9.798
		c1.355,0.675,3.004,0.636,4.362-0.125c7.914-4.433,17.627-13.35,22.853-23.151c9.097,10.458,18.919,20.324,28.654,29.191
		c-15.257,1.772-31.227,1.595-46.261,2.166c-11.254,0.429-22.514,0.714-33.773,0.922c-8.555,0.158-22.467,3.529-32.629,2.426
		C38.896,84.854,46.653,72.496,51.524,67.298z M64.838,100.016c-0.744,0.736-1.489,1.473-2.234,2.209
		c-0.583-0.97-1.48-1.713-2.753-1.9c-0.263-0.039-0.523-0.05-0.787-0.087c-0.006-0.042-0.029-0.08-0.037-0.122
		C60.965,100.086,62.902,100.044,64.838,100.016z M63.908,133.924c-0.448,0.113-0.902,0.253-1.369,0.543
		c-1.443,0.896-2.853,1.831-4.261,2.765c0.889-0.895,1.771-1.796,2.66-2.688c0.987-0.992,2.024-1.966,3.035-2.947
		c-0.058,0.503-0.026,0.999,0.105,1.475C63.988,133.357,63.93,133.642,63.908,133.924z M83.673,101.508
		c-12.522,10.553-23.835,23.346-35.246,34.798c-7.059,7.085-13.896,14.384-20.609,21.797c-1.66,1.834-3.744,3.753-5.614,5.819
		c-0.012-1.671-0.023-3.341-0.029-5.013c12.68-21.143,32-38.288,49.25-55.539c1.093-1.094,1.191-2.375,0.778-3.482
		c4.619-0.096,9.234-0.263,13.852-0.391c-0.597,0.481-1.175,0.996-1.766,1.489C84.057,101.134,83.854,101.307,83.673,101.508z
		 M88.804,141.169c-1.162-1.119-2.345-2.215-3.465-3.38c0.314-0.6,0.625-1.199,0.935-1.8c1.098,1.896,2.284,3.683,3.501,5.431
		C89.451,141.339,89.127,141.254,88.804,141.169z M149.07,172.751c-7.237-10.055-16.439-19.189-24.29-28.577
		c-11.118-13.296-22.289-26.458-34.031-39.193c1.281-1.513,2.516-3.056,3.698-4.632c0.262-0.35,0.384-0.723,0.439-1.1
		c0.404-0.014,0.811-0.023,1.217-0.034c0.392,1.36,1.1,2.898,2.087,4.139c4.905,6.152,9.963,12.165,15.281,17.965
		c15.068,16.435,29.56,37.043,46.981,51.19C156.658,172.573,152.864,172.651,149.07,172.751z"/>
</g>
<g>
</g>
<g>
</g>
<g>
</g>
<g>
</g>
<g>
</g>
<g>
</g>
<g>
</g>
<g>
</g>
<g>
</g>
<g>
</g>
<g>
</g>
<g>
</g>
<g>
</g>
<g>
</g>
<g>
</g>
</svg>
