<?xml version="1.0" encoding="iso-8859-1"?>
<!-- Generator: Adobe Illustrator 16.0.0, SVG Export Plug-In . SVG Version: 6.00 Build 0)  -->
<!DOCTYPE svg PUBLIC "-//W3C//DTD SVG 1.1//EN" "http://www.w3.org/Graphics/SVG/1.1/DTD/svg11.dtd">
<svg version="1.1" id="Capa_1" xmlns="http://www.w3.org/2000/svg" xmlns:xlink="http://www.w3.org/1999/xlink" x="0px" y="0px"
	 width="191.764px" height="191.764px" viewBox="0 0 191.764 191.764" style="enable-background:new 0 0 191.764 191.764;"
	 xml:space="preserve">
<g>
	<path d="M190.315,51.683c-0.765-9.158-1.025-29.922-11.329-34.428c0.572-1.566,0.051-3.467-2.143-4.172
		c-8.88-2.851-18.558-4.098-28.22-4.754c-19.93-6.435-49.596,3.18-66.999,2.122C57.793,9.001,22.169-2.829,5.637,21.177
		c-0.721,1.047-0.809,2.054-0.511,2.909c-0.638,0.507-1.091,1.277-1.125,2.341c-1.1,34.527-2.28,69.027-3.866,103.524
		c-1.066,23.188,3.794,43.878,28.066,51.277c10.797,3.292,22.884,2.402,34.057,2.904c14.926,0.671,29.843,1.318,44.787,1.385
		c11.707,0.052,28.352,0.914,42.724-2.11c41.092,9.926,41.284-35.874,41.759-66.894C191.856,94.897,192.117,73.246,190.315,51.683z
		 M7.481,144.101c-0.01,0.006-0.021,0.01-0.031,0.018c-0.6-6.728-0.291-13.795,0.153-20.398
		C7.442,130.504,7.439,137.295,7.481,144.101z M150.516,46.936c-0.601,0.31-1.104,0.762-1.443,1.38
		c-0.499-0.898-1.015-1.788-1.547-2.671C148.521,46.077,149.521,46.501,150.516,46.936z M128.39,43.229
		c1.078,1.294,2.156,2.588,3.234,3.882c-1.494-1.296-3.037-2.51-4.604-3.682C127.533,43.485,127.99,43.409,128.39,43.229z
		 M30.816,29.702c2.093-0.498,4.191-0.973,6.288-1.451c0.148,0.015,0.28,0.074,0.435,0.068c0.503-0.022,0.963-0.101,1.456-0.134
		c-1.808,0.4-3.608,0.823-5.387,1.295c-0.88,0.233-1.306,0.795-1.436,1.422c-0.446-0.266-0.951-0.393-1.453-0.401
		C30.751,30.233,30.783,29.968,30.816,29.702z M10.391,34.865c-0.036-2.811-0.024-5.637-0.084-8.439
		c-0.001-0.062-0.031-0.103-0.035-0.163c0.183-0.068,0.352-0.188,0.527-0.286c-0.396,1.758-0.232,3.307,0.313,4.974
		C10.825,32.228,10.592,33.536,10.391,34.865z M31.702,73.268c-0.029-0.532-0.037-1.064-0.065-1.596
		c2.593-0.88,5.203-1.699,7.827-2.472c0.527-0.039,1.054-0.078,1.581-0.121c-2.923,1.108-5.855,2.427-8.786,4.062
		C32.069,73.159,31.883,73.207,31.702,73.268z M40.035,176.157c2.134,0.003,4.269,0.004,6.403,0.006
		c0.196,0.206,0.433,0.39,0.763,0.504c0.485,0.167,0.967,0.294,1.451,0.447C45.751,176.857,42.868,176.559,40.035,176.157z
		 M50.179,151.514c-8.234,1.065-13.359-5.362-13.719-13.013c-0.398-8.449,5.561-15.157,13.494-17.063
		c1.411-0.339,1.817-1.843,1.432-3.007c6.757,0.561,11.978,5.156,14.184,12.53C68.772,141.671,60.417,150.189,50.179,151.514z
		 M54.81,93.939c1.489,0.097,3.027,0.271,4.709,0.644c0.96,0.213,1.896,0.526,2.841,0.807c-0.043,0.329-0.033,0.658,0.057,0.972
		c-0.054-0.02-0.108-0.045-0.162-0.064c-0.101-0.041-0.198-0.09-0.299-0.131c-0.026-0.011-0.049-0.003-0.076-0.014
		c-1.687-0.627-3.382-1.191-5.084-1.68c-0.13-0.036-0.25-0.085-0.389-0.105C55.875,94.22,55.343,94.072,54.81,93.939z
		 M74.173,138.258c-0.599,0.756-1.145,1.55-1.721,2.321c0.411-1.708,0.621-3.501,0.629-5.36c0.373,0.963,0.786,1.916,1.194,2.869
		C74.242,138.146,74.204,138.201,74.173,138.258z M120.597,152.98c-1.953-0.078-4.134,0.407-5.646,0.597
		c-2.538,0.317-5.139,0.555-7.693,0.949c14.55-11.062-3.844-38.118-12.848-46.983c-9.155-9.015-20.791-15.809-33.191-19.125
		c-7.795-2.084-20.825-2.404-26.783,4.352c0.047-0.167,0.115-0.317,0.125-0.512c0.167-3.01,0.333-6.021,0.5-9.031
		c0.141-2.553,0.44-4.426,0.067-6.649c24.63-9.606,47.797-6.788,66.389,13.545C117.621,107.739,120.84,130.365,120.597,152.98z
		 M162.551,148.653c-2.016-0.595-4.357,0.175-6.44,0.516c-3.333,0.545-6.887,1.268-10.103,1.595
		c14.864-26.571-2.243-59.59-22.204-77.893C99.95,50.998,65.017,42.62,34.268,52.386c0.435-6.19,0.077-12.891-0.637-19.009
		c0.327,0.115,0.682,0.182,1.086,0.125c35.311-4.983,70.786-2.808,97.695,23.19C156.885,80.337,163.038,116.098,162.551,148.653z
		 M167.616,117.581c0,0.284-0.009,0.589-0.014,0.885c-0.632-4.41-1.429-8.789-2.448-13.104c0.055,0.039,0.107,0.078,0.165,0.113
		c0.995,3.325,2.057,6.632,3.163,9.927C167.973,115.925,167.616,116.63,167.616,117.581z"/>
</g>
<g>
</g>
<g>
</g>
<g>
</g>
<g>
</g>
<g>
</g>
<g>
</g>
<g>
</g>
<g>
</g>
<g>
</g>
<g>
</g>
<g>
</g>
<g>
</g>
<g>
</g>
<g>
</g>
<g>
</g>
</svg>
