<?xml version="1.0" encoding="iso-8859-1"?>
<!-- Generator: Adobe Illustrator 16.0.0, SVG Export Plug-In . SVG Version: 6.00 Build 0)  -->
<!DOCTYPE svg PUBLIC "-//W3C//DTD SVG 1.1//EN" "http://www.w3.org/Graphics/SVG/1.1/DTD/svg11.dtd">
<svg version="1.1" id="Capa_1" xmlns="http://www.w3.org/2000/svg" xmlns:xlink="http://www.w3.org/1999/xlink" x="0px" y="0px"
	 width="189.861px" height="189.86px" viewBox="0 0 189.861 189.86" style="enable-background:new 0 0 189.861 189.86;"
	 xml:space="preserve">
<g>
	<path d="M149.149,26.294c-0.078-2.954-0.018-7.824-3.203-9.26c-1.358-0.612-2.659-0.211-3.386,0.96
		c-10.847-1.362-22.619-0.276-33.785-0.169c0.286-0.434,0.508-0.932,0.541-1.567c0.45-8.56-4.605-16.886-14.035-16.22
		c-9.01,0.636-13.494,8.766-12.529,16.919c-11.909-0.527-23.818-1.025-35.749-0.954c-1.448,0.009-2.696,0.978-3.1,2.36
		c-1.537,5.262-2.408,10.163-2.341,15.652c0.023,1.829,2.02,2.749,3.461,2.303c0.195,0.542,0.625,1.019,1.408,1.254
		c30.044,9.031,66.62,7.732,97.576,4.003c1.411,1.763,4.777,1.245,4.921-1.64C149.154,35.389,149.268,30.844,149.149,26.294z"/>
	<path d="M136.78,55.413c0.102-0.678-0.065-1.255-0.346-1.747c0.196-1.297-0.488-2.775-2.123-2.676c-0.401,0.024-0.8,0.081-1.2,0.12
		c-0.441-0.418-1.028-0.665-1.76-0.573C104.64,53.9,78.195,47.791,51.443,49.4c-2.481,0.149-2.929,3.228-1.33,4.329
		c-4.064,27.297-10.831,57.615-8.859,86.063c-1.79,9.104,0.76,19.249,4.05,27.981c-4.713,13.831,17.875,20.936,29.088,21.832
		c14.807,1.186,49.48-1.348,58.625-16.666c1.55,0.085,3.02-0.77,2.794-2.785C131.509,131.57,130.981,94.043,136.78,55.413z
		 M50.582,165.974c0.04-0.044,0.098-0.066,0.136-0.112c0.499,1.782,1.133,3.464,1.903,4.967
		C51.519,170.591,50.881,168.78,50.582,165.974z M66.086,181.808c1.539-0.075,3.081-0.145,4.61-0.267
		c0.125,0.518,0.423,0.965,0.845,1.322C69.636,182.645,67.833,182.269,66.086,181.808z M72.905,102.798
		c-1.586,15.682-3.878,31.244-5.799,46.862c-1.271,5.596-2.162,11.59-1.844,16.826c-0.093,0.979-0.222,1.949-0.309,2.928
		c-13.573,1.071-9.748-19.045-8.755-29.181c1.577-16.102,2.165-32.257,3.603-48.373c0.66-7.395,1.957-14.545,3.508-21.779
		c1.129-5.266,4.982-3.344,9.041-3.117C78.194,67.293,73.324,98.66,72.905,102.798z M78.576,109.074
		c-0.227-0.061-0.455-0.085-0.689-0.071c0.391-3.27,0.812-6.534,1.138-9.81C78.9,102.488,78.731,105.781,78.576,109.074z
		 M94.768,110.136c-2.159,19.244-1.856,38.965-3.294,58.355c-3.737-0.061-7.351-0.268-11.081-1.36
		c-0.362-0.106-0.696-0.132-1.016-0.123c2.867-19.195,4.314-38.59,5.137-57.97c0.483-11.381,0.68-22.775,0.754-34.166
		c0.095-14.726,10.845-8.287,12.123,2.063C98.735,87.825,95.978,99.341,94.768,110.136z M98.878,153.878
		c0.045,0.651,0.133,1.294,0.249,1.93c-0.347,1.932-0.646,3.886-0.9,5.861c0.402-5.215,0.812-10.423,1.195-15.646
		c0.084,1.908,0.217,3.812,0.384,5.712C99.214,152.202,98.81,152.899,98.878,153.878z M102.613,97.129
		c0.23-4.069,0.475-8.142,0.686-12.204c0.048-0.919,0.062-1.824,0.062-2.72c0.215,0.116,0.444,0.195,0.682,0.248
		C103.655,87.326,103.149,92.222,102.613,97.129z M108.01,166.036c-0.366-2.816-1.683-6.239-2.565-8.909
		c-0.11-0.665-0.29-1.319-0.44-1.979c-0.572-12.656,0.22-25.23,1.491-38.002c0.831-8.345,1.851-16.671,2.695-25.016
		c0.68-6.708-2.046-21.004,5.884-21.715c8.803-0.789,4.117,46.344,3.804,53.009c-0.441,9.416-1.001,18.827-1.514,28.239
		c-0.228,4.159,1.905,14.711-5.62,14.524C109.617,166.137,108.953,165.993,108.01,166.036z M125.2,114.108
		c-0.245,7.862-0.662,16.672-0.469,25.502c-0.394,0.341-0.697,0.796-0.831,1.423c0.846-16.143,1.645-32.286,1.808-48.44
		c0.127,0.413,0.32,0.766,0.593,1.042C125.77,100.443,125.413,107.271,125.2,114.108z"/>
</g>
<g>
</g>
<g>
</g>
<g>
</g>
<g>
</g>
<g>
</g>
<g>
</g>
<g>
</g>
<g>
</g>
<g>
</g>
<g>
</g>
<g>
</g>
<g>
</g>
<g>
</g>
<g>
</g>
<g>
</g>
</svg>
