<?xml version="1.0" encoding="iso-8859-1"?>
<!-- Generator: Adobe Illustrator 16.0.0, SVG Export Plug-In . SVG Version: 6.00 Build 0)  -->
<!DOCTYPE svg PUBLIC "-//W3C//DTD SVG 1.1//EN" "http://www.w3.org/Graphics/SVG/1.1/DTD/svg11.dtd">
<svg version="1.1" id="Capa_1" xmlns="http://www.w3.org/2000/svg" xmlns:xlink="http://www.w3.org/1999/xlink" x="0px" y="0px"
	 width="190.397px" height="190.397px" viewBox="0 0 190.397 190.397" style="enable-background:new 0 0 190.397 190.397;"
	 xml:space="preserve">
<g>
	<path d="M98.228,0.297c-2.253-0.267-3.714,1.348-4.191,3.264C76.116,3.566,60.325,6.663,44.274,16.909
		c-15.312,9.772-26.95,24.614-34.518,40.969c-14.608,31.566-13.43,71.49,7.736,99.848c25.333,33.943,73.796,38.627,111.588,25.957
		c37.272-12.495,60.841-47.164,61.31-85.992C191.026,44.945,148.349,6.241,98.228,0.297z M42.318,129.623
		c0.193-3.728,0.417-7.453,0.658-11.178c0.001,0.674,0.021,1.349,0.018,2.023C42.982,122.866,42.65,126.084,42.318,129.623z
		 M69.631,143.195c-0.098-0.026-0.181-0.07-0.287-0.085c-3.021-0.413-5.703,0.584-8.729,0.773c-3.108,0.196-6.268,0.117-9.402-0.045
		c0.109-8.539-0.544-17.506-0.38-25.659c0.051-2.51,0.071-5.047,0.072-7.597c6.202,1.88,14.798,3.408,19.898,0.698
		C70.15,121.849,69.371,132.636,69.631,143.195z M71.976,80.792C68.523,80,64.735,81.54,61.14,81.765
		c-3.768,0.236-7.529,0.195-11.28,0.516c-0.656-9.376-1.626-18.69-2.961-27.696c3.251,1.1,7.717,0.627,10.454,0.579
		c5.275-0.092,10.645-0.148,15.934-0.499C72.578,63.34,72.226,72.072,71.976,80.792z M114.139,138.063
		c-10.531-10.618-15.116-25.331-15.589-39.941c-0.425-13.142,1.979-27.196,7.471-39.626c2.767-4.417,5.577-9.168,8.051-13.888
		c1.979-2.649,4.128-5.156,6.503-7.442c-9.097,24.592-6.16,50.578-0.248,76.066c1.302,5.611,5.899,26.584,13.099,38.91
		C126.593,148.181,120.03,144.004,114.139,138.063z"/>
</g>
<g>
</g>
<g>
</g>
<g>
</g>
<g>
</g>
<g>
</g>
<g>
</g>
<g>
</g>
<g>
</g>
<g>
</g>
<g>
</g>
<g>
</g>
<g>
</g>
<g>
</g>
<g>
</g>
<g>
</g>
</svg>
