<?xml version="1.0" encoding="iso-8859-1"?>
<!-- Generator: Adobe Illustrator 16.0.0, SVG Export Plug-In . SVG Version: 6.00 Build 0)  -->
<!DOCTYPE svg PUBLIC "-//W3C//DTD SVG 1.1//EN" "http://www.w3.org/Graphics/SVG/1.1/DTD/svg11.dtd">
<svg version="1.1" id="Capa_1" xmlns="http://www.w3.org/2000/svg" xmlns:xlink="http://www.w3.org/1999/xlink" x="0px" y="0px"
	 width="188.163px" height="188.163px" viewBox="0 0 188.163 188.163" style="enable-background:new 0 0 188.163 188.163;"
	 xml:space="preserve">
<g>
	<path d="M184.437,120.814c-6.223-2.062-12.418-3.799-18.445-6.185c1.528-6.589,2.213-13.629,1.908-21.031
		c-0.184-4.436-0.779-8.856-1.678-13.212c0.265-0.162,0.528-0.325,0.786-0.469c6.285-3.519,12.513-7.21,18.357-11.426
		c1.714-1.237,2.597-3.411,1.409-5.375c-8.131-13.453-13.812-28.15-23.877-40.38c-0.981-1.192-3.325-1.521-4.575-0.59
		c-5.955,4.44-12.362,8.901-16.649,15.018c-5.998-5.167-12.852-9.223-20.48-11.651c2.253-5.771,2.964-13.412,3.182-18.3
		c0.077-1.728-1.233-3.224-2.818-3.703C107.044-0.873,92.496,0.03,77.534,0.172c-2.639,0.025-3.964,2.351-3.601,4.727
		c0.944,6.176,0.97,12.257,2.157,18.251c-5.579,1.379-10.819,3.642-15.691,6.551c-3.874-4.542-8.798-8.439-13.28-11.919
		c-1.626-1.262-3.731-1.579-5.326,0c-9.44,9.349-19.633,18.313-25.369,30.549c-0.904,1.928-0.472,3.904,1.34,5.108
		c4.777,3.178,9.788,5.842,15.098,7.562c-2.997,6.417-5.174,13.272-6.362,20.315c-7.663,0.48-15.233,1.663-22.794,3.104
		c-1.686,0.321-2.963,2.179-2.92,3.835c0.485,18.431,7.593,36.031,17.063,51.635c0.969,1.596,2.728,2.23,4.516,1.838
		c5.824-1.278,11.431-3.586,16.705-6.508c4.66,6.197,10.359,11.61,16.858,16.061c-4.235,5.389-6.796,13.729-8.797,18.583
		c-0.871,2.111,0.929,4.429,2.855,5.028c1.675,0.521,3.342,1.062,5.009,1.604c0.852,0.854,2.152,1.288,3.379,1.104
		c13.346,4.405,26.575,8.999,40.662,10.54c2.846,0.312,4.124-2.746,3.818-5.012c-0.81-6.007-0.21-12.092-0.042-18.162
		c11.406-0.229,21.829-2.886,30.815-7.587c4.179,5.706,10.128,11.041,13.784,14.81c1.623,1.674,4.139,1.46,5.787,0
		c14.399-12.747,28.003-27.882,34.008-46.495C187.895,123.558,186.417,121.472,184.437,120.814z M97.987,54.477
		c1.008,0.684,2.02,1.357,3.038,2.008c-1.914-0.596-3.873-0.961-5.855-1.035C96.113,55.145,97.049,54.809,97.987,54.477z
		 M80.16,117.205c-22.845-6.753-18.661-46.798,2.713-52.64c0.377,0.178,0.791,0.311,1.276,0.331
		c8.994,0.375,15.869-1.835,23.726,4.313c6.743,5.275,9.813,13.974,10.006,22.266C118.313,110.098,96.818,122.129,80.16,117.205z"/>
</g>
<g>
</g>
<g>
</g>
<g>
</g>
<g>
</g>
<g>
</g>
<g>
</g>
<g>
</g>
<g>
</g>
<g>
</g>
<g>
</g>
<g>
</g>
<g>
</g>
<g>
</g>
<g>
</g>
<g>
</g>
</svg>
