<?xml version="1.0" encoding="iso-8859-1"?>
<!-- Generator: Adobe Illustrator 16.0.0, SVG Export Plug-In . SVG Version: 6.00 Build 0)  -->
<!DOCTYPE svg PUBLIC "-//W3C//DTD SVG 1.1//EN" "http://www.w3.org/Graphics/SVG/1.1/DTD/svg11.dtd">
<svg version="1.1" id="Capa_1" xmlns="http://www.w3.org/2000/svg" xmlns:xlink="http://www.w3.org/1999/xlink" x="0px" y="0px"
	 width="190.803px" height="190.803px" viewBox="0 0 190.803 190.803" style="enable-background:new 0 0 190.803 190.803;"
	 xml:space="preserve">
<g>
	<path d="M134.967,93.919c-26.086-2.015-54.112-4.311-80.023,0.042c-2.058,0.346-2.681,2.781-1.941,4.478
		c-4.227,11.787-0.472,27.475,1.284,39.482c2.325,15.899,5.299,31.828,8.517,47.58c-0.017,0.427,0.074,0.842,0.246,1.225
		c0.045,0.217,0.086,0.436,0.131,0.651c0.56,2.726,3.494,2.724,5.068,1.196c6.179,0.885,12.336,0.949,18.643,1.028
		c2.186,0.026,3.969-1.834,3.986-3.986c0.034-4.117-0.299-11.296,3.592-14.146c3.755-2.75,4.453,13.981,4.397,15.089
		c-0.112,2.225,1.926,4.022,4.048,4.048c5.882,0.071,12.524,0.999,17.819-1.922c0.577-0.318,0.989-0.824,1.264-1.408
		c0.212-0.266,0.388-0.57,0.474-0.947c0.057-0.25,0.126-0.498,0.187-0.746c1.272-0.246,2.432-1.078,2.92-2.687
		c4.215-13.893,5.822-29.14,8.784-43.406c2.643-12.727,5.075-25.73,5.171-38.771C140.328,97.913,138.791,94.214,134.967,93.919z
		 M96.307,110.01c0.777,0.06,1.557,0.12,2.335,0.182c3.229,0.253,6.562,0.6,9.927,0.92c-2.79,5.794-4.587,12.838-5.346,20.026
		c-2.361-0.053-4.726-0.086-7.09-0.091c-0.06-1.322-0.133-2.649-0.216-3.986C95.553,121.297,96.035,115.679,96.307,110.01z
		 M88.261,152.919c-2.143,0.032-4.288,0.055-6.426,0.133c0.947-4.179,0.532-9.14-0.097-14.006c2.187,0.244,4.379,0.473,6.572,0.69
		C87.895,144.19,87.458,148.745,88.261,152.919z M95.901,140.495c0.004-0.027,0.004-0.056,0.007-0.084
		c2.304,0.182,4.61,0.332,6.913,0.454c0.104,4.301,0.588,8.454,1.458,12.203c-3.318-0.091-6.638-0.179-9.963-0.189
		C95.905,149.382,95.546,143.369,95.901,140.495z M80.985,108.815c3.178,0.255,6.358,0.498,9.537,0.744
		c-1.762,6.897-1.654,14.51-1.738,21.553c-2.676,0.054-5.353,0.1-8.019,0.219c-0.079-0.769-0.157-1.537-0.2-2.264
		C80.168,122.328,80.815,115.551,80.985,108.815z M63.523,132.545c-1.027-8.52-1.682-16.976-2.406-25.514
		c4.234,0.438,8.476,0.786,12.717,1.151c-1.112,6.881-0.733,14.26-0.526,20.884c0.026,0.835,0.051,1.745,0.08,2.679
		C70.083,131.969,66.788,132.224,63.523,132.545z M64.144,136.983c3.176,0.372,6.382,0.758,9.598,1.141
		c0.469,5.533,1.608,11.262,4.488,15.083c-3.795,0.188-7.581,0.44-11.34,0.803c-0.57-3.351-1.167-6.688-1.731-10.009
		C64.761,141.647,64.463,139.318,64.144,136.983z M124.206,141.936c-0.906,3.962-1.923,8.035-2.88,12.156
		c-0.42-0.192-0.893-0.327-1.442-0.36c-3.84-0.234-7.707-0.411-11.584-0.554c-0.112-4.076,0.301-8.094,1.015-12.073
		c5.08,0.116,10.14,0.049,15.149-0.314C124.377,141.171,124.293,141.555,124.206,141.936z M126.331,132.508
		c-4.891-0.49-9.843-0.846-14.826-1.084c1.707-6.57,3.65-13.102,4.705-19.707c5.056,0.297,10.1,0.321,14.936-0.386
		C129.514,118.383,127.917,125.444,126.331,132.508z"/>
	<path d="M93.357,0.342c-34.975,3.972-9.28,65.367,1.606,81.038c1.14,1.641,3.198,1.504,4.258,0.351
		c0.873,0.052,1.741-0.253,2.401-1.1C117.784,59.848,142.801-5.272,93.357,0.342z M88.163,20.634
		c1.182-5.24,5.139-8.171,9.894-9.105c0.302,0.217,0.633,0.407,1.02,0.533c6.455,2.105,9.655,6.38,9.331,13.301
		c-0.341,7.305-6.922,11.43-13.685,9.596C88.594,33.296,86.938,26.064,88.163,20.634z"/>
</g>
<g>
</g>
<g>
</g>
<g>
</g>
<g>
</g>
<g>
</g>
<g>
</g>
<g>
</g>
<g>
</g>
<g>
</g>
<g>
</g>
<g>
</g>
<g>
</g>
<g>
</g>
<g>
</g>
<g>
</g>
</svg>
