<?xml version="1.0" encoding="iso-8859-1"?>
<!-- Generator: Adobe Illustrator 16.0.0, SVG Export Plug-In . SVG Version: 6.00 Build 0)  -->
<!DOCTYPE svg PUBLIC "-//W3C//DTD SVG 1.1//EN" "http://www.w3.org/Graphics/SVG/1.1/DTD/svg11.dtd">
<svg version="1.1" id="Capa_1" xmlns="http://www.w3.org/2000/svg" xmlns:xlink="http://www.w3.org/1999/xlink" x="0px" y="0px"
	 width="183.449px" height="183.448px" viewBox="0 0 183.449 183.448" style="enable-background:new 0 0 183.449 183.448;"
	 xml:space="preserve">
<g>
	<path d="M176.65,110.119c3.535-11.49,4.739-23.557,2.83-35.552c-6.232-39.143-38.588-68.822-78.478-69.778
		c-8.845-0.212-17.716,1.135-26.273,3.663c-16.5-16.007-43.885-6.964-58.549,7.934C0.433,32.385-6.2,58.439,7.296,76.862
		c-6.141,29.214-0.557,61.205,22.048,82.299c22.042,20.568,53.546,26.855,81.437,18.446c18.504,11.455,43.338,4.873,58.735-9.459
		C187.865,151.069,185.652,129.695,176.65,110.119z M41.578,49.179c0.003-0.009,0.005-0.018,0.008-0.028h-0.004
		c0.037-0.298,0.089-0.592,0.124-0.891c0.004-0.035-0.002-0.065,0.002-0.099c0.28-0.2,0.559-0.402,0.839-0.603
		c0.328-0.228,0.653-0.461,0.981-0.69c-0.709,0.91-1.384,1.847-2.019,2.815C41.53,49.514,41.557,49.347,41.578,49.179z
		 M164.052,50.153c-0.099,0.006-0.194,0.03-0.291,0.044c-2.07-4.003-4.533-7.723-7.277-11.235c0.024,0.029,0.049,0.056,0.073,0.084
		C159.443,42.502,161.925,46.235,164.052,50.153z M25.025,17.725c-0.054,0.269-0.09,0.545-0.119,0.824
		c-0.179,0.147-0.365,0.293-0.542,0.441c-0.12,0.1-0.225,0.211-0.321,0.326c-0.758,0.439-1.489,0.921-2.203,1.429
		C22.854,19.699,23.915,18.689,25.025,17.725z M9.562,67.936C9.256,67.137,9,66.331,8.752,65.525c0.364,0.551,0.764,1.055,1.2,1.509
		c-0.118,0.154-0.222,0.324-0.284,0.53C9.631,67.688,9.6,67.812,9.562,67.936z M12.824,74.458c-0.067-0.108-0.144-0.214-0.21-0.322
		c0.139-1.704,0.296-3.397,0.457-5.086c0.276,0.09,0.559,0.166,0.854,0.224c-0.081,0.191-0.156,0.389-0.205,0.616
		C13.391,71.41,13.096,72.933,12.824,74.458z M144.086,116.229c-3.914,8.079-6.334,15.683-12.452,22.552
		c-5.833,6.549-13.587,11.186-21.738,14.228c-17.273,6.444-36.922,3.974-52.373-5.827c-7.102-4.505-11.791-10.176-14.205-18.222
		c-1.853-6.178-2.452-15.526,3.35-19.88c8.714-6.538,17.521,2.465,21.154,9.683c2.293,4.557,4.784,8.389,9.077,10.238
		c7.381,6.649,20.012,5.521,28.44,1.814c11.396-5.012,8.86-17.423,1.22-24.605C95.636,95.94,76.477,97.252,62.973,92.861
		c-17.312-5.63-25.62-25.963-15.291-41.062c9.243-13.511,28.292-20.014,43.875-21.111c16.008-1.126,28.474,6.815,39.366,17.888
		c5.036,5.12,10.307,12.369,8.612,19.939c-1.718,7.674-8.129,9.389-14.272,6.625c-4.35-1.957-8.391-4.53-12.329-7.291
		c-2.709-9.598-12.252-15.944-22.065-17.131c-2.694-0.326-5.195-0.156-7.392,0.454c-3.098-0.167-6.048,0.733-8.316,3.576
		c-6.413,8.04-2.992,18.299,5.154,23.155c10.712,6.385,25.204,6.522,37.256,7.821c7.664,0.826,14.007,3.536,19.572,9.084
		c5.679,5.663,6.829,13.599,7.004,21.341C144.13,116.179,144.103,116.195,144.086,116.229z M103.876,68.885
		c-0.457-0.111-0.918-0.21-1.379-0.311c-2.033-1.876-4.187-3.386-6.46-4.586c-1.625-1.497-3.42-2.686-5.347-3.478
		c-0.019-0.169-0.031-0.339-0.076-0.503c1.896,1.096,3.69,2.344,5.222,3.328C98.576,65.095,101.231,66.983,103.876,68.885z"/>
</g>
<g>
</g>
<g>
</g>
<g>
</g>
<g>
</g>
<g>
</g>
<g>
</g>
<g>
</g>
<g>
</g>
<g>
</g>
<g>
</g>
<g>
</g>
<g>
</g>
<g>
</g>
<g>
</g>
<g>
</g>
</svg>
