<?xml version="1.0" encoding="iso-8859-1"?>
<!-- Generator: Adobe Illustrator 16.0.0, SVG Export Plug-In . SVG Version: 6.00 Build 0)  -->
<!DOCTYPE svg PUBLIC "-//W3C//DTD SVG 1.1//EN" "http://www.w3.org/Graphics/SVG/1.1/DTD/svg11.dtd">
<svg version="1.1" id="Capa_1" xmlns="http://www.w3.org/2000/svg" xmlns:xlink="http://www.w3.org/1999/xlink" x="0px" y="0px"
	 width="191.151px" height="191.151px" viewBox="0 0 191.151 191.151" style="enable-background:new 0 0 191.151 191.151;"
	 xml:space="preserve">
<g>
	<path d="M151.167,122.479c1.392-23.401,4.591-46.582,3.604-70.085c-0.696-16.579-4.056-42.386-22.605-48.834
		c-16.316-5.671-94.074-8.354-87.853,22.243c-7.526,34.674-4.954,70.608-6.99,105.843c-1.324,22.917-6.448,55.499,25.046,58.254
		c14.593,1.275,29.251-0.442,43.899,0.525c10.597,0.7,26.319,2.518,35.395-4.689C156.815,173.7,150.166,139.313,151.167,122.479z
		 M85.118,19.776c2.024-1.101,5.268-1.279,7.085-1.456c5.26-0.513,11.484-0.343,16.731,1.568c-6.031,4.401-13.313,4.888-20.81,4.691
		c-0.989-1.238-2.667-2.95-3.597-3.605C84.73,20.578,84.915,20.17,85.118,19.776z M54.909,17.777
		c-0.239,0.464-0.473,0.984-0.708,1.551c-0.838,0.368-1.529,1.079-1.79,2.028c-0.111,0.401-0.205,0.805-0.314,1.206
		c-0.379,0.222-0.67,0.598-0.897,1.063C51.595,21.313,52.943,19.391,54.909,17.777z M94.56,168.566
		c-1.13,3.466-4.205,4.849-7.613,4.004c-10.673-2.646-4.315-10.729,1.617-14.659c1.666-0.201,3.267,0.088,4.65,1.371
		C95.655,161.55,95.526,165.605,94.56,168.566z M49.481,28.08c0.388-0.23,0.717-0.542,0.986-0.905
		c-0.237,1.42-0.435,2.841-0.652,4.261c-0.402,1.668-0.77,3.341-1.142,5.012C48.921,33.658,49.172,30.868,49.481,28.08z
		 M129.641,90.014c-1.458,17.595-3.745,35.123-5.613,52.681c-9.326-0.367-19.591,2.831-28.969,3.379
		c-11.736,0.686-23.519,0.212-35.138-1.569c1.811-13.504,2.485-27.349,3.855-40.896c2.317-22.905-3.54-45.202-2.442-67.776
		c9.694,6.467,61.406,2.445,70.489,0.847C130.374,54.323,131.107,72.308,129.641,90.014z M146.481,51.345
		c0.247-0.176,0.459-0.384,0.645-0.634c0.096,2.827,0.114,5.614,0.089,8.314C147.036,56.456,146.794,53.897,146.481,51.345z"/>
</g>
<g>
</g>
<g>
</g>
<g>
</g>
<g>
</g>
<g>
</g>
<g>
</g>
<g>
</g>
<g>
</g>
<g>
</g>
<g>
</g>
<g>
</g>
<g>
</g>
<g>
</g>
<g>
</g>
<g>
</g>
</svg>
