<?xml version="1.0" encoding="iso-8859-1"?>
<!-- Generator: Adobe Illustrator 16.0.0, SVG Export Plug-In . SVG Version: 6.00 Build 0)  -->
<!DOCTYPE svg PUBLIC "-//W3C//DTD SVG 1.1//EN" "http://www.w3.org/Graphics/SVG/1.1/DTD/svg11.dtd">
<svg version="1.1" id="Capa_1" xmlns="http://www.w3.org/2000/svg" xmlns:xlink="http://www.w3.org/1999/xlink" x="0px" y="0px"
	 width="186.61px" height="186.61px" viewBox="0 0 186.61 186.61" style="enable-background:new 0 0 186.61 186.61;"
	 xml:space="preserve">
<g>
	<path d="M100.361,2.076C60.07,0.779,14.737,14.373,2.385,57.2c-10.911,37.832,17.303,68.407,50.175,80.442
		c-2.941,7.895,2.007,20.838,5.376,26.403c7.08,11.693,19.934,19.057,33.283,20.554c2.238,0.251,4.195-2.084,4.164-4.164
		c-0.187-12.606-1.02-25.033,0.155-37.577c0.286-0.009,0.554,0.033,0.859-0.031c37.756-7.833,85.373-16.354,89.817-62.606
		C191.313,27.176,146.274,3.556,100.361,2.076z M31.479,77.697c-0.083-5.111,2.641-9.22,5.766-12.91
		c0.526,1.092,1.533,1.889,2.952,1.736c5.091-0.55,9.22,0.481,10.319,5.956c0.943,4.697-2.161,9.623-6.135,11.776
		C38.854,87.249,31.583,84.117,31.479,77.697z M54.916,134.025c-3.923-2.029-7.746-4.317-11.431-6.802
		c1.677,0.757,3.401,1.46,5.181,2.104c2.311,1.379,4.621,2.758,6.932,4.135C55.369,133.65,55.126,133.825,54.916,134.025z
		 M98.078,87.104c-9.792,3.914-18.917-1.277-19.711-11.634c-0.606-7.888,3.189-15.854,9.318-20.725
		c0.05-0.002,0.082,0.02,0.133,0.016c9.087-0.748,16.542,3.033,19.289,12.041C109.533,74.761,105.962,83.955,98.078,87.104z
		 M150.9,73.117c-0.854,3.841-3.894,7.554-7.648,8.838c-5.103,1.744-7.951-4.531-8.06-8.669
		c-0.151-5.712,4.987-10.093,10.396-11.518C149.375,64.511,152.031,68.026,150.9,73.117z"/>
</g>
<g>
</g>
<g>
</g>
<g>
</g>
<g>
</g>
<g>
</g>
<g>
</g>
<g>
</g>
<g>
</g>
<g>
</g>
<g>
</g>
<g>
</g>
<g>
</g>
<g>
</g>
<g>
</g>
<g>
</g>
</svg>
