<?xml version="1.0" encoding="iso-8859-1"?>
<!-- Generator: Adobe Illustrator 16.0.0, SVG Export Plug-In . SVG Version: 6.00 Build 0)  -->
<!DOCTYPE svg PUBLIC "-//W3C//DTD SVG 1.1//EN" "http://www.w3.org/Graphics/SVG/1.1/DTD/svg11.dtd">
<svg version="1.1" id="Capa_1" xmlns="http://www.w3.org/2000/svg" xmlns:xlink="http://www.w3.org/1999/xlink" x="0px" y="0px"
	 width="184.843px" height="184.843px" viewBox="0 0 184.843 184.843" style="enable-background:new 0 0 184.843 184.843;"
	 xml:space="preserve">
<g>
	<g>
		<path d="M124.551,5.101c-5.854-2.201-12.077-3.535-18.023-4.379c-0.378-0.155-0.8-0.258-1.302-0.244
			c-0.102,0.003-0.207,0.014-0.31,0.018c-0.383-0.049-0.779-0.118-1.159-0.163c-7.254-0.858-20.602-0.267-29.344,4.269
			c-34.495,5.853-59.449,43.466-67.652,77.1c-5.532,22.683-4.772,47.771,5.255,69.069c10.941,23.237,38.333,31.371,61.821,33.489
			c25.484,2.297,54.913-1.907,75.576-17.992c21.873-17.027,31.55-42.03,32.079-69.281C182.208,60.207,161.583,12.306,124.551,5.101z
			 M49.758,162.696c-1.596-0.524-3.194-1.022-4.787-1.593c-0.952-0.79-1.878-1.609-2.783-2.452c2.42,1.403,4.959,2.636,7.577,3.725
			C49.761,162.482,49.754,162.59,49.758,162.696z M58.041,175.629c0.425-0.163,0.799-0.428,1.116-0.754
			c2.145,0.756,4.306,1.485,6.477,2.197C63.077,176.694,60.544,176.214,58.041,175.629z M84.254,163.775
			c-16.876-0.527-34.496-5.692-47.519-16.682c-16.924-14.281-16.61-39.225-11.913-58.828c4.374-18.256,14.843-36.023,28.679-48.644
			c12.87-11.739,31.022-14.387,47.548-18.178c41.497,2.469,68.319,44.599,61.906,84.034
			C156.642,144.297,121.007,164.926,84.254,163.775z"/>
		<path d="M94.357,82.852c-0.115-0.265-0.278-0.513-0.52-0.725c-4.913-4.323-11.977-7.195-18.082-9.346
			c-0.914-0.322-1.763-0.456-2.51-0.45c-0.726-0.52-1.448-1.044-2.186-1.554c-0.866-0.598-1.979-0.001-2.369,0.85
			c-1.026,0.092-2.031,0.815-2.011,2.029c0.214,13.06,2.223,27.641,9.674,38.69c8.358,12.397,23.299,8.544,32.8-0.435
			C119.88,101.776,108.023,90.209,94.357,82.852z M99.884,102.173c-0.059,0.283-0.122,0.564-0.209,0.841
			c-0.057,0.179-0.079,0.263-0.089,0.308c-0.02,0.026-0.067,0.108-0.178,0.333c-0.201,0.409-0.436,0.802-0.677,1.188
			c-0.777,1.25-2.126,2.71-3.707,4.022c-0.078,0.062-0.086,0.069-0.126,0.102c-0.225,0.168-0.455,0.329-0.687,0.488
			c-0.407,0.279-0.83,0.532-1.259,0.777c-0.356,0.203-0.726,0.377-1.098,0.548c0.058-0.048-0.769,0.262-0.92,0.306
			c-0.129,0.037-0.601,0.11-0.818,0.15c-0.209,0.012-0.418,0.005-0.626-0.006c0.192-0.044-0.603-0.254-0.46-0.127
			c-0.04-0.022-0.082-0.043-0.122-0.066c-0.016-0.01-0.018-0.011-0.032-0.018c-0.015-0.014-0.018-0.019-0.037-0.036
			c-0.356-0.321-0.565-0.706-0.794-1.416c-0.488-1.508-0.467-3.616-0.08-5.158c0.25-0.999,0.446-1.031,1.392-1.548
			c0.514-0.279,1.077-0.436,1.584-0.733c0.496-0.291,0.823-0.646,1.167-0.955c0.866,0.023,1.783-0.119,2.806-0.193
			c1.129-0.082,2.828-0.062,3.427,0.045c0.153,0.028,0.894,0.262,1.024,0.275c0.121,0.073,0.249,0.156,0.37,0.236
			c0.023,0.132,0.123,0.355,0.162,0.283C99.891,101.956,99.885,102.087,99.884,102.173z"/>
		<path d="M44.64,86.751c-1.595-0.019-3.182,0.232-4.764,0.406c-0.931,0.103-1.88,0.123-2.733,0.345
			c-0.27-0.192-0.604-0.279-0.91-0.047c-0.68,0.517-1.431,0.89-1.731,1.736c-0.267,0.753,0.148,1.419,0.695,1.901
			c1.475,2.669,6.967,1.8,9.444,1.58C48.386,92.339,48.515,86.796,44.64,86.751z"/>
		<path d="M63.525,52.415c-1.43-1.729-3.462-3.377-5.838-2.81c-1.28,0.306-1.965,1.78-1.565,2.994
			c-0.022,0.212-0.035,0.424-0.063,0.644c-0.111,0.895,0.853,1.164,1.515,0.849c0.037,0.012,0.071,0.03,0.108,0.04
			c0.091,0.07,0.211,0.162,0.394,0.301c-0.423-0.326,0.316,0.383,0.385,0.46c0.198,0.221,0.374,0.491,0.658,0.921
			c1.014,1.539,1.762,3.864,3.22,5.009c1.728,1.358,4.837,0.709,4.715-1.953C66.943,56.437,65.015,54.216,63.525,52.415z"/>
		<path d="M94.689,37.203c-0.072,4.103,0.265,8.266,0.843,12.328c0.34,2.389,4.465,2.389,4.805,0
			c0.578-4.062,0.915-8.224,0.842-12.328C101.106,33.018,94.763,33.018,94.689,37.203z"/>
		<path d="M132.892,56.513c-1.497,0.843-2.364,2.459-3.121,3.942c-0.852,1.665-1.695,3.438-2.218,5.234
			c-0.318,1.098,0.196,2.311,1.174,2.883c1.305,0.764,2.658,0.195,3.492-0.916c0.894-1.189,1.586-2.52,2.388-3.773
			c0.715-1.12,1.766-2.13,2.346-3.308C138.239,57.963,135.601,54.985,132.892,56.513z"/>
		<path d="M150.407,94.531c-2.845-2.146-9.16,0.258-11.706,2.167c-0.967,0.726-1.487,1.688-1.189,2.922
			c0.151,0.623-0.292,1.025-0.537,1.549c-0.213,0.451,0.376,0.793,0.664,0.388c0.824-1.163,1.725,0.229,3.056-0.13
			c1.033-0.279,2.038-0.593,3.09-0.8c2.559-0.503,5.057,0.101,7.199-1.627C152.553,97.733,151.718,95.521,150.407,94.531z"/>
	</g>
</g>
<g>
</g>
<g>
</g>
<g>
</g>
<g>
</g>
<g>
</g>
<g>
</g>
<g>
</g>
<g>
</g>
<g>
</g>
<g>
</g>
<g>
</g>
<g>
</g>
<g>
</g>
<g>
</g>
<g>
</g>
</svg>
