<?xml version="1.0" encoding="iso-8859-1"?>
<!-- Generator: Adobe Illustrator 16.0.0, SVG Export Plug-In . SVG Version: 6.00 Build 0)  -->
<!DOCTYPE svg PUBLIC "-//W3C//DTD SVG 1.1//EN" "http://www.w3.org/Graphics/SVG/1.1/DTD/svg11.dtd">
<svg version="1.1" id="Capa_1" xmlns="http://www.w3.org/2000/svg" xmlns:xlink="http://www.w3.org/1999/xlink" x="0px" y="0px"
	 width="184.438px" height="184.438px" viewBox="0 0 184.438 184.438" style="enable-background:new 0 0 184.438 184.438;"
	 xml:space="preserve">
<g>
	<path d="M161.835,27.398C129.812-9.983,75.033-6.336,38.547,21.613C5.06,47.263-10.676,93.322,17.846,128.528
		c1.339,1.652,2.83,3.153,4.396,4.576c1.737,2.686,3.61,5.359,5.597,8.023c-3.19,5.245-5.537,11.122-7.669,17.097
		c-1.472,2.332-2.922,4.685-4.341,7.065c-1.049,1.759-0.736,3.402,0.23,4.557c-1.113,3.002-2.289,5.929-3.623,8.701
		c-1.302,2.706,0.881,6.962,4.338,5.642c14.827-5.662,29.123-12.515,42.905-20.381c30.278,28.795,75.637,12.692,98.877-17.557
		C185.086,111.721,191.502,62.029,161.835,27.398z M82.17,14.036c0.138,0.461,0.345,0.904,0.626,1.316
		c-2.231-0.146-4.465-0.263-6.703-0.334C78.136,14.727,80.191,14.308,82.17,14.036z M61.497,16.732
		c-0.109,0.218-0.161,0.455-0.223,0.691c-3.845,1.69-7.6,3.528-11.169,5.638C53.771,20.657,57.587,18.563,61.497,16.732z
		 M36.424,116.008c-1.587-2.586-3.146-5.188-4.74-7.771c0.237,0.306,0.457,0.618,0.695,0.925c2.281,3.083,4.553,6.171,6.822,9.262
		C38.244,117.645,37.3,116.854,36.424,116.008z M36.037,97.028c0.134-0.549,0.267-1.097,0.404-1.645
		c1.194,2.304,2.357,4.624,3.567,6.92C38.697,100.536,37.369,98.78,36.037,97.028z M46.814,57.345c-0.001-1.757,0-3.514,0.001-5.271
		c0.414-0.127,0.815-0.339,1.21-0.628C47.471,53.317,47.052,55.277,46.814,57.345z M48.431,81.306
		c0.112-0.889,0.219-1.794,0.314-2.712c0.447,1.608,0.936,3.206,1.498,4.786C49.639,82.689,49.035,81.997,48.431,81.306z
		 M114.236,136.063c-16.116-2.457-29.895-14.837-40.097-26.736C63.293,96.676,54.413,80.088,53.801,63.162
		c-0.543-15.026,8.856-24.057,20.541-30.334c4.954,3.626,8.87,7.816,12.359,13.03c3.699,5.528,5.124,11.713,7.85,17.574
		c-6.21,0.403-12.754,4.047-14.427,10.136c-1.771,6.441,2.31,13.12,6.46,17.669c4.828,5.291,11.899,8.931,19.067,9.315
		c3.557,0.191,7.118-0.891,10.072-2.834c0.512-0.337,0.926-0.743,1.354-1.141c0.863-0.351,1.71-0.717,2.499-1.115
		c0.579-0.292,1.14-0.542,1.686-0.756c10.801,2.743,19.917,8.219,25.396,17.937C139.906,126.284,132.232,138.808,114.236,136.063z
		 M87.546,79.438c-0.387-1.122-0.618-2.288-0.586-3.495c0.045-1.707,0.939-2.859,2.235-3.675
		C87.849,74.673,87.359,77.081,87.546,79.438z"/>
</g>
<g>
</g>
<g>
</g>
<g>
</g>
<g>
</g>
<g>
</g>
<g>
</g>
<g>
</g>
<g>
</g>
<g>
</g>
<g>
</g>
<g>
</g>
<g>
</g>
<g>
</g>
<g>
</g>
<g>
</g>
</svg>
