<?xml version="1.0" encoding="iso-8859-1"?>
<!-- Generator: Adobe Illustrator 16.0.0, SVG Export Plug-In . SVG Version: 6.00 Build 0)  -->
<!DOCTYPE svg PUBLIC "-//W3C//DTD SVG 1.1//EN" "http://www.w3.org/Graphics/SVG/1.1/DTD/svg11.dtd">
<svg version="1.1" id="Capa_1" xmlns="http://www.w3.org/2000/svg" xmlns:xlink="http://www.w3.org/1999/xlink" x="0px" y="0px"
	 width="186.988px" height="186.988px" viewBox="0 0 186.988 186.988" style="enable-background:new 0 0 186.988 186.988;"
	 xml:space="preserve">
<g>
	<path d="M175.833,108.949c-1.148-17.119-7.66-32.289-17.726-44.289c2.392-3.228,4.334-7.211,7.713-9.293
		c2.102-1.295,2.714-4.437,0.8-6.212c-5.269-4.887-12.039-8.712-18.847-10.966c-2.031-0.673-3.846,0.771-4.523,2.569
		c-1.019,2.698-2.549,5.142-4.066,7.598c-9.717-5.99-20.795-9.974-32.591-11.418c0.352-5.585,1.046-11.142,1.176-16.741
		c4.497-0.071,8.996-0.016,13.485,0.15c2.271,0.084,4.141-1.953,4.153-4.153c0.018-3.406,0.021-6.812,0.025-10.217
		c0.003-1.789-1.268-3.628-3.067-4.03c-15.44-3.445-31.234-1.958-46.509,1.649c-1.816,0.429-3.121,2.255-3.11,4.085
		c0.021,3.406,0.064,6.811,0.106,10.217c0.03,2.368,1.663,3.621,3.462,3.884c0.746,0.842,1.859,1.383,3.278,1.109
		c3.041-0.587,6.101-1.048,9.169-1.429c-0.085,4.868-0.133,9.738-0.23,14.607c-1.597,0-3.198,0.098-4.8,0.308
		c-40.128-0.004-71.563,32.117-72.728,73.242c-1.472,51.929,46.698,79.11,93.278,77.282
		C147.371,185.209,178.73,152.17,175.833,108.949z M148.01,46.257c0.277,0.124,0.545,0.291,0.822,0.42
		c-0.013,0.018-0.034,0.029-0.046,0.047c-0.281,0.409-0.575,0.807-0.865,1.209c-1.612,0.944-2.601,2.941-2.233,4.739
		c-0.02,0.045-0.05,0.088-0.068,0.134c-0.525-0.404-1.025-0.838-1.562-1.227C145.362,49.795,146.689,48.027,148.01,46.257z
		 M135.748,55.147c-0.006,0.148,0.044,0.278,0.062,0.42c-2.262-1.328-4.617-2.54-7.063-3.631
		c-5.229-2.858-10.814-4.952-16.898-6.141c-0.081-0.075-0.164-0.135-0.245-0.21C120.395,47.441,128.53,50.665,135.748,55.147z
		 M41.332,60.496c-2.009,1.732-3.909,3.583-5.62,5.626c-2.572,2.66-5.02,5.408-7.146,8.325
		C32.069,69.19,36.434,64.586,41.332,60.496z M18.639,115.123c-0.211-2.621-0.276-5.17-0.22-7.657
		c0.071,0.713,0.129,1.423,0.239,2.141c0.069,13.836,4.5,27.802,12.572,39.559c0.365,0.531,0.794,0.915,1.252,1.191
		c1.545,2.375,3.241,4.568,5.054,6.618C27.043,146.424,20.025,132.376,18.639,115.123z M95.2,179.837
		c0.094-0.134,0.145-0.283,0.223-0.426c2.997-0.206,5.968-0.512,8.92-0.911c0.093,0.367,0.231,0.718,0.425,1.051
		C101.569,179.802,98.375,179.897,95.2,179.837z M92.012,168.959c-34.715-2.677-56.483-32.512-54.566-65.925
		c1.88-32.779,26.849-49.773,56.796-47.571c0.531,1.108,1.556,1.957,3.173,1.927c34.585-0.651,60.572,22.742,60.596,57.839
		C158.036,152.086,125.793,171.564,92.012,168.959z M147.911,162.111c-0.166-0.238-0.339-0.465-0.553-0.655
		c3.499-2.772,6.763-5.911,9.704-9.517c0.815-0.999,1.578-2.021,2.299-3.063C156.208,153.791,152.339,158.221,147.911,162.111z"/>
	<path d="M113.262,102.757c-1.565-2.322-3.716-3.894-6.154-4.85c-0.304-2.289-0.804-4.573-1.154-6.909
		c-0.925-6.16-1.391-12.389-1.499-18.614c-0.07-3.967-6.412-5.122-7.138-0.966c-1.425,8.166-3.809,16.12-5.096,24.316
		c-0.166,1.059-0.3,2.053-0.397,3.015c-5.673,2.531-10.188,7.317-10.479,13.363c-0.064,1.321,0.11,2.642,0.444,3.929
		c-0.43,1.728-0.515,3.504-0.122,5.219c1.895,8.285,11.395,12.454,19.22,11.242C113.018,130.624,119.892,112.586,113.262,102.757z"
		/>
</g>
<g>
</g>
<g>
</g>
<g>
</g>
<g>
</g>
<g>
</g>
<g>
</g>
<g>
</g>
<g>
</g>
<g>
</g>
<g>
</g>
<g>
</g>
<g>
</g>
<g>
</g>
<g>
</g>
<g>
</g>
</svg>
