<?xml version="1.0" encoding="iso-8859-1"?>
<!-- Generator: Adobe Illustrator 16.0.0, SVG Export Plug-In . SVG Version: 6.00 Build 0)  -->
<!DOCTYPE svg PUBLIC "-//W3C//DTD SVG 1.1//EN" "http://www.w3.org/Graphics/SVG/1.1/DTD/svg11.dtd">
<svg version="1.1" id="Capa_1" xmlns="http://www.w3.org/2000/svg" xmlns:xlink="http://www.w3.org/1999/xlink" x="0px" y="0px"
	 width="185.835px" height="185.835px" viewBox="0 0 185.835 185.835" style="enable-background:new 0 0 185.835 185.835;"
	 xml:space="preserve">
<g>
	<path d="M185.121,66.312c-0.999-14.177-4.526-30.042-20.008-33.574c-17.027-3.884-35.756-2.83-53.055-2.306
		c-22.227,0.673-44.481,2.42-66.525,5.356c-5.159,0.687-33.043,2.093-35.46,10.8c-0.994-0.139-2.108,0.439-2.2,1.77
		C5.935,76.526-5.935,107.967,3.77,135.759c6.728,19.266,33.504,20.119,50.215,20.177c23.976,0.083,47.425-1.52,71.45-0.571
		c18.658,0.734,44.504-0.764,52.774-21.072C186.386,114.218,186.616,87.524,185.121,66.312z M161.671,62.663
		c-0.062,1.046-0.03,2.093-0.078,2.922c-0.068,1.188-0.079,2.378-0.12,3.567c-1.343,0.094-2.729,0.188-4.128,0.299
		c-0.031-2.285-0.061-4.577-0.081-6.877C158.732,62.616,160.202,62.636,161.671,62.663z M161.333,74.155
		c-0.022,2.002-0.028,4.004-0.027,6.005c-1.303-0.031-2.609-0.031-3.911-0.085c0.018-1.92,0.018-3.843,0.002-5.768
		C158.708,74.243,160.018,74.173,161.333,74.155z M157.294,84.893c1.346,0.127,2.69,0.209,4.037,0.305
		c0.007,1.548,0.018,3.095,0.029,4.643c-1.44-0.03-2.879-0.039-4.305,0.011C157.16,88.198,157.241,86.545,157.294,84.893z
		 M149.803,62.234c1.269,0.088,2.538,0.139,3.807,0.197c-0.022,2.478-0.074,4.959-0.14,7.44c-1.404,0.196-2.796,0.432-4.133,0.793
		C149.498,67.854,149.654,65.044,149.803,62.234z M149.094,74.7c1.414-0.044,2.825-0.133,4.237-0.213
		c-0.062,1.778-0.121,3.557-0.192,5.335c-1.451-0.087-2.899-0.148-4.353-0.26C148.89,77.942,148.996,76.321,149.094,74.7z
		 M148.518,83.626c1.469,0.311,2.951,0.553,4.44,0.763c-0.082,1.942-0.163,3.885-0.244,5.826c-1.548,0.202-3.075,0.472-4.547,0.892
		c-0.076,0.022-0.149,0.065-0.224,0.096C148.138,88.678,148.345,86.154,148.518,83.626z M22.073,46.44
		c-0.158,0.203-0.306,0.405-0.416,0.636c-0.532,0.211-0.929,0.559-1.221,0.989c-0.472-0.499-1.118-0.825-1.818-0.878
		C19.603,46.952,20.771,46.701,22.073,46.44z M133.701,94.517c-0.66,13.799-0.413,26.16-6.792,38.888
		c-0.188,0.375-0.281,0.741-0.318,1.099c-0.396-1.472-1.766-2.807-3.689-2.521c-16.985,2.535-33.972,4.178-51.155,4.256
		c-15.138,0.068-36.324-0.007-48.58-10.27c-16.577-13.883-2.222-47.951,0.226-66.224c0.794,0.002,1.588,0.004,2.381,0.006
		c6.082,3.157,17.972,2.535,22.074,2.578c17.072,0.176,34.163-1.995,51.167-3.239c12.114-0.887,33.844-4.469,35.371,11.93
		C135.105,78.747,134.069,86.794,133.701,94.517z M140.169,101.868c0.15-2.424,0.247-4.855,0.308-7.284
		c0.182,0.225,0.388,0.407,0.632,0.547C140.801,97.377,140.486,99.622,140.169,101.868z M147.655,94.998
		C147.656,94.999,147.656,94.999,147.655,94.998c0.817,0.479,1.923,0.261,2.819,0.226c0.684-0.026,1.366-0.013,2.049-0.017
		c-0.07,1.843-0.143,3.686-0.2,5.526c-1.706-0.036-3.418-0.085-5.172-0.147C147.322,98.724,147.501,96.862,147.655,94.998z
		 M159.401,135.334c-2.222,1.622-5.408,1.643-8.298,1.38c0.061-2.744,0.289-5.441,0.911-8.124c1.481,0.354,3.209,0.189,4.631,0.226
		c1.628,0.042,3.256,0.084,4.885,0.127C161.619,131.346,161.345,133.918,159.401,135.334z M162.167,100.421
		c0.017,0.075,0.037,0.14,0.055,0.209c-2.118,0.094-4.231,0.139-6.358,0.132c0.296-1.844,0.538-3.686,0.735-5.523
		c0.612,0.015,1.225,0.026,1.836,0.04c0.988,0.02,1.976,0.065,2.962,0.1c0.001,0.069,0.001,0.138,0.001,0.208
		c0.024,2.267,1.661,4.343,1.743,4.567C162.92,99.546,162.016,99.779,162.167,100.421z M168.859,136.52
		c0.259-0.762,0.475-1.537,0.672-2.316c0.425-0.753,0.819-1.523,1.181-2.312c0.011,0.647,0.004,1.293,0.019,1.94
		C170.155,134.778,169.531,135.673,168.859,136.52z M171.149,99.808c-2.527,0.377-5.008,0.613-7.474,0.757
		c0.793-1.609,1.268-3.306,1.527-5.058c2.028,0.085,4.058,0.175,6.088,0.236C171.24,97.098,171.198,98.453,171.149,99.808z
		 M171.508,90.25c-1.956-0.065-3.963-0.171-5.982-0.265c-0.009-1.486-0.049-2.979-0.07-4.462c1.977,0.168,4.096,0.405,6.221,0.456
		C171.619,87.402,171.564,88.826,171.508,90.25z M171.91,80.012c-2.026,0.044-4.076,0.251-5.972,0.248
		c-0.158,0-0.315-0.01-0.475-0.01c0.006-2.013,0.022-4.026,0.037-6.038c2.214,0.068,4.435,0.152,6.634,0.073
		C172.065,76.195,171.984,78.103,171.91,80.012z M172.321,68.608c-2.242-0.074-4.523,0.064-6.787,0.235
		c0.003-0.197,0.001-0.393,0.003-0.589c0.021-1.481,0.417-3.572,0.482-5.506c2.157,0.033,4.314,0.063,6.47,0.117
		C172.442,64.78,172.38,66.694,172.321,68.608z M178.627,91.436c-0.238,4.37-0.613,8.737-1.111,13.091
		c-0.005-6.67,0.444-13.216,1.078-19.768c0.184-0.143,0.342-0.311,0.461-0.513C178.902,86.923,178.738,89.382,178.627,91.436z"/>
</g>
<g>
</g>
<g>
</g>
<g>
</g>
<g>
</g>
<g>
</g>
<g>
</g>
<g>
</g>
<g>
</g>
<g>
</g>
<g>
</g>
<g>
</g>
<g>
</g>
<g>
</g>
<g>
</g>
<g>
</g>
</svg>
