<?xml version="1.0" encoding="iso-8859-1"?>
<!-- Generator: Adobe Illustrator 16.0.0, SVG Export Plug-In . SVG Version: 6.00 Build 0)  -->
<!DOCTYPE svg PUBLIC "-//W3C//DTD SVG 1.1//EN" "http://www.w3.org/Graphics/SVG/1.1/DTD/svg11.dtd">
<svg version="1.1" id="Capa_1" xmlns="http://www.w3.org/2000/svg" xmlns:xlink="http://www.w3.org/1999/xlink" x="0px" y="0px"
	 width="193.619px" height="193.619px" viewBox="0 0 193.619 193.619" style="enable-background:new 0 0 193.619 193.619;"
	 xml:space="preserve">
<g>
	<path d="M172.325,10.13c-0.396-2.493-3.184-4.169-5.512-4.196c-29.626-0.341-75.815-16.138-101.37,5.26
		c-13.073,10.945-15.066,26.203-13.711,42.35c0.78,9.302,3.081,19.22,1.295,28.518c-0.233,1.212-0.723,4.061,0.161,5.638
		c-36.913,9.864-55.702,98.314,3.965,105.403c23.032,2.736,42.716-5.575,53.926-21.384c16.481,1.91,34.729-1.565,50.921-3.751
		c2.547-0.344,4.266-3.3,4.29-5.634C166.807,111.386,180.386,61.071,172.325,10.13z M151.3,96.326
		c-15.846,0.422-31.572,1.265-47.273-1.049c-5.165-5.501-11.309-9.702-18.23-11.624c7.73,0.173,15.538-0.008,22.896,0.428
		c14.037,0.833,28.218,2.371,42.347,2.799C151.141,90.028,151.225,93.177,151.3,96.326z M150.657,75.766
		c-13.987-0.686-27.979-1.354-41.965-2.014c-11.079-0.523-27.725-3.188-39.228,1.255c0.675-4.046,1.136-8.266,1.399-12.596
		c14.675,2.22,30.239,1.758,44.923,2.384c10.159,0.433,20.313,0.961,30.463,1.6c1.304,0.082,2.679,0.252,4.085,0.43
		C150.443,69.81,150.545,72.788,150.657,75.766z M70.911,43.118c4.359,0.732,8.979,1.424,9.507,1.472
		c11.497,1.039,23.031,1.702,34.546,2.478c11.483,0.773,22.982,1.394,34.484,1.781c0.141,0.005,0.31,0.018,0.458,0.025
		c0.017,2.511,0.056,5.021,0.114,7.533c-0.171-0.01-0.344-0.015-0.515-0.027c-9.879-0.669-19.777-1.095-29.669-1.514
		c-15.742-0.667-32.808-2.425-48.696-0.495C71.177,50.612,71.103,46.85,70.911,43.118z M108.185,30.295
		c13.619,0.517,28.027,2.332,41.984,2.099c-0.033,1.071-0.062,2.155-0.104,3.26c-0.034,0.92-0.021,1.843-0.047,2.763
		c-1.154,0.054-2.261,0.089-3.252,0.058c-13.986-0.435-27.961-1.352-41.939-1.984c-5.405-0.244-23.681-3.101-34.412-0.492
		c-0.136-1.565-0.271-3.131-0.439-4.66c3.106-0.295,6.246-1.004,9.325-1.211C88.881,29.481,98.605,29.931,108.185,30.295z
		 M71.763,20.794c0.525-0.01,1.05-0.037,1.576-0.049c0.559,0.572,1.22,0.988,1.918,1.175c-2.266,0.569-4.453,1.269-6.468,2.207
		c-0.02-0.034-0.022-0.081-0.042-0.114C69.626,22.883,70.646,21.817,71.763,20.794z M69.338,181.794
		c0.142-2.951,0.267-5.903,0.461-8.85c0.232-3.524-5.698-3.524-5.466,0c0.199,3.021,0.326,6.049,0.472,9.073
		c-1.594,0.015-3.205-0.016-4.84-0.121c-22.384-1.467-31.062-20.808-29.912-40.839c2.577,2.169,6.158,2.564,9.423,2.758
		c3.488,0.206,3.49-5.613,0-5.411c-2.12,0.123-5.165,0.483-6.947-0.959c-0.689-0.559-1.449-0.617-2.114-0.418
		c2.653-21.697,16.517-42.857,36.735-41.696c-0.632,3.066,0.792,6.766,3.048,8.69c1.267,1.078,3.631-0.406,2.472-1.907
		c-1.484-1.921-1.085-4.119-1.351-6.231c1.179,0.239,2.368,0.513,3.584,0.905c1.557,0.502,2.64-0.525,2.916-1.775
		c17.839,2.578,28.518,18.135,31.118,36.965c-1.002,0.066-2.001,0.144-2.979,0.188c-2.353,0.104-4.705,0.209-7.057,0.314
		c-2.918,0.13-2.918,4.397,0,4.526l7.057,0.314c1.146,0.051,2.321,0.151,3.497,0.219C110.777,163.922,93.1,179.818,69.338,181.794z
		 M137.574,158.509c0.396-0.7,0.666-1.514,0.735-2.454c0.134,0.192,0.264,0.378,0.396,0.573c0.494,0.718,1.137,1.243,1.827,1.669
		C139.547,158.366,138.561,158.441,137.574,158.509z M141.153,115.087c-8.038,0.645-16.072,1.296-24.117,1.844
		c-1.785-4.869-4.1-9.604-6.938-13.918c13.476,2.747,27.581,2.654,41.369,2.496c0.031,2.783,0.043,5.566,0.029,8.349
		C147.962,114.233,144.412,114.827,141.153,115.087z"/>
	<path d="M54.332,88.091c0.051,0,0.051-0.079,0-0.079"/>
	<g>
		<path d="M72.948,109.671c0.162,0.047,0.284,0.126,0.43,0.186c0.019,0.007,0.034,0.008,0.052,0.016
			C73.186,109.767,72.985,109.682,72.948,109.671z"/>
		<path d="M73.605,109.925c-0.065-0.029-0.113-0.026-0.175-0.053C74.198,110.202,75.424,110.744,73.605,109.925z"/>
		<path d="M95.713,143.643c-7.049-1.885-14.169-3.949-21.327-5.374c-0.202-1.711-0.958-3.237-2.642-4.255
			c0.436-0.389,0.821-0.854,1.047-1.486c1.779-4.973,2.467-10.543,3.157-15.761c0.341-2.575,0.194-5.801-2.57-6.91
			c-0.896-0.365-1.588-0.446-2.605-0.288c-1.012,0.157-1.651,0.84-2.069,1.66c-0.108,0.156-0.257,0.288-0.331,0.466
			c-0.511,1.102-0.653,1.916-0.804,3.121c-0.235,1.876-0.33,3.773-0.558,5.653c-0.443,3.672-1.158,7.413-1.183,11.115
			c-0.001,0.079,0.032,0.133,0.036,0.209c-1.856,0.445-3.151,1.835-3.883,3.669c-1.334,3.337-0.589,8.025,2.687,9.944
			c2.748,1.609,6.054,0.749,8.031-1.409c6.722,3.006,14.039,4.649,20.9,7.311C98.316,153.14,100.736,144.988,95.713,143.643z"/>
	</g>
</g>
<g>
</g>
<g>
</g>
<g>
</g>
<g>
</g>
<g>
</g>
<g>
</g>
<g>
</g>
<g>
</g>
<g>
</g>
<g>
</g>
<g>
</g>
<g>
</g>
<g>
</g>
<g>
</g>
<g>
</g>
</svg>
