<?xml version="1.0" encoding="iso-8859-1"?>
<!-- Generator: Adobe Illustrator 16.0.0, SVG Export Plug-In . SVG Version: 6.00 Build 0)  -->
<!DOCTYPE svg PUBLIC "-//W3C//DTD SVG 1.1//EN" "http://www.w3.org/Graphics/SVG/1.1/DTD/svg11.dtd">
<svg version="1.1" id="Capa_1" xmlns="http://www.w3.org/2000/svg" xmlns:xlink="http://www.w3.org/1999/xlink" x="0px" y="0px"
	 width="191.724px" height="191.725px" viewBox="0 0 191.724 191.725" style="enable-background:new 0 0 191.724 191.725;"
	 xml:space="preserve">
<g>
	<path d="M174.395,155.485c-0.423-11.174-2.113-27.688-12.781-34.237c-12.123-7.441-26.173-0.621-32.729,10.693
		c-8.476,14.624-7.917,36.443-3.137,52.158c0.063,0.207,0.185,0.338,0.271,0.515c-0.827,0.368-1.626,0.8-2.383,1.321
		c-1.331,0.915-1.053,3.656,0.924,3.41c2.396-0.299,5.709,0.664,8.208,0.695c4.632,0.054,9.274,0.35,13.903,0.527
		c5.955,0.23,17.556,3.11,22.389-1.191c0.903-0.805,0.956-2.291,0.299-3.285c0.52-0.01,1.038-0.146,1.397-0.398
		C177.346,181.071,174.657,162.391,174.395,155.485z M161.452,133.762c-2.22-2.76-5.022-5.088-8.51-6.85
		C156.129,127.539,159.121,129.684,161.452,133.762z M131.916,183.086c-0.005-0.228,0.037-0.436-0.017-0.683
		c-0.216-0.997-0.372-2.015-0.546-3.026c2.29,2.537,5.268,4.295,7.928,2.901c0.476,0.195,0.939,0.423,1.422,0.601
		C137.794,182.776,134.793,182.727,131.916,183.086z"/>
	<path d="M162.381,63.087c-11.953-7.601-27.558-0.359-33.649,11.368c-3.961,7.625-2.484,15.814,1.901,22.279
		c0.089,0.211,0.157,0.422,0.258,0.635c1.274,2.68,3.437,4.644,6.034,5.977c2.233,1.697,4.7,3.078,7.315,4.006
		c0.398,1.633,1.646,3.079,3.77,3.229c12.685,0.885,26.906-3.33,28.917-17.709C178.545,81.298,172.063,69.244,162.381,63.087z
		 M169.184,91.726c-0.175,1.183-0.484,2.238-0.898,3.188c0.629-4.734,0.432-10-0.966-14.653
		C168.962,83.908,169.746,87.929,169.184,91.726z"/>
	<path d="M156.876,6.305c-0.019-2.762-2.102-4.266-4.601-4.601c-24.982-3.355-51.236-0.94-76.292,0.354
		C63.259,2.714,50.52,3.521,37.857,4.963c-5.437,0.619-11.228,1.079-14.741,5.763c-1.07,1.428-0.732,3.062,0.249,4.242
		c-12.344,6.475-8.198,44.977-7.949,53.824c0.861,30.629,2.567,61.793,6.932,92.15c0.469,3.257,3.426,3.67,5.716,2.476
		c1.014,1.735,3.302,2.047,4.718,0.879c10.181,3.979,22.282,4.387,32.885,4.884c11.783,0.552,31.37,3.116,41.414-4.327
		c1.165-0.863,1.708-2.219,1.568-3.462c1.406,1.106,3.396-0.881,2.592-2.529c-1.855-3.808,0.517-14.319,1.476-18.521
		c2.229-9.75,8.181-17.28,11.189-26.448c0.056-0.172,0.046-0.336,0.075-0.505c1.402-0.969,2.096-3.068,0.683-4.858
		c-16.037-20.306-7.83-62.814,23.349-58.972c2.694,0.332,4.359-1.796,4.704-4.137c1.09-0.133,2.104-0.787,2.446-2.08
		C158.399,31.147,156.962,18.778,156.876,6.305z M29.696,53.82c26.08,1.852,52.189,0.987,78.324,0.527
		c-1.216,1.772-2.349,3.616-3.398,5.512c-24.972,1.334-50.095,1.457-75.019,3.334C29.572,60.067,29.608,56.943,29.696,53.82z
		 M107.792,85.902c-0.458-0.167-0.942-0.297-1.431-0.421c0.3-1.844,0.745-3.705,1.325-5.575
		C107.621,81.906,107.626,83.91,107.792,85.902z M30.402,83.053c-0.181-2.755-0.321-5.514-0.449-8.273
		c6.187,2.552,13.229,2.79,20.332,3.136c15.382,0.751,31.89,1.605,47.411,0.189c-0.503,2.319-0.857,4.641-1.07,6.948
		c-7.863,0.749-16.548,3.302-22.469,3.905c-12.988,1.324-29.74,3.368-43.301,0.133C30.7,87.078,30.535,85.063,30.402,83.053z
		 M75.172,110.055c-14.135,0.052-28.285,0.662-42.372,1.904c-0.301-3.537-0.613-7.074-0.927-10.609
		c9.008,3.441,23.19,1.689,31.774,2.404c11.804,0.985,23.62,1.496,35.404,0.883c0.659,1.68,1.495,3.273,2.423,4.816
		C92.709,109.006,83.443,110.023,75.172,110.055z M137.662,28.956c-0.146,1.36-0.467,2.941-0.677,4.545
		c-4.099,0.711-8.04,2.253-11.762,4.399c-31.444-0.815-63.339,2.146-94.791,3.769c0.51-4.002,2.06-8.006,3.585-11.945
		c19.269-2.483,38.638-3.518,58.065-4.372c14.116-0.621,31.082,1.602,45.967-0.184C137.917,26.431,137.796,27.695,137.662,28.956z
		 M140.057,11.339c-5.18-0.237-10.358-0.409-15.537-0.519c5.435-0.121,10.861-0.152,16.281-0.114
		C140.531,10.883,140.284,11.097,140.057,11.339z M148.335,26.956c-0.138-0.536-0.188-1.014-0.276-1.515
		c0.076-0.776,0.148-1.553,0.217-2.331c0.123-0.037,0.252-0.064,0.375-0.102c0.133,2.14,0.241,4.281,0.344,6.422
		C148.772,28.606,148.547,27.783,148.335,26.956z"/>
</g>
<g>
</g>
<g>
</g>
<g>
</g>
<g>
</g>
<g>
</g>
<g>
</g>
<g>
</g>
<g>
</g>
<g>
</g>
<g>
</g>
<g>
</g>
<g>
</g>
<g>
</g>
<g>
</g>
<g>
</g>
</svg>
