<?xml version="1.0" encoding="iso-8859-1"?>
<!-- Generator: Adobe Illustrator 16.0.0, SVG Export Plug-In . SVG Version: 6.00 Build 0)  -->
<!DOCTYPE svg PUBLIC "-//W3C//DTD SVG 1.1//EN" "http://www.w3.org/Graphics/SVG/1.1/DTD/svg11.dtd">
<svg version="1.1" id="Capa_1" xmlns="http://www.w3.org/2000/svg" xmlns:xlink="http://www.w3.org/1999/xlink" x="0px" y="0px"
	 width="181.124px" height="181.124px" viewBox="0 0 181.124 181.124" style="enable-background:new 0 0 181.124 181.124;"
	 xml:space="preserve">
<g>
	<path d="M73.164,81.554C62.03,62.404,25.101,71.359,11.5,82.487c-20.074,16.425-8.432,59.604-5.261,81.372
		c0.124,0.853,0.516,1.501,1,2.056c-0.534,2.389,0.761,5.268,3.972,5.399c22.506,0.914,54.474,7.844,60.23-20.571
		c2.611-12.892,3.739-26.196,4.426-39.309C76.322,102.755,77.809,89.542,73.164,81.554z M49.909,80.773
		c-0.676-0.032-1.337-0.011-1.937,0.156c-0.311,0.086-0.573,0.242-0.84,0.392c-2.922-0.071-5.961-0.003-8.364,1.58
		c-1.001-0.139-2-0.312-3.003-0.438C40.548,81.131,45.479,80.499,49.909,80.773z"/>
	<path d="M169.6,133.409c3.588-3.281,6.381-7.334,6.525-12.38c0.149-5.218-1.991-11.876-6.539-14.98
		c9.615-8.572,13.216-20.941,0.27-28.853c-11.075-6.767-26.547-7.856-39.506-8.105c7.413-10.78,10.649-28.657,8.79-39.631
		c-1.062-6.27-11.471-32.852-22.091-21.694c-8.022,8.429-6.385,21.984-13.033,31.119c-4.793,6.586-9.184,13.474-13.775,20.2
		c-2.212,3.24-4.359,6.528-6.617,9.736c-0.428,0.608-0.76,1.244-0.991,1.92c-0.76,0.769-1.299,1.804-1.312,3.2
		c-0.229,25.046-2.555,49.925-3.767,74.923c-0.04,0.81,0.145,1.445,0.418,1.998c-0.092,0.926,0.177,1.934,1.015,2.881
		c19.158,21.664,51.799,28.402,78.094,16.475c9.323-4.229,21.044-10.318,23.704-21.15
		C182.691,141.297,176.236,136.434,169.6,133.409z M87.096,150.76c-0.557-0.422-1.123-0.84-1.666-1.269
		c0.061-0.215,0.176-0.39,0.207-0.625c0.086-0.648,0.153-1.299,0.23-1.948c0.215,0.193,0.42,0.393,0.71,0.537
		c0.199,0.099,0.404,0.181,0.603,0.279c0.121,0.48,0.41,0.907,0.828,1.28C87.546,149.525,87.223,150.119,87.096,150.76z
		 M121.063,77.938c-0.027-0.022-0.057-0.046-0.086-0.068c0.002-0.011,0.004-0.013,0.006-0.024c0.248-0.752,0.393-1.585,0.535-2.414
		c0.646,0.15,1.331,0.173,2.005,0.033c0.259,0.873,0.743,1.664,1.433,2.269C123.657,77.779,122.36,77.865,121.063,77.938z
		 M126.046,49.765l0.008-0.003c0.009,0.028,0.018,0.057,0.027,0.085c0.325,0.974,1.019,1.602,1.823,1.962
		c-0.679,1.858-1.42,3.698-2.241,5.483C125.986,54.843,126.081,52.324,126.046,49.765z M133.813,152.129
		c-0.344,0.021-0.611,0.145-0.904,0.235c0.155-0.377,0.292-0.772,0.342-1.229c0.319-2.914,0.496-5.827,0.717-8.74
		c-0.013,3.208,0.085,6.424,0.331,9.646C134.14,152.056,133.971,152.121,133.813,152.129z M161.428,145.518
		c0.573-1.026,0.57-2.299-0.537-3.295c-0.638-0.573-1.931-1.877-3.409-3.163c0.042-0.245,0.103-0.489,0.144-0.735
		c0.532,0.634,1.197,1.188,2.172,1.498c0.21,0.066,0.383,0.136,0.585,0.203c1.315,1.75,2.352,3.604,2.545,5.361
		C162.427,145.428,161.928,145.481,161.428,145.518z"/>
</g>
<g>
</g>
<g>
</g>
<g>
</g>
<g>
</g>
<g>
</g>
<g>
</g>
<g>
</g>
<g>
</g>
<g>
</g>
<g>
</g>
<g>
</g>
<g>
</g>
<g>
</g>
<g>
</g>
<g>
</g>
</svg>
