<?xml version="1.0" encoding="iso-8859-1"?>
<!-- Generator: Adobe Illustrator 16.0.0, SVG Export Plug-In . SVG Version: 6.00 Build 0)  -->
<!DOCTYPE svg PUBLIC "-//W3C//DTD SVG 1.1//EN" "http://www.w3.org/Graphics/SVG/1.1/DTD/svg11.dtd">
<svg version="1.1" id="Capa_1" xmlns="http://www.w3.org/2000/svg" xmlns:xlink="http://www.w3.org/1999/xlink" x="0px" y="0px"
	 width="192.484px" height="192.485px" viewBox="0 0 192.484 192.485" style="enable-background:new 0 0 192.484 192.485;"
	 xml:space="preserve">
<g>
	<path d="M143.281,38.284c-6.035-24.53-34.404-38.613-57.401-27.518c-37.209,17.952-15.583,83.799,7.566,104.895
		c0.852,0.776,1.934,0.865,2.854,0.535c1.498,0.875,3.462,0.99,5.125-0.455C123.77,96.31,151.314,70.932,143.281,38.284z
		 M107.515,21.28c0.354,0.549,0.826,1.04,1.457,1.42c20.227,12.175-4.774,42.171-15.827,27.568
		c-4.128-5.454-1.91-13.915,0.99-19.356C97.054,25.437,101.898,22.287,107.515,21.28z"/>
	<path d="M89.376,110.763c0.068,0,0.068-0.106,0-0.106"/>
	<path d="M191.933,145.882c0.392-14.636,0.902-29.569,0.209-44.192c-0.046-0.973-0.42-1.693-0.921-2.25
		c0.557-0.968,0.645-2.221,0.127-3.287c-0.269-1.524-1.349-2.776-2.744-3.21c-7.192-7.644-15.709-15.127-23.693-21.825
		c-0.165-0.492-0.569-0.779-1.031-0.864c-1.444-1.195-3.267-1.289-4.699,0.012c-10.93,9.926-20.732,20.82-33.172,28.937
		c-0.86,0.562-1.219,1.469-1.246,2.383c-6.054,6.355-11.227,14.216-18.261,19.332c-15.593,11.342-25.225-9.652-31.791-21.842
		c-0.014-0.047-0.025-0.097-0.039-0.145c0.583-1.18,0.529-2.607-0.777-3.81c-0.403-0.371-0.814-0.728-1.22-1.094
		c-2.562-5.034-6.33-9.523-9.93-13.789c-3.335-3.952-9.281-11.939-15.327-10.748c-0.542,0.107-0.98,0.402-1.348,0.772
		c-1.683-0.667-3.698-0.129-5.106,1.058C31.385,79.388,8.16,89.836,5.991,103.538c-0.044,0.279-0.051,0.558-0.04,0.838
		c-0.09,0.184-0.183,0.369-0.231,0.562c-2.059,8.29-2.497,17.31-2.863,25.818c-0.74,17.188-6.623,37.19,1.025,53.465
		c1.08,2.299,4.143,1.347,4.82-0.657c0.252-0.128,0.507-0.225,0.748-0.434c5.653-4.879,10.397-10.596,15.364-16.15
		c9.731-10.88,17.251-12.701,30.537-5.494c10.659,5.781,23.681,22.258,36.154,22.824c15.23,0.689,30.495-18.318,41.596-26.617
		c1.891-1.414,8.514-8.158,11.422-5.412c3.854,3.639,7.64,7.353,11.478,11.01c7.916,7.543,16.251,14.328,25.479,20.182
		c1.721,1.092,3.384,0.745,4.548-0.264c0.639,0.272,1.375,0.094,1.867-0.577C194.801,173.209,191.632,157.124,191.933,145.882z
		 M42.508,148.323c-0.651-0.025-1.293-0.029-1.92,0.002c0.294-4.479-0.163-9.283-0.762-14.119
		c1.058-17.002-1.196-34.061,1.282-50.991c0.848-0.667,1.696-1.333,2.539-2.014c0.536,0.62,1.113,1.197,1.669,1.795
		C45.263,104.784,44.911,126.657,42.508,148.323z M96.894,174.907c-0.266,0.109-0.512,0.258-0.796,0.332
		c-0.078-14.027-1.682-28.016-1.314-42.041c1.159,0.178,2.349,0.269,3.577,0.236C97.333,147.196,97.892,161.124,96.894,174.907z
		 M148.037,144.536c1.533-8.934,0.561-18.666,1.076-27.644c0.647-11.237,2.372-22.179,5.222-33.004
		c1.831-1.849,3.694-3.662,5.604-5.422c-3.071,11.205-4.732,22.989-6.743,34.327c-1.925,10.853-3.989,22.389-3.292,33.49
		C149.282,145.702,148.661,145.118,148.037,144.536z"/>
</g>
<g>
</g>
<g>
</g>
<g>
</g>
<g>
</g>
<g>
</g>
<g>
</g>
<g>
</g>
<g>
</g>
<g>
</g>
<g>
</g>
<g>
</g>
<g>
</g>
<g>
</g>
<g>
</g>
<g>
</g>
</svg>
