<?xml version="1.0" encoding="iso-8859-1"?>
<!-- Generator: Adobe Illustrator 16.0.0, SVG Export Plug-In . SVG Version: 6.00 Build 0)  -->
<!DOCTYPE svg PUBLIC "-//W3C//DTD SVG 1.1//EN" "http://www.w3.org/Graphics/SVG/1.1/DTD/svg11.dtd">
<svg version="1.1" id="Capa_1" xmlns="http://www.w3.org/2000/svg" xmlns:xlink="http://www.w3.org/1999/xlink" x="0px" y="0px"
	 width="189.643px" height="189.643px" viewBox="0 0 189.643 189.643" style="enable-background:new 0 0 189.643 189.643;"
	 xml:space="preserve">
<g>
	<path d="M170.261,94.528c0.255-2.833-2.827-4.53-5.254-4.002c-26.506,5.765-56.907-2.343-83.496-4.652
		c-2.547-0.221-5.412-0.493-8.433-0.751c-8.038-20.118-4.27-41.108,13.984-54.351c6.445-4.675,14.863-7.908,22.902-6.627
		c11.253,1.793,12.021,12.094,15.32,20.743c0.5,1.31,1.41,2.031,2.399,2.296c-0.028,0.453-0.044,0.906,0.009,1.383
		c0.086,0.774,0.131,1.449,0.626,2.607c1.13,2.642,3.938,3.518,6.445,2.306c1.005-0.486,1.781-1.35,2.43-2.325
		c0.422-0.42,0.701-0.953,0.867-1.532c0.386-0.809,0.724-1.627,0.978-2.379c0.515-1.524,0.741-3.125,0.925-4.717
		c0.227-1.968,0.397-4.396-0.601-6.158c-0.193-0.342-0.438-0.601-0.706-0.818c-3.311-14.396-9.73-27.725-24.137-33.644
		c-13.312-5.469-28.943,1.77-39.425,9.782c-12.161,9.296-20.883,22.74-24.929,37.436c-2.198,7.982-3.169,27.599,4.467,35.166
		c-12.252,0.185-24.531,2.323-32.166,9.794c-1.382-0.909-3.866,0.065-3.959,2.075c-1.335,28.746,1.464,57.653,1.574,86.431
		c0.007,1.732,1.248,3.656,3.045,3.999c47.535,9.062,95.24-5.489,142.98,0.158c1.639,0.194,3.781-1.399,4.009-3.052
		C174.224,153.923,167.578,124.32,170.261,94.528z M104.116,15.534c0.386,0.108,0.771,0.227,1.155,0.359
		c-6.149,0.23-12.229,2.294-17.764,5.204c-0.029-0.07-0.038-0.151-0.07-0.219C92.928,17.706,98.738,15.71,104.116,15.534z
		 M66.658,181.439c0.231-0.346,0.424-0.71,0.558-1.095c1.766,0.131,3.53,0.222,5.293,0.324c0.226,0.158,0.452,0.316,0.677,0.477
		C71.011,181.256,68.836,181.36,66.658,181.439z M111.02,129.935c-2.08,2.426-5.756,1.371-8.329,2.883
		c-1.134,0.666-1.512,1.79-1.324,2.86c-0.05,0.147-0.118,0.277-0.145,0.445c-0.747,4.646,1.772,9.62,1.708,14.451
		c-0.07,5.231-2.546,8.212-6.704,8.894c-0.453-8.496-2.199-16.623-4.225-24.871c-0.647-2.636-3.668-2.269-4.722-0.427
		c-0.15-0.211-0.284-0.438-0.439-0.645c0.022-0.685-0.291-1.367-1.123-1.819c-0.331-0.18-0.624-0.372-0.925-0.562
		c-0.864-0.884-1.815-1.652-2.814-2.356c-8.222-9.432,7.86-25.155,20.088-19.536c5.549,2.55,9.154,8.265,10.316,14.086
		C112.82,125.527,112.507,128.201,111.02,129.935z M121.408,119.816c-0.775-0.739-1.774-1.109-2.773-1.119
		c-0.348-1.121-0.809-2.215-1.319-3.29c1.408,1.331,2.77,2.713,4.093,4.189C121.409,119.67,121.409,119.743,121.408,119.816z"/>
</g>
<g>
</g>
<g>
</g>
<g>
</g>
<g>
</g>
<g>
</g>
<g>
</g>
<g>
</g>
<g>
</g>
<g>
</g>
<g>
</g>
<g>
</g>
<g>
</g>
<g>
</g>
<g>
</g>
<g>
</g>
</svg>
