<?xml version="1.0" encoding="iso-8859-1"?>
<!-- Generator: Adobe Illustrator 16.0.0, SVG Export Plug-In . SVG Version: 6.00 Build 0)  -->
<!DOCTYPE svg PUBLIC "-//W3C//DTD SVG 1.1//EN" "http://www.w3.org/Graphics/SVG/1.1/DTD/svg11.dtd">
<svg version="1.1" id="Capa_1" xmlns="http://www.w3.org/2000/svg" xmlns:xlink="http://www.w3.org/1999/xlink" x="0px" y="0px"
	 width="194.233px" height="194.233px" viewBox="0 0 194.233 194.233" style="enable-background:new 0 0 194.233 194.233;"
	 xml:space="preserve">
<g>
	<path d="M178.269,6.054c-0.123-5.079-5.112-7.278-9.371-5.377c-37.471,16.727-68.297,50.955-111.075,53.397
		c-4.857,0.277-6.536,8.09-1.211,8.951c0.048,0.008,0.097,0.011,0.145,0.019c0.098,0.139,0.227,0.262,0.399,0.356
		c0.131,0.071-0.395,2.52,0.368,3.822c1.654,2.824,4.485,5.379,6.728,7.723c5.997,6.27,11.961,12.565,17.984,18.808
		c-9.514,8.629-18.32,17.919-27.372,27.187c-9.414,9.637-20.874,16.957-30.58,26.268c-17.893,17.165-3.772,34.178,11.958,46.051
		c1.761,1.329,5.134,1.271,6.903,0c14.615-10.492,25.56-25.194,36.167-39.524c8.737-11.805,17.381-24.093,25.188-36.758
		c2.027,2.141,4.102,4.235,6.115,6.387c4.331,4.627,8.465,11.332,14.774,12.606c1.214,0.246,2.431,0.085,3.472-0.392
		c2.096,1.462,5.173,1.547,7.245-0.479c6.316-6.17,9.03-17.09,12.472-25.076c4.857-11.271,9.493-22.631,13.853-34.103
		C170.77,53.971,178.843,29.823,178.269,6.054z M31.243,161.909c0.86-2.324,2.574-4.804,5.389-7.538
		c0.091-0.089,0.192-0.168,0.284-0.257C35.006,156.695,33.106,159.285,31.243,161.909z"/>
</g>
<g>
</g>
<g>
</g>
<g>
</g>
<g>
</g>
<g>
</g>
<g>
</g>
<g>
</g>
<g>
</g>
<g>
</g>
<g>
</g>
<g>
</g>
<g>
</g>
<g>
</g>
<g>
</g>
<g>
</g>
</svg>
