<?xml version="1.0" encoding="iso-8859-1"?>
<!-- Generator: Adobe Illustrator 16.0.0, SVG Export Plug-In . SVG Version: 6.00 Build 0)  -->
<!DOCTYPE svg PUBLIC "-//W3C//DTD SVG 1.1//EN" "http://www.w3.org/Graphics/SVG/1.1/DTD/svg11.dtd">
<svg version="1.1" id="Capa_1" xmlns="http://www.w3.org/2000/svg" xmlns:xlink="http://www.w3.org/1999/xlink" x="0px" y="0px"
	 width="188.328px" height="188.328px" viewBox="0 0 188.328 188.328" style="enable-background:new 0 0 188.328 188.328;"
	 xml:space="preserve">
<g>
	<path d="M172.21,106.079c-1.332-1.659-3.807-0.978-4.943,0.529c-2.244-0.478-4.826-0.516-6.145-0.64
		c-2.344-0.221-4.706-0.292-7.062-0.337c-1.829-1.638-5.418-1.016-6.215,1.363c-0.751,0.809-1.012,1.998-0.046,2.856
		c3.372,42.935-45.291,58.772-79.535,42.696c-43.821-20.572-34.292-67.245-6.381-94.566c5.088-3.18,9.868-6.85,14.264-11.198
		c0.295-0.182,0.582-0.38,0.879-0.557c3.152,4.877,6.365,9.713,9.905,14.309c1.958,2.543,5.162,2.694,7.097,0
		c11.808-16.444,18.226-35.842,27.758-53.563c1.589-2.954-0.454-5.953-3.588-6.252c-10.881-1.038-21.8-0.825-32.698-0.177
		C76.642,1.071,65.173,1.095,57.19,5.358c-1.727,0.922-2.1,2.806-1.558,4.383c-0.189,0.761-0.087,1.602,0.457,2.421
		c0.162,0.244,0.298,0.5,0.456,0.745c0.14,1.52,0.713,3.116,1.526,4.672c-0.076,0.549,0.251,1.064,0.712,1.262
		c0.211,0.349,0.431,0.693,0.659,1.032c0.04,0.079,0.105,0.15,0.15,0.228c-3.774,2.532-7.476,5.16-11.105,7.923
		C31.68,34.72,20.264,54.655,15.385,71.497c-8.343,28.806-4.493,64.527,14.27,88.479c22.076,28.182,75.563,36.111,106.442,20.371
		C155.334,170.543,189.958,128.195,172.21,106.079z"/>
</g>
<g>
</g>
<g>
</g>
<g>
</g>
<g>
</g>
<g>
</g>
<g>
</g>
<g>
</g>
<g>
</g>
<g>
</g>
<g>
</g>
<g>
</g>
<g>
</g>
<g>
</g>
<g>
</g>
<g>
</g>
</svg>
