<?xml version="1.0" encoding="iso-8859-1"?>
<!-- Generator: Adobe Illustrator 16.0.0, SVG Export Plug-In . SVG Version: 6.00 Build 0)  -->
<!DOCTYPE svg PUBLIC "-//W3C//DTD SVG 1.1//EN" "http://www.w3.org/Graphics/SVG/1.1/DTD/svg11.dtd">
<svg version="1.1" id="Capa_1" xmlns="http://www.w3.org/2000/svg" xmlns:xlink="http://www.w3.org/1999/xlink" x="0px" y="0px"
	 width="185.461px" height="185.461px" viewBox="0 0 185.461 185.461" style="enable-background:new 0 0 185.461 185.461;"
	 xml:space="preserve">
<g>
	<path d="M123.445,174.826c-0.026-5.477-0.304-10.619-1.644-15.926c-0.589-2.334-3.185-2.77-4.866-1.766
		c-0.505-1.36-1.789-2.407-3.594-1.886c-40.786,11.774-87.958-37.015-71.483-76.751c5.871-0.336,11.736-0.522,17.48,0.123
		c4.301,0.483,4.237-6.212,0-6.707c-0.341-0.04-0.691-0.033-1.034-0.066c1.24-0.713,1.97-2.285,1.174-3.996
		c-6.86-14.736-12.581-28.965-17.309-44.623c-0.843-2.793-4.836-3.523-6.329-0.827C26.29,39.639,16.44,57.645,0.823,70.059
		c-0.993,0.789-0.993,1.891-0.501,2.792c-0.593,1.517,0.181,3.564,2.346,3.66c2.866,0.127,5.721,0.357,8.578,0.561
		c2.061,1.586,6.224,2.03,9.412,2.152c-19.398,56.073,43.779,120.1,100.388,100.19c1.614-0.567,2.252-1.977,2.176-3.324
		C123.366,175.721,123.447,175.3,123.445,174.826z M31.9,129.344c0.775,1.409,1.532,2.824,2.274,4.243
		c0.07,0.247,0.12,0.49,0.249,0.745c1.409,2.782,2.861,5.492,4.377,8.16c-2.676-4.144-5.038-8.524-7.029-13.09
		C31.817,129.391,31.855,129.357,31.9,129.344z"/>
	<path d="M174.812,138.686c17.997-37.841,13.884-87.786-17.73-117.188C143.734,9.083,122.678,5.405,105.316,3.305
		C92.555,1.762,69.1,0.506,59.929,12.465c-2.216-1.14-5.515,0.584-4.546,3.479c0.296,0.885,0.643,1.75,0.982,2.618
		c0.011,0.043,0,0.077,0.014,0.121c0.585,1.861,1.353,3.609,2.238,5.347c0.03,0.059,0.07,0.124,0.102,0.184
		c0.951,2.175,1.893,4.355,2.692,6.59c0.233,1.775,1.853,2.467,3.384,2.277c0.025,0.038,0.044,0.079,0.069,0.117
		c1.612,2.47,4.997,1.297,5.567-0.86c0.201,0.001,0.402,0.004,0.619-0.064c27.414-8.55,53.227-2.101,73.4,18.519
		c20.966,21.43,23.692,52.899,5.049,76.49c-0.093,0.118-0.157,0.241-0.231,0.362c-5.894-2.496-11.884-4.808-17.913-6.273
		c-0.462-0.112-0.868-0.062-1.24,0.052c-1.143-0.409-2.631,0.36-3.03,1.588c-0.374,0.127-0.71,0.331-0.988,0.605
		c-1.639-0.025-3.229,0.966-3.02,2.99c1.54,14.932,1.688,30.083,6.02,44.566c0.643,2.146,2.887,2.868,4.805,1.954
		c12.434-5.923,25.834-9.691,36.459-18.21c3.326-2.095,6.281-4.547,8.611-7.422c2.27-0.279,4.351-3.028,2.056-4.875
		C179.116,141.085,177.012,139.814,174.812,138.686z"/>
</g>
<g>
</g>
<g>
</g>
<g>
</g>
<g>
</g>
<g>
</g>
<g>
</g>
<g>
</g>
<g>
</g>
<g>
</g>
<g>
</g>
<g>
</g>
<g>
</g>
<g>
</g>
<g>
</g>
<g>
</g>
</svg>
