<?xml version="1.0" encoding="iso-8859-1"?>
<!-- Generator: Adobe Illustrator 16.0.0, SVG Export Plug-In . SVG Version: 6.00 Build 0)  -->
<!DOCTYPE svg PUBLIC "-//W3C//DTD SVG 1.1//EN" "http://www.w3.org/Graphics/SVG/1.1/DTD/svg11.dtd">
<svg version="1.1" id="Capa_1" xmlns="http://www.w3.org/2000/svg" xmlns:xlink="http://www.w3.org/1999/xlink" x="0px" y="0px"
	 width="189.654px" height="189.654px" viewBox="0 0 189.654 189.654" style="enable-background:new 0 0 189.654 189.654;"
	 xml:space="preserve">
<g>
	<path d="M161.355,87.309c1.335-25.834-13.77-50.402-38.529-60.049c-27.721-10.8-51.293,3.481-59.779,29.856
		c-24.982-4.874-47.686,28.669-29.842,46.114c-22.274,3.061-43.072,26.229-28.17,47.794c17.628,25.509,63.121,10.716,88.242,10.893
		c31.385,0.22,76.746,6.109,92.697-28.477C196.221,111.221,184.125,89.472,161.355,87.309z M10.561,140.662
		c0.983,1.263,2.293,2.47,3.924,3.606c1.072,2.058,2.611,4.091,4.447,6.024C15.051,147.867,11.989,144.596,10.561,140.662z
		 M56.572,92.101c-0.01-0.027-0.014-0.053-0.024-0.08c0.488-0.827,0.953-1.697,1.364-2.625c0.215,0.51,0.501,0.986,0.849,1.411
		C58.053,91.385,57.318,91.814,56.572,92.101z M78.473,153.147c-0.001-0.256-0.027-0.511-0.065-0.767
		c1.585,0.127,3.173,0.26,4.765,0.393C81.605,152.881,80.04,153.016,78.473,153.147z M117.975,94.309
		c-2.325-0.574-3.9,0.725-4.401,2.403c-0.308,0.002-0.614,0.001-0.923,0.004c0.004,0.03,0.01,0.062,0.014,0.093
		c-1.402,0.074-2.436,0.745-3.097,1.66c-1.36,0.6-2.465,1.88-2.642,3.78c-1.135,12.215,4.553,24.666,6.141,37.041
		c-8.341,0.274-16.669,0.849-25.011,1.128c2.199-12.549,6.77-25.345,5.141-38.017c0.073-1.843-1.123-3.73-3.634-3.943
		c-2.567-0.218-5.305,0.046-8.012,0.345c3.674-4.018,5.648-10.87,7.44-15.146c3.523-8.409,6.602-17.02,10.82-25.08
		c3.791,6.048,7.564,12.106,11.189,18.258c3.018,5.124,5.271,12.305,8.53,17.799C119.008,94.546,118.488,94.436,117.975,94.309z
		 M117.59,37.378c-1.09-0.793-2.209-1.539-3.35-2.248c1.231,0.311,2.473,0.65,3.742,1.079c0.566,0.191,1.104,0.439,1.659,0.651
		C118.896,36.843,118.203,37.029,117.59,37.378z"/>
</g>
<g>
</g>
<g>
</g>
<g>
</g>
<g>
</g>
<g>
</g>
<g>
</g>
<g>
</g>
<g>
</g>
<g>
</g>
<g>
</g>
<g>
</g>
<g>
</g>
<g>
</g>
<g>
</g>
<g>
</g>
</svg>
