<?xml version="1.0" encoding="iso-8859-1"?>
<!-- Generator: Adobe Illustrator 16.0.0, SVG Export Plug-In . SVG Version: 6.00 Build 0)  -->
<!DOCTYPE svg PUBLIC "-//W3C//DTD SVG 1.1//EN" "http://www.w3.org/Graphics/SVG/1.1/DTD/svg11.dtd">
<svg version="1.1" id="Capa_1" xmlns="http://www.w3.org/2000/svg" xmlns:xlink="http://www.w3.org/1999/xlink" x="0px" y="0px"
	 width="192.26px" height="192.261px" viewBox="0 0 192.26 192.261" style="enable-background:new 0 0 192.26 192.261;"
	 xml:space="preserve">
<g>
	<path d="M158.778,79.124c-0.396-6.512,0.231-16.332-3.469-22.103c-0.542-0.846-1.506-1.231-2.449-1.227
		c-0.21-1.484-1.237-2.733-3.205-2.515c-1.665,0.187-3.327,0.344-4.991,0.52c5.312-8.541,4.812-27.05,4.486-34.208
		c-0.801-17.562-17.892-19.537-32.313-19.587C101.883-0.046,78.285,0.038,67.51,12.249c-9.154,10.374-4.744,30.18-3.641,42.926
		c-2.342-0.239-4.682-0.447-7.027-0.749c-1.199-0.155-1.899,0.611-2.119,1.556c-0.549-0.829-2.041-0.831-2.548,0.377
		c-8.605,20.462-9.752,50.251,1.137,70.301c7.445,13.709,27.089,13.958,42.821,13.35c-0.936,5.157-3.593,9.453-10.083,11.619
		c-10.989,3.668-22.701,3.851-33.619,7.935c-7.904,2.956-16.519,7.571-19.376,15.995c-2.971,8.76,8.105,14.978,14.712,16.624
		c2.66,0.662,5.345-3.001,2.887-4.959c-5.177-4.124-13.288-8.816-4.869-15.116c4.871-3.646,10.979-5.645,16.745-7.314
		c9.069-2.627,18.655-2.883,27.601-6.122c9.235-3.344,12.235-10.716,12.551-18.935c1.728-0.072,3.393-0.134,4.908-0.155
		c19.443-0.27,45.504-5.016,50.706-27.554C160.709,101.561,159.421,89.712,158.778,79.124z M55.13,59.117
		c-0.892,2.608-1.526,5.216-2.03,7.818c-0.065,0.246-0.126,0.494-0.192,0.74c0.542-3.741,1.187-7.202,1.89-10.196
		c0.125,0.374,0.347,0.7,0.631,0.974C55.316,58.657,55.213,58.875,55.13,59.117z M83.061,78.218
		c-1.362-0.124-2.725-0.244-4.09-0.347c-0.574-0.15-1.156-0.22-1.717-0.108c-0.192-0.014-0.384-0.023-0.575-0.037
		c-0.226-0.413-0.45-0.783-0.672-1.16c2.372,0.519,4.742,1.05,7.126,1.495C83.108,78.111,83.083,78.163,83.061,78.218z
		 M137.083,54.35c-0.011,0.076,0.003,0.146-0.004,0.221c-1.38,0.13-2.758,0.239-4.138,0.359c-0.176-0.049-0.35-0.092-0.526-0.141
		c-1.246-0.343-2.277-0.103-3.047,0.45c-19.929,1.607-39.811,2.117-59.769,0.499c0.362-10.638-1.158-21.594,0.488-32.123
		C72.452,8.49,93.433,8.936,105.002,7.707c13.939-1.479,36.604-4.092,37.418,14.989C142.897,33.894,138.581,43.657,137.083,54.35z"
		/>
	<path d="M99.703,18.337c-5.19-2.938-13.633-1.932-19.008-0.063c-4.57,1.588-2.755,8.581,2.015,7.308
		c4.742-1.266,9.254-0.916,14-0.145C100.836,26.106,103.788,20.65,99.703,18.337z"/>
	<path d="M122.026,17.666c-3.695,0.794-7.598,0.661-11.309,1.29c-2.951,0.501-2.953,5.441,0,5.94
		c4.066,0.687,18.853,2.515,18.557-4.627C129.109,16.318,124.562,17.121,122.026,17.666z"/>
</g>
<g>
</g>
<g>
</g>
<g>
</g>
<g>
</g>
<g>
</g>
<g>
</g>
<g>
</g>
<g>
</g>
<g>
</g>
<g>
</g>
<g>
</g>
<g>
</g>
<g>
</g>
<g>
</g>
<g>
</g>
</svg>
