<?xml version="1.0" encoding="iso-8859-1"?>
<!-- Generator: Adobe Illustrator 16.0.0, SVG Export Plug-In . SVG Version: 6.00 Build 0)  -->
<!DOCTYPE svg PUBLIC "-//W3C//DTD SVG 1.1//EN" "http://www.w3.org/Graphics/SVG/1.1/DTD/svg11.dtd">
<svg version="1.1" id="Capa_1" xmlns="http://www.w3.org/2000/svg" xmlns:xlink="http://www.w3.org/1999/xlink" x="0px" y="0px"
	 width="187.773px" height="187.773px" viewBox="0 0 187.773 187.773" style="enable-background:new 0 0 187.773 187.773;"
	 xml:space="preserve">
<g>
	<path d="M180.096,51.218C166.065,17.016,135.082,1.77,102.768,2.13c-0.619-0.946-1.682-1.59-2.934-1.193
		c-1.589,0.504-3.191,1.038-4.805,1.599c-19.449,1.695-38.931,8.88-55.075,20.897c-5.823,4.335-10.519,9.669-13.522,16.072
		c-4.463,4.364-8.22,9.547-11.579,14.798c-4.556,7.122-10.651,17.82-11.606,27.272c-3.885,12.38-4.522,25.817-0.609,40.149
		c14.452,52.936,74.889,78.833,123.878,58.067C177.328,158.253,201.198,102.662,180.096,51.218z M167.791,43.933
		c0.353,0.546,0.661,1.103,0.998,1.652c-0.123-0.015-0.246-0.025-0.37-0.028c-1.914-2.872-3.83-5.743-5.745-8.614
		C164.484,39.176,166.218,41.486,167.791,43.933z M79.612,179.083c1.991-0.007,3.981-0.018,5.964-0.049
		c0.134,0.248,0.269,0.49,0.47,0.691C83.888,179.598,81.744,179.378,79.612,179.083z M142.764,151.909
		c-1.903,1.075-3.827,2.104-5.767,3.1c2.404-1.596,4.745-3.286,6.999-5.087c0.001,0.212,0.04,0.407,0.079,0.608
		C143.632,150.977,143.197,151.442,142.764,151.909z M167.062,106.587c-9.405,32.919-44.897,55.144-77.715,56.958
		c-14.947,0.826-28.755-3.729-40.055-11.776c-0.158-0.382-0.396-0.758-0.75-1.11c-4.046-4.028-8.124-7.783-12.46-11.227
		c-11.11-13.479-17.316-31.186-15.878-49.42c3.185-40.363,41.044-66.758,78.615-70.126c0.396,1.316,1.465,2.387,3.257,2.355
		C145.127,21.453,178.712,65.808,167.062,106.587z"/>
	<path d="M136.873,126.983c-4.178-8.171-8.655-16.115-11.864-24.739c-1.047-2.812-4.581-3.433-6.297-0.823
		c-0.313,0.477-0.633,0.949-0.95,1.422c-1.031-0.218-2.163-0.049-3.178,0.757c-0.685,0.544-1.323,1.128-1.957,1.715
		c-2.652-2.519-5.564-4.832-8.452-7.131c-0.273-0.297-0.555-0.583-0.84-0.872c1.388-1.881,2.421-4.074,2.896-6.51
		c1.311-6.721-2.978-12.702-8.47-14.991c-0.114-1.299-0.29-2.602-0.385-3.855c-0.332-4.424-0.664-8.859-0.798-13.295
		c2.546,0.373,5.078,0.756,7.541,1.257c3.087,0.628,5.786-2.445,4.128-5.37c-4.467-7.884-8.427-15.815-10.104-24.797
		c-0.587-3.139-5.453-3.71-6.845-0.895c-2.286,4.618-4.38,9.331-6.356,14.09c-1.113,2.68-2.964,5.643-2.625,8.428
		c-0.452-0.013-0.911-0.02-1.362-0.035c-2.398-0.077-2.636,3.279-0.541,4c2.939,1.011,6.022,1.686,9.151,2.233
		c-0.008,0.118-0.063,0.203-0.061,0.328c0.061,3.95,0.121,7.899,0.181,11.848c0.024,1.544-0.121,3.335-0.096,5.096
		c-4.843,0.689-9.121,2.891-11.251,7.832c-2.145,4.975-1.188,10.714,1.691,15.203c4.283,6.676,11.441,7.416,17.241,4.538
		c1.541,1.562,3.406,2.954,4.571,4.057c1.826,1.729,3.713,3.383,5.638,4.99c-2.709,4.237-4.356,9.082-4.595,14.325
		c-0.079,1.746,1.215,3.022,2.729,3.584c8.911,3.299,18.778,3.082,28.144,3.044C136.606,132.406,138.104,129.388,136.873,126.983z"
		/>
</g>
<g>
</g>
<g>
</g>
<g>
</g>
<g>
</g>
<g>
</g>
<g>
</g>
<g>
</g>
<g>
</g>
<g>
</g>
<g>
</g>
<g>
</g>
<g>
</g>
<g>
</g>
<g>
</g>
<g>
</g>
</svg>
