<?xml version="1.0" encoding="iso-8859-1"?>
<!-- Generator: Adobe Illustrator 16.0.0, SVG Export Plug-In . SVG Version: 6.00 Build 0)  -->
<!DOCTYPE svg PUBLIC "-//W3C//DTD SVG 1.1//EN" "http://www.w3.org/Graphics/SVG/1.1/DTD/svg11.dtd">
<svg version="1.1" id="Capa_1" xmlns="http://www.w3.org/2000/svg" xmlns:xlink="http://www.w3.org/1999/xlink" x="0px" y="0px"
	 width="191.394px" height="191.394px" viewBox="0 0 191.394 191.394" style="enable-background:new 0 0 191.394 191.394;"
	 xml:space="preserve">
<g>
	<g>
		<path d="M107.036,23.701c-18.232-17.379-49.17-20.113-68.775-3.54c-0.903,0.764-0.605,1.852,0.12,2.473
			c-3.477,6.357-4.849,14.758-6.538,21.239c-2.42,9.283-4.339,18.708-6.839,27.971c-0.385,0.608-0.777,1.214-1.157,1.824
			c-0.326,0.524-0.294,1.127-0.073,1.661c-0.065,0.033-0.131,0.065-0.195,0.1c-2.123,1.15-0.669,4.628,1.643,3.899
			c11.329-3.572,22.646-4.557,34.396-2.704c9.78,1.541,17.948,6.38,27.193,9.304c2.064,0.653,3.87-1.682,3.198-3.475
			c0.692-0.998,0.821-2.495,0.989-3.591c0.81-5.287,2.346-10.486,3.903-15.59c3.547-11.623,7.862-23.095,12.603-34.283
			c0.317-0.748,0.314-1.47,0.118-2.114C108.118,25.901,108.077,24.693,107.036,23.701z"/>
		<path d="M85.484,101.989c-0.005-0.014-0.006-0.028-0.012-0.042c-10.005-25.59-51.001-12.978-69.015-5.841
			c-1.242,0.492-1.168,2.147,0.052,2.465c-5.062,7.216-6.902,17.074-8.919,25.431c-2.262,9.373-4.118,18.816-7.433,27.898
			c-0.354,0.97-0.077,1.809,0.493,2.406c0.149,1.425,1.593,2.637,3.335,1.763c19.64-9.852,44.32-13.891,60.395,4.572
			c0.859,0.986,1.903,1.166,2.83,0.87c0.787,0.744,2.051,0.886,2.674-0.384c8.242-16.809,16.829-37.909,17.496-56.795
			C87.425,103.068,86.526,102.249,85.484,101.989z"/>
		<path d="M163.772,114.093c-20.321,11.138-45.591,6.586-63.778-6.454c-1.91-1.369-3.833,1.024-3.13,2.842
			c-5.413,5.877-7.552,16.942-9.902,24.264c-2.773,8.644-6.954,19.182-6.519,28.445c-0.623,0.361-1.024,1.035-0.698,1.842
			c9.685,24.002,52.83,19.258,70.335,8.146c1.021-0.648,1.437-1.527,1.424-2.382c2.429-3.862,2.969-11.841,4.111-15.108
			c2.655-7.602,9.669-19.707,9.842-29.328c0.652-2.361,0.942-4.838,1.013-7.244c0.06-0.032,0.123-0.059,0.183-0.092
			C169.868,117.223,167,112.322,163.772,114.093z"/>
		<path d="M190.582,41.699c2.144-2.024-0.325-5.957-3.154-4.287c-20.963,12.377-46.883,9.445-65.383-6.021
			c-1.027-0.859-2.184-0.536-2.796,0.227c-1.312-0.16-2.709,0.441-3.192,2.08c-5.434,18.445-11.602,36.94-14.204,56.048
			c-0.001,0.008,0,0.015-0.001,0.022c-0.621,0.772-0.788,2.031-0.077,2.925c8.013,10.069,21.486,13.193,33.741,13.767
			c11.47,0.537,29.272-1.438,38.178-9.357c0.7-0.622,0.805-1.341,0.576-1.974c10.121-14.791,15.803-35.133,16.356-52.779
			C190.634,42.116,190.617,41.9,190.582,41.699z"/>
	</g>
</g>
<g>
</g>
<g>
</g>
<g>
</g>
<g>
</g>
<g>
</g>
<g>
</g>
<g>
</g>
<g>
</g>
<g>
</g>
<g>
</g>
<g>
</g>
<g>
</g>
<g>
</g>
<g>
</g>
<g>
</g>
</svg>
