<?xml version="1.0" encoding="iso-8859-1"?>
<!-- Generator: Adobe Illustrator 16.0.0, SVG Export Plug-In . SVG Version: 6.00 Build 0)  -->
<!DOCTYPE svg PUBLIC "-//W3C//DTD SVG 1.1//EN" "http://www.w3.org/Graphics/SVG/1.1/DTD/svg11.dtd">
<svg version="1.1" id="Capa_1" xmlns="http://www.w3.org/2000/svg" xmlns:xlink="http://www.w3.org/1999/xlink" x="0px" y="0px"
	 width="188.908px" height="188.909px" viewBox="0 0 188.908 188.909" style="enable-background:new 0 0 188.908 188.909;"
	 xml:space="preserve">
<g>
	<path d="M187.508,77.722c-1.305-11.559-4.023-23.139-9.849-32.526c-3.479-14.319-15.876-21.101-29.831-23.448
		c-17.761-2.987-37.117-2.308-55.137-3.077c-10.582-0.452-43.142-3.608-62.721,3.108C-3.617,18.352,0.25,88.429,0.044,108.748
		c-0.172,17.106,3.195,35.078,17.184,46.294c15.721,12.606,38.036,12.545,57.122,14.108c22.446,1.84,45.504,3.686,67.909,0.463
		c17.037-2.451,33.166-7.968,39.686-25.249C189.793,123.566,189.971,99.534,187.508,77.722z M93.428,27.332
		c-2.431,0.211-4.862,0.477-7.293,0.786c-0.11-0.397-0.29-0.763-0.5-1.111C88.234,27.102,90.832,27.208,93.428,27.332z
		 M167.98,68.62c1.492,0.399,2.719,0.01,3.602-0.761c-0.183,3.717-0.478,7.407-0.695,10.971c-0.752,12.394-0.36,24.431-0.115,36.838
		c0.268,13.544,0.924,30.001-14.264,35.399c-11.654,4.142-26.062,1.418-38.191,1.564c-23.332,0.282-46.744,1.913-69.965-1.27
		c-9.828-1.348-20.794-3.638-28.56-10.199c-7.653-6.466-6.616-20.063-6.761-29.068c-0.248-15.439,1.386-30.735,3.056-46.03
		C66.553,67.163,118.366,55.348,167.98,68.62z M100.187,161.416c6.043-0.159,12.086-0.339,18.13-0.451
		c4.469-0.083,8.932,0.033,13.385,0.116C121.25,161.948,110.705,161.898,100.187,161.416z M178.918,110.088
		c-0.006-0.247-0.015-0.497-0.021-0.741c-0.174-5.739-0.02-11.564,0.207-17.419C179.369,97.939,179.326,104.025,178.918,110.088z"/>
	<path d="M34.206,81.459c0.005-0.41-0.032-0.809-0.13-1.168c-0.498-1.809-2.157-3.022-4.012-3.055
		c-1.56-0.028-3.347,0.551-4.666,1.394c-1.985,1.268-3.324,4.184-1.78,6.346c1.62,2.269,3.881,2.505,6.446,2.562
		c2.434,0.054,4.466-2.073,4.466-4.466C34.529,82.511,34.408,81.967,34.206,81.459z"/>
	<path d="M30.063,104.015c-2.512,0.002-6.231,1.088-6.724,3.913c-1.293,1.126-2.021,2.883-1.535,4.62
		c0.616,2.201,2.614,3.277,4.498,4.24c2.475,1.266,5.176,0.143,6.072-2.47c0.573-1.671,1.146-3.343,1.719-5.013
		C34.984,106.708,32.653,104.013,30.063,104.015z"/>
	<path d="M154.002,84.044c-35.688-3.755-71.411,1.867-107.19-2.696c-3.984-0.508-4.34,5.527-0.903,6.676
		c34.152,11.419,72.801,2.085,108.094,4.125C159.291,92.456,159.092,84.581,154.002,84.044z"/>
	<path d="M153.189,108.415c-6.301-1.021-12.898,0.588-19.259,1.038c-9.843,0.697-19.739,0.7-29.601,0.673
		c-20.189-0.056-40.752-1.731-60.868,0.458c-3.4,0.37-3.382,4.883,0,5.272c20.101,2.314,40.653,2.432,60.868,2.617
		c14.373,0.133,36.614,3.062,49.635-4.126C156.26,113.082,156.031,108.875,153.189,108.415z"/>
</g>
<g>
</g>
<g>
</g>
<g>
</g>
<g>
</g>
<g>
</g>
<g>
</g>
<g>
</g>
<g>
</g>
<g>
</g>
<g>
</g>
<g>
</g>
<g>
</g>
<g>
</g>
<g>
</g>
<g>
</g>
</svg>
