<?xml version="1.0" encoding="iso-8859-1"?>
<!-- Generator: Adobe Illustrator 16.0.0, SVG Export Plug-In . SVG Version: 6.00 Build 0)  -->
<!DOCTYPE svg PUBLIC "-//W3C//DTD SVG 1.1//EN" "http://www.w3.org/Graphics/SVG/1.1/DTD/svg11.dtd">
<svg version="1.1" id="Capa_1" xmlns="http://www.w3.org/2000/svg" xmlns:xlink="http://www.w3.org/1999/xlink" x="0px" y="0px"
	 width="190.894px" height="190.894px" viewBox="0 0 190.894 190.894" style="enable-background:new 0 0 190.894 190.894;"
	 xml:space="preserve">
<g>
	<path d="M141.722,10.202C126.868,2.951,109.999-0.183,93.564,0.008c-2.987,0.035-4.548,2.122-4.742,4.369
		C66.997,6.809,45.68,15.083,29.231,29.771C8.822,47.997,2.821,76.917,3.282,103.119c0.962,54.63,45.889,92.093,99.763,87.374
		C188.818,182.981,222.324,49.551,141.722,10.202z M59.682,49.309C63.219,49,66.773,48.874,70.328,48.8
		c-0.618,6.944-1.236,13.889-1.854,20.833c-5.684,0.011-11.368,0.036-17.052,0.087c-0.2-6.679-0.649-13.307-1.289-19.962
		C53.108,50.813,56.287,49.604,59.682,49.309z M55.546,144.409c2.394-6.919,4.405-14.035,3.82-21.31
		c0.975-2.222-0.875-5.524-4.056-4.922c-0.824,0.156-1.637,0.167-2.442,0.087c-0.685-0.665-1.497-1.299-2.443-1.898
		c-0.364-6.08-0.381-12.338-1.616-18.254c6.914,1.186,13.812,2.048,20.813,1.804C72.238,114.774,68.41,135.487,55.546,144.409z
		 M145.684,81.189c-2.801,16.237-18.811,20.668-32.996,20.954c-3.935,0.079-4.737,4.522-2.57,6.659
		c-0.911,4.265-1.33,8.629-1.754,12.966c-0.242,2.478-0.835,5.696-0.529,8.544c-1.207,0.063-2.415,0.188-3.557,0.245
		c-2.39,0.116-4.742,0.295-7.11,0.571c1.681-21.222,1.176-43.165-0.291-64.387c-0.414-6.002-3.683-16.761,2.478-20.907
		c7.413-4.991,22.35-0.662,29.638,2.808C141.115,54.416,147.942,68.101,145.684,81.189z"/>
	<path d="M113.598,57.502c-0.322,0.031-0.603,0.139-0.858,0.28c-0.944,0.243-1.747,0.887-1.919,1.954
		c-0.743,4.601-0.465,9.444-0.246,14.083c0.175,3.726,0.185,8.22,2.059,11.547c0.605,1.074,2.007,1.22,2.917,0.607
		c3.333,2.012,8.438,1.624,11.56-0.312c3.596-2.229,4.915-6.594,4.917-10.6C132.031,65.087,123.675,56.519,113.598,57.502z"/>
</g>
<g>
</g>
<g>
</g>
<g>
</g>
<g>
</g>
<g>
</g>
<g>
</g>
<g>
</g>
<g>
</g>
<g>
</g>
<g>
</g>
<g>
</g>
<g>
</g>
<g>
</g>
<g>
</g>
<g>
</g>
</svg>
