<?xml version="1.0" encoding="iso-8859-1"?>
<!-- Generator: Adobe Illustrator 16.0.0, SVG Export Plug-In . SVG Version: 6.00 Build 0)  -->
<!DOCTYPE svg PUBLIC "-//W3C//DTD SVG 1.1//EN" "http://www.w3.org/Graphics/SVG/1.1/DTD/svg11.dtd">
<svg version="1.1" id="Capa_1" xmlns="http://www.w3.org/2000/svg" xmlns:xlink="http://www.w3.org/1999/xlink" x="0px" y="0px"
	 width="186.427px" height="186.426px" viewBox="0 0 186.427 186.426" style="enable-background:new 0 0 186.427 186.426;"
	 xml:space="preserve">
<g>
	<path d="M164.746,41.351C147.8,16.656,119.755-0.222,89.457,0.002C55.434,0.256,24.12,24.475,11.22,55.201
		c-12.4,29.539-9.726,62.767,7.646,89.73c14.749,22.891,47.293,48.91,76.275,39.53c35.369-2.057,67.607-18.325,81.441-52.562
		C188.652,102.029,182.664,67.461,164.746,41.351z M12.256,73.35c-0.394,0.973-0.767,1.957-1.11,2.955
		c0.415-2.062,0.927-4.099,1.486-6.122C12.467,71.238,12.342,72.292,12.256,73.35z M144.191,27.849
		c1.606,1.397,3.167,2.853,4.684,4.358c-1.595-1.357-3.225-2.672-4.884-3.949C144.066,28.125,144.136,27.989,144.191,27.849z
		 M50.394,143.776c-13.969-11.467-19.381-29.619-19.927-47.071c-0.27-8.624,1.28-16.896,4.242-24.54
		c1.059,8.648,5.952,17.942,8.399,25.528c5.621,17.41,9.799,35.649,16.972,52.565C56.667,148.389,53.407,146.25,50.394,143.776z
		 M42.626,83.97c0.035,0.012,0.069,0.024,0.104,0.034c0.572,1.32,1.134,2.646,1.656,3.99c0.074,0.191,0.167,0.36,0.271,0.514
		c0.16,0.884,0.317,1.767,0.49,2.646C44.327,88.751,43.478,86.36,42.626,83.97z M99.629,158.943
		c-0.357-0.539-0.981-0.91-1.642-0.933c0.003-0.023,0.007-0.049,0.01-0.073c-3.408,0.177-6.595,1.154-10.055,1.162
		c-4.38,0.008-8.778-1.332-12.929-2.604c-0.097-0.03-0.19-0.067-0.288-0.097c7.567-12.217,8.5-28.013,14.699-40.941
		c1.701-3.547,3.356-7.112,4.972-10.693c0.781,2.242,1.495,4.512,2.095,6.822c2.678,10.336,5.051,20.738,8.199,30.947
		c1.013,3.28,2.353,8.549,4.421,13.1C106.011,156.882,102.844,157.991,99.629,158.943z M115.139,116.276
		c-0.534-2.119-1.056-4.238-1.562-6.357c-0.07-0.557-0.141-1.113-0.208-1.671c0.716,2.664,1.399,5.34,2.071,8.021
		C115.34,116.265,115.24,116.269,115.139,116.276z M116.997,103.965c-2.146-7.912-4.484-16.561-7.932-24.561
		c-1.076-4.73-2.449-9.397-4.302-13.964c-0.028-0.071-0.068-0.128-0.101-0.194c2.502-0.146,4.9-0.564,6.925-1.601
		c1.762-0.901,1.788-3.806,0-4.698c-4.578-2.289-10.61-1.058-15.609-0.965c-7.198,0.133-14.414,0.258-21.604-0.165
		c-4.5-0.266-4.437,6.631,0,6.959c2.072,0.153,4.144,0.245,6.216,0.313c-0.812,5.583,3.787,14.607,5.262,18.391
		c1.789,4.59,3.775,9.099,5.635,13.65c-2.379,5.809-5.186,11.463-7.891,17.114c-3.115,6.507-5.213,13.349-7.238,20.223
		c-3.028-10.784-8.016-21.535-11.574-32.008c-4.091-12.033-7.877-24.169-12.589-35.974c3.404,0.103,6.821-0.007,9.815-1.131
		c2.393-0.898,2.393-3.962,0-4.86c-5.141-1.93-11.524-0.894-16.961-0.864c-1.3,0.008-2.596,0.017-3.889,0.037
		c11.1-16.828,29.682-28.715,50.344-31.127c17.851-2.084,33.795,3.866,45.599,14.628c-5.789,0.669-9.075,5.998-8.703,13.672
		c0.281,5.783,2.101,11.577,4.232,16.914c4.553,11.396,6.062,20.946,4.762,33.157c-0.039,0.37,0.074,0.659,0.269,0.872
		c-1.616,5.998-3.456,11.939-5.515,17.793c-1.788,5.085-4.194,9.865-5.523,14.915C123.176,128.382,120.295,116.124,116.997,103.965z
		 M128.041,145.471c-0.11-0.364-0.204-0.731-0.312-1.096c4.702-3.105,6.698-8.375,8.869-13.773
		c3.817-9.492,6.504-19.415,8.801-29.369c2.311-10.009,3.869-20.206,4.781-30.436c0.225-2.511,0.629-5.759,0.821-9.129
		c3.926,7.896,6.348,16.735,6.88,26.038C159.319,112.806,146.656,132.485,128.041,145.471z"/>
</g>
<g>
</g>
<g>
</g>
<g>
</g>
<g>
</g>
<g>
</g>
<g>
</g>
<g>
</g>
<g>
</g>
<g>
</g>
<g>
</g>
<g>
</g>
<g>
</g>
<g>
</g>
<g>
</g>
<g>
</g>
</svg>
